<?xml version="1.0" encoding="utf-8" standalone="no"?>
<!DOCTYPE svg PUBLIC "-//W3C//DTD SVG 1.1//EN"
  "http://www.w3.org/Graphics/SVG/1.1/DTD/svg11.dtd">
<svg xmlns:xlink="http://www.w3.org/1999/xlink" width="1105.92pt" height="546.48pt" viewBox="0 0 1105.92 546.48" xmlns="http://www.w3.org/2000/svg" version="1.1">
 <metadata>
  <rdf:RDF xmlns:dc="http://purl.org/dc/elements/1.1/" xmlns:cc="http://creativecommons.org/ns#" xmlns:rdf="http://www.w3.org/1999/02/22-rdf-syntax-ns#">
   <cc:Work>
    <dc:type rdf:resource="http://purl.org/dc/dcmitype/StillImage"/>
    <dc:date>2025-02-13T10:49:53.294314</dc:date>
    <dc:format>image/svg+xml</dc:format>
    <dc:creator>
     <cc:Agent>
      <dc:title>Matplotlib v3.10.0, https://matplotlib.org/</dc:title>
     </cc:Agent>
    </dc:creator>
   </cc:Work>
  </rdf:RDF>
 </metadata>
 <defs>
  <style type="text/css">*{stroke-linejoin: round; stroke-linecap: butt}</style>
 </defs>
 <g id="figure_1">
  <g id="patch_1">
   <path d="M 0 546.48 
L 1105.92 546.48 
L 1105.92 0 
L 0 0 
z
" style="fill: #ffffff"/>
  </g>
  <g id="axes_1">
   <g id="patch_2">
    <path d="M 387.072 491.832 
L 718.848 491.832 
L 718.848 54.648 
L 387.072 54.648 
z
" style="fill: #eaeaf2"/>
   </g>
   <g id="matplotlib.axis_1">
    <g id="xtick_1">
     <g id="line2d_1">
      <path d="M 427.287273 491.832 
L 427.287273 54.648 
" clip-path="url(#p29dc54376f)" style="fill: none; stroke: #ffffff; stroke-width: 0.8; stroke-linecap: round"/>
     </g>
     <g id="text_1">
      <!-- 纹饰 -->
      <g style="fill: #262626" transform="translate(411.447273 511.465025) scale(0.1584 -0.1584)">
       <defs>
        <path id="DengXian-7eb9" d="M 872 3028 
Q 1300 3022 1838 3059 
Q 2144 3584 2222 3847 
L 2644 3547 
Q 2731 3488 2719 3463 
Q 2719 3444 2619 3406 
Q 2484 3359 2272 3041 
Q 1869 2438 1184 1522 
Q 1888 1619 2669 1800 
L 2547 1363 
Q 1094 1125 678 966 
L 481 1434 
Q 744 1522 947 1791 
Q 1222 2113 1606 2719 
Q 966 2706 397 2584 
L 281 2994 
Q 556 3128 659 3316 
Q 1197 4134 1509 4922 
L 1925 4634 
Q 2009 4575 1997 4556 
Q 1997 4531 1894 4506 
Q 1778 4475 1703 4359 
Q 1275 3647 872 3028 
z
M 5997 3572 
L 5997 3163 
Q 5784 3206 5619 3200 
L 5356 3200 
Q 5178 1594 4550 653 
Q 5166 -128 6297 -441 
Q 6047 -628 5900 -922 
Q 4891 -319 4313 313 
Q 3628 -422 2419 -1025 
Q 2266 -763 1991 -609 
Q 3322 -244 4063 634 
Q 3438 1563 3103 3200 
Q 3097 3200 3084 3200 
Q 2913 3188 2766 3163 
L 2766 3572 
Q 2994 3525 3175 3534 
L 5600 3534 
Q 5772 3525 5997 3572 
z
M 434 -378 
L 281 116 
Q 1281 184 2644 550 
L 2553 128 
Q 891 -213 434 -378 
z
M 3384 4634 
L 3706 4916 
Q 4172 4538 4691 3956 
L 4341 3659 
Q 3909 4231 3384 4634 
z
M 4313 991 
Q 4878 1900 4959 3200 
L 3531 3200 
Q 3738 1906 4313 991 
z
" transform="scale(0.015625)"/>
        <path id="DengXian-9970" d="M 1178 4984 
L 1600 4863 
Q 1722 4831 1716 4800 
Q 1722 4769 1619 4697 
Q 1516 4634 1441 4378 
Q 1403 4244 1234 3794 
L 2003 3794 
Q 2194 3794 2534 3834 
Q 2450 3634 2309 3297 
Q 2144 2894 2059 2694 
Q 1925 2734 1672 2784 
Q 1844 3028 2022 3475 
L 1113 3475 
Q 856 2906 647 2522 
Q 453 2625 184 2650 
Q 897 3444 1178 4984 
z
M 1550 2034 
L 1550 141 
Q 1919 550 2181 922 
Q 2222 684 2363 538 
Q 1678 -225 1381 -628 
Q 1247 -434 1044 -288 
Q 1197 -116 1191 19 
L 1191 2028 
Q 1184 2222 1153 2625 
L 1638 2559 
Q 1716 2553 1728 2528 
Q 1734 2503 1678 2463 
Q 1538 2394 1550 2034 
z
M 2253 2584 
Q 3109 3391 3438 5038 
L 3922 4891 
Q 4006 4863 4006 4831 
Q 4006 4800 3922 4763 
Q 3788 4697 3725 4506 
Q 3713 4469 3694 4397 
Q 3584 4056 3531 3944 
L 5516 3944 
Q 5691 3944 6034 3981 
L 6034 3584 
Q 5709 3616 5522 3622 
L 3406 3622 
Q 3047 2881 2706 2388 
Q 2534 2547 2253 2584 
z
M 2853 2438 
Q 3238 2406 3444 2400 
L 4056 2400 
L 4056 2853 
Q 4056 3091 4019 3456 
L 4513 3391 
Q 4581 3384 4587 3370 
Q 4594 3356 4594 3350 
Q 4594 3328 4544 3297 
Q 4403 3238 4416 2869 
L 4416 2400 
L 5100 2400 
Q 5288 2400 5684 2438 
Q 5650 2100 5644 1900 
L 5644 384 
Q 5650 350 5650 316 
Q 5650 -59 4838 -109 
Q 4838 97 4709 334 
Q 4916 278 5056 278 
Q 5316 278 5288 494 
L 5288 2081 
L 4416 2081 
L 4416 -459 
Q 4422 -684 4453 -1025 
L 4019 -1025 
Q 4050 -697 4056 -459 
L 4056 2081 
L 3238 2081 
L 3238 300 
Q 3244 97 3278 -213 
L 2853 -213 
Q 2888 63 2894 300 
L 2894 1869 
Q 2888 2106 2853 2438 
z
" transform="scale(0.015625)"/>
       </defs>
       <use xlink:href="#DengXian-7eb9"/>
       <use xlink:href="#DengXian-9970" transform="translate(100 0)"/>
      </g>
     </g>
    </g>
    <g id="xtick_2">
     <g id="line2d_2">
      <path d="M 552.96 491.832 
L 552.96 54.648 
" clip-path="url(#p29dc54376f)" style="fill: none; stroke: #ffffff; stroke-width: 0.8; stroke-linecap: round"/>
     </g>
     <g id="text_2">
      <!-- 颜色 -->
      <g style="fill: #262626" transform="translate(537.12 511.319) scale(0.1584 -0.1584)">
       <defs>
        <path id="DengXian-989c" d="M 225 -641 
Q 588 -275 709 475 
Q 769 856 781 1375 
Q 788 1894 750 2619 
Q 738 2816 709 3022 
Q 703 3072 703 3097 
Q 878 3066 1234 3059 
L 2150 3059 
Q 2356 3622 2388 3903 
L 2859 3681 
Q 2900 3659 2900 3628 
Q 2900 3597 2853 3591 
Q 2706 3566 2638 3438 
Q 2547 3244 2425 3059 
L 2803 3059 
Q 3066 3059 3219 3097 
L 3219 2713 
Q 3034 2753 2803 2753 
L 1131 2753 
Q 1147 1209 1056 488 
Q 953 -331 703 -788 
Q 550 -659 225 -641 
z
M 1106 3659 
L 1363 3859 
Q 1656 3547 1844 3272 
L 1575 3066 
Q 1375 3372 1106 3659 
z
M 1656 5038 
Q 2003 4756 2253 4475 
L 2053 4281 
L 2578 4281 
Q 2894 4281 3003 4319 
L 3003 3938 
Q 2816 3975 2578 3975 
L 1113 3975 
Q 844 3975 653 3938 
L 653 4319 
Q 800 4281 1119 4281 
L 1931 4281 
Q 1716 4531 1403 4806 
L 1656 5038 
z
M 1253 1813 
Q 2088 2125 2463 2663 
L 2816 2400 
Q 2847 2375 2840 2351 
Q 2834 2328 2784 2322 
Q 2631 2309 2497 2181 
Q 2053 1791 1522 1484 
Q 1428 1619 1253 1813 
z
M 2881 -600 
Q 3938 -231 4134 306 
Q 4294 738 4341 1253 
Q 4366 1509 4359 1831 
Q 4359 2144 4331 2591 
L 4844 2534 
Q 4878 2528 4878 2509 
Q 4884 2497 4856 2472 
Q 4756 2344 4744 2163 
Q 4769 744 4372 84 
Q 4122 -378 3256 -966 
Q 3200 -813 2881 -600 
z
M 5684 563 
L 5234 563 
Q 5275 716 5275 1006 
L 5275 3078 
L 3841 3078 
L 3841 972 
Q 3841 666 3878 500 
L 3431 500 
Q 3469 666 3469 972 
L 3469 2963 
Q 3469 3244 3431 3438 
Q 3622 3400 3994 3400 
L 4191 3400 
Q 4288 3988 4313 4281 
L 3700 4281 
Q 3413 4281 3225 4244 
L 3225 4641 
Q 3391 4603 3725 4603 
L 5588 4603 
Q 5850 4603 6003 4641 
L 6003 4244 
Q 5856 4281 5588 4281 
L 4728 4281 
Q 4672 3928 4550 3400 
L 5197 3400 
Q 5522 3400 5684 3438 
Q 5644 3244 5644 2963 
L 5644 1006 
Q 5644 728 5684 563 
z
M 4966 428 
Q 5538 44 6022 -466 
L 5778 -738 
Q 5394 -313 4722 166 
L 4966 428 
z
M 1306 813 
Q 2278 1228 2719 1925 
L 3053 1600 
Q 3084 1569 3078 1550 
Q 3072 1538 3022 1528 
Q 2881 1516 2759 1409 
Q 2272 909 1600 488 
Q 1434 750 1306 813 
z
M 1119 -403 
Q 2266 -6 2906 984 
L 3231 659 
Q 3250 638 3250 619 
Q 3250 578 3150 563 
Q 3041 544 2919 397 
Q 2303 -294 1403 -788 
Q 1325 -600 1119 -403 
z
" transform="scale(0.015625)"/>
        <path id="DengXian-8272" d="M 288 2963 
Q 1734 3647 2375 4897 
L 2853 4678 
Q 2931 4647 2925 4628 
Q 2931 4609 2853 4588 
Q 2638 4538 2541 4409 
Q 2534 4397 2522 4384 
Q 2456 4294 2375 4200 
L 4013 4200 
Q 4384 4200 4709 4238 
L 3956 2981 
L 4506 2981 
Q 4831 2981 5184 3022 
Q 5147 2688 5147 2394 
L 5147 1741 
Q 5147 1466 5184 1125 
Q 4844 1166 4506 1166 
L 1453 1166 
L 1453 19 
Q 1447 -225 1544 -294 
Q 1619 -384 1900 -409 
Q 2034 -422 2528 -428 
Q 3034 -441 3609 -434 
Q 4703 -422 4934 -384 
Q 5556 -341 5544 488 
Q 5753 334 5997 256 
Q 5778 -716 5006 -750 
Q 4831 -775 3938 -788 
Q 3444 -794 2816 -794 
Q 2444 -797 2200 -797 
Q 1956 -797 1838 -794 
Q 1063 -800 1094 0 
L 1094 2431 
Q 1094 2669 1056 2975 
Q 897 2847 666 2688 
Q 525 2822 288 2963 
z
M 1106 3022 
Q 1394 2981 1644 2981 
L 3531 2981 
L 4078 3891 
L 2113 3891 
Q 1625 3413 1106 3022 
z
M 1453 2663 
L 1453 1484 
L 2938 1484 
L 2938 2663 
L 1453 2663 
z
M 3297 2663 
L 3297 1484 
L 4788 1484 
L 4788 2663 
L 3297 2663 
z
" transform="scale(0.015625)"/>
       </defs>
       <use xlink:href="#DengXian-989c"/>
       <use xlink:href="#DengXian-8272" transform="translate(100 0)"/>
      </g>
     </g>
    </g>
    <g id="xtick_3">
     <g id="line2d_3">
      <path d="M 678.632727 491.832 
L 678.632727 54.648 
" clip-path="url(#p29dc54376f)" style="fill: none; stroke: #ffffff; stroke-width: 0.8; stroke-linecap: round"/>
     </g>
     <g id="text_3">
      <!-- 表面风化 -->
      <g style="fill: #262626" transform="translate(646.952727 511.093775) scale(0.1584 -0.1584)">
       <defs>
        <path id="DengXian-8868" d="M 275 294 
Q 1709 756 2663 2028 
L 934 2028 
Q 622 2028 416 1991 
L 416 2388 
Q 569 2350 934 2350 
L 3022 2350 
L 3022 2994 
L 1697 2994 
Q 1363 2994 1172 2956 
L 1172 3353 
Q 1375 3316 1697 3316 
L 3022 3316 
L 3022 3891 
L 1356 3891 
Q 1025 3891 831 3853 
L 831 4250 
Q 1019 4213 1356 4213 
L 3022 4213 
L 3022 4372 
Q 3022 4722 2981 4953 
L 3494 4872 
Q 3572 4856 3578 4825 
Q 3584 4800 3519 4756 
Q 3359 4678 3378 4397 
L 3378 4213 
L 5094 4213 
Q 5453 4213 5619 4250 
L 5619 3853 
Q 5422 3884 5094 3891 
L 3378 3891 
L 3378 3316 
L 4788 3316 
Q 5153 3316 5306 3353 
L 5306 2956 
Q 5113 2994 4788 2994 
L 3378 2994 
L 3378 2350 
L 5516 2350 
Q 5875 2350 6041 2388 
L 6041 1991 
Q 5856 2028 5516 2028 
L 3688 2028 
Q 3809 1466 4191 928 
Q 4794 1350 5216 1881 
L 5528 1575 
Q 5625 1478 5613 1441 
Q 5600 1409 5459 1409 
Q 5313 1394 5166 1288 
Q 5119 1247 5019 1166 
Q 4703 903 4422 684 
Q 5088 -25 6041 -250 
Q 5813 -453 5684 -647 
Q 3653 225 3328 2028 
L 3128 2028 
Q 2950 1759 2547 1319 
L 2547 -347 
Q 3391 56 3781 359 
L 3738 -147 
Q 2644 -653 2259 -941 
Q 2131 -697 2016 -544 
Q 2131 -481 2156 -409 
Q 2188 -325 2188 -122 
L 2188 991 
Q 1563 416 659 -84 
Q 488 147 275 294 
z
" transform="scale(0.015625)"/>
        <path id="DengXian-9762" d="M 6075 4513 
L 6075 4116 
Q 5856 4153 5563 4153 
L 3463 4153 
Q 3366 3909 3078 3250 
L 4928 3250 
Q 5247 3250 5453 3291 
Q 5416 3109 5416 2803 
L 5416 -306 
Q 5416 -588 5453 -763 
L 5019 -763 
Q 5063 -616 5056 -313 
L 1338 -313 
Q 1338 -666 1375 -819 
L 947 -819 
Q 984 -634 984 -306 
L 984 2759 
Q 991 3097 947 3291 
Q 1094 3244 1459 3250 
L 2644 3250 
Q 2853 3725 3022 4153 
L 897 4153 
Q 594 4153 378 4116 
L 378 4513 
Q 563 4475 897 4475 
L 5550 4475 
Q 5925 4475 6075 4513 
z
M 1344 2931 
L 1344 -6 
L 2234 -6 
L 2234 2931 
L 1344 2931 
z
M 2578 844 
L 2578 -6 
L 3803 -6 
L 3803 844 
L 2578 844 
z
M 2578 1153 
L 3803 1153 
L 3803 1856 
L 2578 1856 
L 2578 1153 
z
M 2578 2931 
L 2578 2163 
L 3803 2163 
L 3803 2931 
L 2578 2931 
z
M 4147 2931 
L 4147 -6 
L 5056 -6 
L 5056 2931 
L 4147 2931 
z
" transform="scale(0.015625)"/>
        <path id="DengXian-98ce" d="M 206 -459 
Q 838 128 1075 1166 
Q 1259 1938 1259 3163 
Q 1259 3559 1241 3994 
Q 1228 4300 1178 4628 
Q 1538 4588 1825 4588 
L 4538 4588 
Q 4850 4588 5178 4628 
Q 5172 4581 5153 4488 
Q 5094 4159 5094 4031 
Q 5053 3291 5053 2625 
Q 5053 1681 5141 1025 
Q 5313 -159 5678 -225 
Q 5825 -256 5825 200 
Q 5825 303 5819 416 
Q 5978 281 6228 184 
Q 6138 -697 5778 -738 
Q 4672 -709 4672 2756 
Q 4672 3481 4716 4294 
L 1631 4294 
Q 1666 3600 1666 3044 
Q 1666 1878 1522 1184 
Q 1331 172 634 -709 
Q 428 -563 206 -459 
z
M 1394 447 
Q 2175 850 3003 2022 
Q 2606 2450 1838 3169 
L 2088 3431 
Q 2631 2913 3188 2338 
Q 3681 3188 3816 3756 
L 4213 3572 
Q 4306 3525 4306 3506 
Q 4313 3481 4231 3450 
Q 4116 3400 4025 3213 
Q 3763 2663 3444 2059 
Q 4153 1300 4634 728 
L 4341 475 
Q 3803 1153 3238 1766 
Q 2584 844 1819 184 
Q 1625 347 1394 447 
z
" transform="scale(0.015625)"/>
        <path id="DengXian-5316" d="M 238 2034 
Q 1325 2931 2113 4972 
L 2584 4728 
Q 2650 4697 2644 4678 
Q 2644 4659 2572 4628 
Q 2431 4569 2291 4281 
Q 2100 3884 1875 3488 
L 1875 -319 
Q 1881 -575 1913 -922 
L 1478 -922 
Q 1516 -556 1516 -319 
L 1516 2894 
Q 1147 2303 684 1728 
Q 488 1900 238 2034 
z
M 3866 4250 
L 3866 1991 
Q 4897 2913 5447 3828 
L 5838 3488 
Q 5900 3438 5894 3414 
Q 5888 3391 5806 3366 
Q 5684 3366 5453 3091 
Q 4588 2106 3866 1484 
L 3866 44 
Q 3853 -244 3994 -294 
Q 4128 -372 4665 -372 
Q 5203 -372 5381 -294 
Q 5569 -231 5619 6 
Q 5663 206 5697 569 
Q 5850 428 6156 366 
Q 6144 306 6125 231 
Q 6094 97 6069 -6 
Q 5913 -728 5166 -722 
Q 4903 -731 4703 -731 
Q 4366 -731 4044 -709 
Q 3513 -659 3494 -134 
L 3494 1209 
Q 3066 903 2547 563 
Q 2350 831 2169 966 
Q 2681 1081 3494 1684 
L 3494 4269 
Q 3494 4469 3456 4878 
L 3950 4813 
Q 4019 4806 4019 4781 
Q 4025 4769 3969 4709 
Q 3859 4622 3866 4250 
z
" transform="scale(0.015625)"/>
       </defs>
       <use xlink:href="#DengXian-8868"/>
       <use xlink:href="#DengXian-9762" transform="translate(100 0)"/>
       <use xlink:href="#DengXian-98ce" transform="translate(200 0)"/>
       <use xlink:href="#DengXian-5316" transform="translate(300 0)"/>
      </g>
     </g>
    </g>
   </g>
   <g id="matplotlib.axis_2">
    <g id="ytick_1">
     <g id="line2d_4">
      <path d="M 387.072 491.832 
L 718.848 491.832 
" clip-path="url(#p29dc54376f)" style="fill: none; stroke: #ffffff; stroke-width: 0.8; stroke-linecap: round"/>
     </g>
     <g id="text_4">
      <!-- 0.0 -->
      <g style="fill: #262626" transform="translate(358.608175 497.145825) scale(0.1584 -0.1584)">
       <defs>
        <path id="DengXian-30" d="M 3106 1953 
Q 3106 850 2750 268 
Q 2394 -313 1697 -313 
Q 1006 -313 654 256 
Q 303 825 303 1953 
Q 303 3100 645 3659 
Q 988 4219 1719 4219 
Q 2422 4219 2764 3656 
Q 3106 3094 3106 1953 
z
M 2706 1953 
Q 2706 2963 2473 3425 
Q 2241 3888 1716 3888 
Q 1172 3888 936 3423 
Q 700 2959 700 1953 
Q 700 969 944 495 
Q 1188 22 1703 22 
Q 2216 22 2461 508 
Q 2706 994 2706 1953 
z
" transform="scale(0.015625)"/>
        <path id="DengXian-2e" d="M 475 -250 
L 475 291 
L 928 291 
L 928 -250 
L 475 -250 
z
" transform="scale(0.015625)"/>
       </defs>
       <use xlink:href="#DengXian-30"/>
       <use xlink:href="#DengXian-2e" transform="translate(52.685547 0)"/>
       <use xlink:href="#DengXian-30" transform="translate(74.609375 0)"/>
      </g>
     </g>
    </g>
    <g id="ytick_2">
     <g id="line2d_5">
      <path d="M 387.072 426.616941 
L 718.848 426.616941 
" clip-path="url(#p29dc54376f)" style="fill: none; stroke: #ffffff; stroke-width: 0.8; stroke-linecap: round"/>
     </g>
     <g id="text_5">
      <!-- 0.1 -->
      <g style="fill: #262626" transform="translate(358.608175 431.930766) scale(0.1584 -0.1584)">
       <defs>
        <path id="DengXian-31" d="M 484 -250 
L 484 84 
L 1609 84 
L 1609 3744 
L 603 3075 
L 603 3434 
L 1653 4153 
L 2000 4153 
L 2000 84 
L 2959 84 
L 2959 -250 
L 484 -250 
z
" transform="scale(0.015625)"/>
       </defs>
       <use xlink:href="#DengXian-30"/>
       <use xlink:href="#DengXian-2e" transform="translate(52.685547 0)"/>
       <use xlink:href="#DengXian-31" transform="translate(74.609375 0)"/>
      </g>
     </g>
    </g>
    <g id="ytick_3">
     <g id="line2d_6">
      <path d="M 387.072 361.401881 
L 718.848 361.401881 
" clip-path="url(#p29dc54376f)" style="fill: none; stroke: #ffffff; stroke-width: 0.8; stroke-linecap: round"/>
     </g>
     <g id="text_6">
      <!-- 0.2 -->
      <g style="fill: #262626" transform="translate(358.608175 366.715706) scale(0.1584 -0.1584)">
       <defs>
        <path id="DengXian-32" d="M 347 -250 
L 347 31 
Q 491 394 764 751 
Q 1038 1109 1566 1569 
Q 2109 2038 2326 2359 
Q 2544 2681 2544 3034 
Q 2544 3441 2316 3661 
Q 2088 3881 1681 3881 
Q 1313 3881 1077 3664 
Q 841 3447 800 3069 
L 400 3119 
Q 447 3613 795 3916 
Q 1144 4219 1684 4219 
Q 2281 4219 2615 3912 
Q 2950 3606 2950 3059 
Q 2950 2778 2850 2531 
Q 2750 2284 2550 2039 
Q 2350 1794 1869 1366 
Q 1025 616 803 103 
L 3016 103 
L 3016 -250 
L 347 -250 
z
" transform="scale(0.015625)"/>
       </defs>
       <use xlink:href="#DengXian-30"/>
       <use xlink:href="#DengXian-2e" transform="translate(52.685547 0)"/>
       <use xlink:href="#DengXian-32" transform="translate(74.609375 0)"/>
      </g>
     </g>
    </g>
    <g id="ytick_4">
     <g id="line2d_7">
      <path d="M 387.072 296.186822 
L 718.848 296.186822 
" clip-path="url(#p29dc54376f)" style="fill: none; stroke: #ffffff; stroke-width: 0.8; stroke-linecap: round"/>
     </g>
     <g id="text_7">
      <!-- 0.3 -->
      <g style="fill: #262626" transform="translate(358.608175 301.500647) scale(0.1584 -0.1584)">
       <defs>
        <path id="DengXian-33" d="M 3019 963 
Q 3019 356 2662 21 
Q 2306 -313 1656 -313 
Q 409 -313 266 828 
L 669 872 
Q 778 25 1656 25 
Q 2122 25 2367 262 
Q 2613 500 2613 963 
Q 2613 1375 2320 1590 
Q 2028 1806 1500 1806 
L 1200 1806 
L 1200 2172 
L 1491 2172 
Q 1784 2172 2011 2269 
Q 2238 2366 2369 2555 
Q 2500 2744 2500 3022 
Q 2500 3434 2283 3659 
Q 2066 3884 1644 3884 
Q 1266 3884 1027 3689 
Q 788 3494 747 3091 
L 353 3125 
Q 413 3647 755 3933 
Q 1097 4219 1647 4219 
Q 2244 4219 2573 3914 
Q 2903 3609 2903 3056 
Q 2903 2653 2672 2376 
Q 2441 2100 2022 2009 
L 2022 1997 
Q 2491 1938 2755 1658 
Q 3019 1378 3019 963 
z
" transform="scale(0.015625)"/>
       </defs>
       <use xlink:href="#DengXian-30"/>
       <use xlink:href="#DengXian-2e" transform="translate(52.685547 0)"/>
       <use xlink:href="#DengXian-33" transform="translate(74.609375 0)"/>
      </g>
     </g>
    </g>
    <g id="ytick_5">
     <g id="line2d_8">
      <path d="M 387.072 230.971763 
L 718.848 230.971763 
" clip-path="url(#p29dc54376f)" style="fill: none; stroke: #ffffff; stroke-width: 0.8; stroke-linecap: round"/>
     </g>
     <g id="text_8">
      <!-- 0.4 -->
      <g style="fill: #262626" transform="translate(358.608175 236.285588) scale(0.1584 -0.1584)">
       <defs>
        <path id="DengXian-34" d="M 2516 803 
L 2516 -250 
L 2125 -250 
L 2125 803 
L 141 803 
L 141 1116 
L 2088 4153 
L 2516 4153 
L 2516 1131 
L 3113 1131 
L 3113 803 
L 2516 803 
z
M 2125 3628 
L 538 1131 
L 2125 1131 
L 2125 3628 
z
" transform="scale(0.015625)"/>
       </defs>
       <use xlink:href="#DengXian-30"/>
       <use xlink:href="#DengXian-2e" transform="translate(52.685547 0)"/>
       <use xlink:href="#DengXian-34" transform="translate(74.609375 0)"/>
      </g>
     </g>
    </g>
    <g id="ytick_6">
     <g id="line2d_9">
      <path d="M 387.072 165.756703 
L 718.848 165.756703 
" clip-path="url(#p29dc54376f)" style="fill: none; stroke: #ffffff; stroke-width: 0.8; stroke-linecap: round"/>
     </g>
     <g id="text_9">
      <!-- 0.5 -->
      <g style="fill: #262626" transform="translate(358.608175 171.070528) scale(0.1584 -0.1584)">
       <defs>
        <path id="DengXian-35" d="M 3047 1169 
Q 3047 469 2676 78 
Q 2306 -313 1641 -313 
Q 575 -313 366 672 
L 763 734 
Q 859 350 1075 186 
Q 1291 22 1669 22 
Q 2134 22 2387 315 
Q 2641 609 2641 1153 
Q 2641 1619 2392 1895 
Q 2144 2172 1713 2172 
Q 1459 2172 1265 2095 
Q 1072 2019 875 1844 
L 503 1844 
L 641 4153 
L 2828 4153 
L 2828 3816 
L 997 3816 
L 894 2222 
Q 1113 2381 1323 2442 
Q 1534 2503 1775 2503 
Q 2359 2503 2703 2142 
Q 3047 1781 3047 1169 
z
" transform="scale(0.015625)"/>
       </defs>
       <use xlink:href="#DengXian-30"/>
       <use xlink:href="#DengXian-2e" transform="translate(52.685547 0)"/>
       <use xlink:href="#DengXian-35" transform="translate(74.609375 0)"/>
      </g>
     </g>
    </g>
    <g id="ytick_7">
     <g id="line2d_10">
      <path d="M 387.072 100.541644 
L 718.848 100.541644 
" clip-path="url(#p29dc54376f)" style="fill: none; stroke: #ffffff; stroke-width: 0.8; stroke-linecap: round"/>
     </g>
     <g id="text_10">
      <!-- 0.6 -->
      <g style="fill: #262626" transform="translate(358.608175 105.855469) scale(0.1584 -0.1584)">
       <defs>
        <path id="DengXian-36" d="M 3047 1191 
Q 3047 491 2697 89 
Q 2347 -313 1747 -313 
Q 1075 -313 720 234 
Q 366 781 366 1850 
Q 366 3031 739 3625 
Q 1113 4219 1841 4219 
Q 2284 4219 2553 4026 
Q 2822 3834 2944 3428 
L 2566 3344 
Q 2400 3888 1816 3888 
Q 1303 3888 1033 3402 
Q 763 2916 756 1969 
Q 913 2263 1183 2417 
Q 1453 2572 1800 2572 
Q 2372 2572 2709 2201 
Q 3047 1831 3047 1191 
z
M 2647 1166 
Q 2647 1675 2405 1964 
Q 2163 2253 1716 2253 
Q 1466 2253 1256 2137 
Q 1047 2022 926 1806 
Q 806 1591 806 1306 
Q 806 747 1064 383 
Q 1322 19 1738 19 
Q 2166 19 2406 325 
Q 2647 631 2647 1166 
z
" transform="scale(0.015625)"/>
       </defs>
       <use xlink:href="#DengXian-30"/>
       <use xlink:href="#DengXian-2e" transform="translate(52.685547 0)"/>
       <use xlink:href="#DengXian-36" transform="translate(74.609375 0)"/>
      </g>
     </g>
    </g>
   </g>
   <g id="patch_3">
    <path d="M 402.152727 491.832 
L 452.421818 491.832 
L 452.421818 408.077691 
L 402.152727 408.077691 
z
" clip-path="url(#p29dc54376f)" style="fill: #4c72b0; opacity: 0.8; stroke: #000000; stroke-width: 0.8; stroke-linejoin: miter"/>
   </g>
   <g id="patch_4">
    <path d="M 527.825455 491.832 
L 578.094545 491.832 
L 578.094545 75.466286 
L 527.825455 75.466286 
z
" clip-path="url(#p29dc54376f)" style="fill: #4c72b0; opacity: 0.8; stroke: #000000; stroke-width: 0.8; stroke-linejoin: miter"/>
   </g>
   <g id="patch_5">
    <path d="M 653.498182 491.832 
L 703.767273 491.832 
L 703.767273 339.80143 
L 653.498182 339.80143 
z
" clip-path="url(#p29dc54376f)" style="fill: #4c72b0; opacity: 0.8; stroke: #000000; stroke-width: 0.8; stroke-linejoin: miter"/>
   </g>
   <g id="patch_6">
    <path d="M 387.072 491.832 
L 387.072 54.648 
" style="fill: none; stroke: #ffffff; stroke-linejoin: miter; stroke-linecap: square"/>
   </g>
   <g id="patch_7">
    <path d="M 718.848 491.832 
L 718.848 54.648 
" style="fill: none; stroke: #ffffff; stroke-linejoin: miter; stroke-linecap: square"/>
   </g>
   <g id="patch_8">
    <path d="M 387.072 491.832 
L 718.848 491.832 
" style="fill: none; stroke: #ffffff; stroke-linejoin: miter; stroke-linecap: square"/>
   </g>
   <g id="patch_9">
    <path d="M 387.072 54.648 
L 718.848 54.648 
" style="fill: none; stroke: #ffffff; stroke-linejoin: miter; stroke-linecap: square"/>
   </g>
   <g id="text_11">
    <!-- 0.13 -->
    <g style="fill: #262626" transform="translate(411.736623 400.070891) scale(0.1728 -0.1728)">
     <use xlink:href="#DengXian-30"/>
     <use xlink:href="#DengXian-2e" transform="translate(52.685547 0)"/>
     <use xlink:href="#DengXian-31" transform="translate(74.609375 0)"/>
     <use xlink:href="#DengXian-33" transform="translate(127.294922 0)"/>
    </g>
   </g>
   <g id="text_12">
    <!-- 0.64 -->
    <g style="fill: #262626" transform="translate(537.40935 67.459486) scale(0.1728 -0.1728)">
     <use xlink:href="#DengXian-30"/>
     <use xlink:href="#DengXian-2e" transform="translate(52.685547 0)"/>
     <use xlink:href="#DengXian-36" transform="translate(74.609375 0)"/>
     <use xlink:href="#DengXian-34" transform="translate(127.294922 0)"/>
    </g>
   </g>
   <g id="text_13">
    <!-- 0.23 -->
    <g style="fill: #262626" transform="translate(663.082077 331.79463) scale(0.1728 -0.1728)">
     <use xlink:href="#DengXian-30"/>
     <use xlink:href="#DengXian-2e" transform="translate(52.685547 0)"/>
     <use xlink:href="#DengXian-32" transform="translate(74.609375 0)"/>
     <use xlink:href="#DengXian-33" transform="translate(127.294922 0)"/>
    </g>
   </g>
  </g>
 </g>
 <defs>
  <clipPath id="p29dc54376f">
   <rect x="387.072" y="54.648" width="331.776" height="437.184"/>
  </clipPath>
 </defs>
</svg>
