<?xml version="1.0" encoding="utf-8" standalone="no"?>
<!DOCTYPE svg PUBLIC "-//W3C//DTD SVG 1.1//EN"
  "http://www.w3.org/Graphics/SVG/1.1/DTD/svg11.dtd">
<svg xmlns:xlink="http://www.w3.org/1999/xlink" width="1105.92pt" height="546.48pt" viewBox="0 0 1105.92 546.48" xmlns="http://www.w3.org/2000/svg" version="1.1">
 <metadata>
  <rdf:RDF xmlns:dc="http://purl.org/dc/elements/1.1/" xmlns:cc="http://creativecommons.org/ns#" xmlns:rdf="http://www.w3.org/1999/02/22-rdf-syntax-ns#">
   <cc:Work>
    <dc:type rdf:resource="http://purl.org/dc/dcmitype/StillImage"/>
    <dc:date>2025-02-13T10:51:05.027347</dc:date>
    <dc:format>image/svg+xml</dc:format>
    <dc:creator>
     <cc:Agent>
      <dc:title>Matplotlib v3.10.0, https://matplotlib.org/</dc:title>
     </cc:Agent>
    </dc:creator>
   </cc:Work>
  </rdf:RDF>
 </metadata>
 <defs>
  <style type="text/css">*{stroke-linejoin: round; stroke-linecap: butt}</style>
 </defs>
 <g id="figure_1">
  <g id="patch_1">
   <path d="M 0 546.48 
L 1105.92 546.48 
L 1105.92 0 
L 0 0 
z
" style="fill: #ffffff"/>
  </g>
  <g id="axes_1">
   <g id="patch_2">
    <path d="M 138.24 486.3672 
L 995.328 486.3672 
L 995.328 65.5776 
L 138.24 65.5776 
z
" style="fill: #eaeaf2"/>
   </g>
   <g id="matplotlib.axis_1">
    <g id="xtick_1">
     <g id="line2d_1">
      <path d="M 146.985796 486.3672 
L 146.985796 65.5776 
" clip-path="url(#pf51e67aad3)" style="fill: none; stroke: #ffffff; stroke-width: 0.8; stroke-linecap: round"/>
     </g>
     <g id="text_1">
      <!-- 23未风化点 -->
      <g style="fill: #262626" transform="translate(148.902671 535.0972) rotate(-90) scale(0.08 -0.08)">
       <defs>
        <path id="DengXian-32" d="M 347 -250 
L 347 31 
Q 491 394 764 751 
Q 1038 1109 1566 1569 
Q 2109 2038 2326 2359 
Q 2544 2681 2544 3034 
Q 2544 3441 2316 3661 
Q 2088 3881 1681 3881 
Q 1313 3881 1077 3664 
Q 841 3447 800 3069 
L 400 3119 
Q 447 3613 795 3916 
Q 1144 4219 1684 4219 
Q 2281 4219 2615 3912 
Q 2950 3606 2950 3059 
Q 2950 2778 2850 2531 
Q 2750 2284 2550 2039 
Q 2350 1794 1869 1366 
Q 1025 616 803 103 
L 3016 103 
L 3016 -250 
L 347 -250 
z
" transform="scale(0.015625)"/>
        <path id="DengXian-33" d="M 3019 963 
Q 3019 356 2662 21 
Q 2306 -313 1656 -313 
Q 409 -313 266 828 
L 669 872 
Q 778 25 1656 25 
Q 2122 25 2367 262 
Q 2613 500 2613 963 
Q 2613 1375 2320 1590 
Q 2028 1806 1500 1806 
L 1200 1806 
L 1200 2172 
L 1491 2172 
Q 1784 2172 2011 2269 
Q 2238 2366 2369 2555 
Q 2500 2744 2500 3022 
Q 2500 3434 2283 3659 
Q 2066 3884 1644 3884 
Q 1266 3884 1027 3689 
Q 788 3494 747 3091 
L 353 3125 
Q 413 3647 755 3933 
Q 1097 4219 1647 4219 
Q 2244 4219 2573 3914 
Q 2903 3609 2903 3056 
Q 2903 2653 2672 2376 
Q 2441 2100 2022 2009 
L 2022 1997 
Q 2491 1938 2755 1658 
Q 3019 1378 3019 963 
z
" transform="scale(0.015625)"/>
        <path id="DengXian-672a" d="M 331 -244 
Q 1650 325 2625 2144 
L 1019 2144 
Q 819 2150 531 2106 
L 531 2516 
Q 800 2472 1006 2478 
L 2950 2478 
L 2950 3500 
L 1550 3500 
Q 1338 3506 1088 3463 
L 1088 3872 
Q 1325 3828 1528 3834 
L 2950 3834 
L 2950 4481 
Q 2956 4775 2913 5038 
L 3397 4972 
Q 3481 4966 3481 4947 
Q 3488 4928 3425 4891 
Q 3316 4844 3322 4469 
L 3322 3834 
L 4697 3834 
Q 4891 3828 5166 3872 
L 5166 3463 
Q 4897 3506 4697 3500 
L 3322 3500 
L 3322 2478 
L 5313 2478 
Q 5491 2472 5747 2516 
L 5747 2106 
Q 5491 2150 5313 2144 
L 3647 2144 
Q 4306 569 6022 -141 
Q 5722 -269 5619 -506 
Q 3938 519 3322 2034 
L 3322 -422 
Q 3316 -750 3359 -997 
L 2913 -997 
Q 2956 -709 2950 -428 
L 2950 1991 
Q 1966 294 756 -575 
Q 616 -331 331 -244 
z
" transform="scale(0.015625)"/>
        <path id="DengXian-98ce" d="M 206 -459 
Q 838 128 1075 1166 
Q 1259 1938 1259 3163 
Q 1259 3559 1241 3994 
Q 1228 4300 1178 4628 
Q 1538 4588 1825 4588 
L 4538 4588 
Q 4850 4588 5178 4628 
Q 5172 4581 5153 4488 
Q 5094 4159 5094 4031 
Q 5053 3291 5053 2625 
Q 5053 1681 5141 1025 
Q 5313 -159 5678 -225 
Q 5825 -256 5825 200 
Q 5825 303 5819 416 
Q 5978 281 6228 184 
Q 6138 -697 5778 -738 
Q 4672 -709 4672 2756 
Q 4672 3481 4716 4294 
L 1631 4294 
Q 1666 3600 1666 3044 
Q 1666 1878 1522 1184 
Q 1331 172 634 -709 
Q 428 -563 206 -459 
z
M 1394 447 
Q 2175 850 3003 2022 
Q 2606 2450 1838 3169 
L 2088 3431 
Q 2631 2913 3188 2338 
Q 3681 3188 3816 3756 
L 4213 3572 
Q 4306 3525 4306 3506 
Q 4313 3481 4231 3450 
Q 4116 3400 4025 3213 
Q 3763 2663 3444 2059 
Q 4153 1300 4634 728 
L 4341 475 
Q 3803 1153 3238 1766 
Q 2584 844 1819 184 
Q 1625 347 1394 447 
z
" transform="scale(0.015625)"/>
        <path id="DengXian-5316" d="M 238 2034 
Q 1325 2931 2113 4972 
L 2584 4728 
Q 2650 4697 2644 4678 
Q 2644 4659 2572 4628 
Q 2431 4569 2291 4281 
Q 2100 3884 1875 3488 
L 1875 -319 
Q 1881 -575 1913 -922 
L 1478 -922 
Q 1516 -556 1516 -319 
L 1516 2894 
Q 1147 2303 684 1728 
Q 488 1900 238 2034 
z
M 3866 4250 
L 3866 1991 
Q 4897 2913 5447 3828 
L 5838 3488 
Q 5900 3438 5894 3414 
Q 5888 3391 5806 3366 
Q 5684 3366 5453 3091 
Q 4588 2106 3866 1484 
L 3866 44 
Q 3853 -244 3994 -294 
Q 4128 -372 4665 -372 
Q 5203 -372 5381 -294 
Q 5569 -231 5619 6 
Q 5663 206 5697 569 
Q 5850 428 6156 366 
Q 6144 306 6125 231 
Q 6094 97 6069 -6 
Q 5913 -728 5166 -722 
Q 4903 -731 4703 -731 
Q 4366 -731 4044 -709 
Q 3513 -659 3494 -134 
L 3494 1209 
Q 3066 903 2547 563 
Q 2350 831 2169 966 
Q 2681 1081 3494 1684 
L 3494 4269 
Q 3494 4469 3456 4878 
L 3950 4813 
Q 4019 4806 4019 4781 
Q 4025 4769 3969 4709 
Q 3859 4622 3866 4250 
z
" transform="scale(0.015625)"/>
        <path id="DengXian-70b9" d="M 306 -653 
Q 897 -116 1281 678 
L 1663 453 
Q 1734 409 1728 384 
Q 1722 353 1631 319 
Q 1522 275 1441 141 
Q 1153 -325 744 -863 
Q 594 -716 306 -653 
z
M 1247 1075 
Q 1294 1428 1288 1656 
L 1288 2431 
Q 1288 2650 1247 2988 
Q 1569 2950 1806 2950 
L 2803 2950 
L 2803 4409 
Q 2803 4594 2766 4972 
L 3272 4916 
Q 3347 4903 3353 4870 
Q 3359 4838 3297 4781 
Q 3169 4647 3163 4347 
L 3163 4097 
L 5069 4097 
Q 5300 4097 5631 4134 
L 5631 3738 
Q 5300 3775 5069 3775 
L 3163 3775 
L 3163 2950 
L 4441 2950 
Q 4609 2944 4997 2988 
Q 4959 2663 4959 2456 
L 4959 1563 
Q 4959 1394 4997 1075 
Q 4634 1113 4422 1113 
L 1838 1113 
Q 1619 1119 1247 1075 
z
M 1644 2631 
L 1644 1434 
L 4603 1434 
L 4603 2631 
L 1644 2631 
z
M 2081 459 
L 2478 581 
Q 2719 -78 2859 -600 
L 2463 -744 
Q 2350 -84 2081 459 
z
M 3303 500 
L 3669 641 
Q 3981 78 4231 -466 
L 3853 -672 
Q 3653 -63 3303 500 
z
M 5094 775 
Q 5516 147 5931 -588 
L 5550 -831 
Q 5222 -141 4728 550 
L 5094 775 
z
" transform="scale(0.015625)"/>
       </defs>
       <use xlink:href="#DengXian-32"/>
       <use xlink:href="#DengXian-33" transform="translate(52.685547 0)"/>
       <use xlink:href="#DengXian-672a" transform="translate(105.371094 0)"/>
       <use xlink:href="#DengXian-98ce" transform="translate(205.371094 0)"/>
       <use xlink:href="#DengXian-5316" transform="translate(305.371094 0)"/>
       <use xlink:href="#DengXian-70b9" transform="translate(405.371094 0)"/>
      </g>
     </g>
    </g>
    <g id="xtick_2">
     <g id="line2d_2">
      <path d="M 164.477388 486.3672 
L 164.477388 65.5776 
" clip-path="url(#pf51e67aad3)" style="fill: none; stroke: #ffffff; stroke-width: 0.8; stroke-linecap: round"/>
     </g>
     <g id="text_2">
      <!-- 42未风化点2 -->
      <g style="fill: #262626" transform="translate(166.394263 539.3122) rotate(-90) scale(0.08 -0.08)">
       <defs>
        <path id="DengXian-34" d="M 2516 803 
L 2516 -250 
L 2125 -250 
L 2125 803 
L 141 803 
L 141 1116 
L 2088 4153 
L 2516 4153 
L 2516 1131 
L 3113 1131 
L 3113 803 
L 2516 803 
z
M 2125 3628 
L 538 1131 
L 2125 1131 
L 2125 3628 
z
" transform="scale(0.015625)"/>
       </defs>
       <use xlink:href="#DengXian-34"/>
       <use xlink:href="#DengXian-32" transform="translate(52.685547 0)"/>
       <use xlink:href="#DengXian-672a" transform="translate(105.371094 0)"/>
       <use xlink:href="#DengXian-98ce" transform="translate(205.371094 0)"/>
       <use xlink:href="#DengXian-5316" transform="translate(305.371094 0)"/>
       <use xlink:href="#DengXian-70b9" transform="translate(405.371094 0)"/>
       <use xlink:href="#DengXian-32" transform="translate(505.371094 0)"/>
      </g>
     </g>
    </g>
    <g id="xtick_3">
     <g id="line2d_3">
      <path d="M 181.96898 486.3672 
L 181.96898 65.5776 
" clip-path="url(#pf51e67aad3)" style="fill: none; stroke: #ffffff; stroke-width: 0.8; stroke-linecap: round"/>
     </g>
     <g id="text_3">
      <!-- 44未风化点 -->
      <g style="fill: #262626" transform="translate(183.885855 535.0972) rotate(-90) scale(0.08 -0.08)">
       <use xlink:href="#DengXian-34"/>
       <use xlink:href="#DengXian-34" transform="translate(52.685547 0)"/>
       <use xlink:href="#DengXian-672a" transform="translate(105.371094 0)"/>
       <use xlink:href="#DengXian-98ce" transform="translate(205.371094 0)"/>
       <use xlink:href="#DengXian-5316" transform="translate(305.371094 0)"/>
       <use xlink:href="#DengXian-70b9" transform="translate(405.371094 0)"/>
      </g>
     </g>
    </g>
    <g id="xtick_4">
     <g id="line2d_4">
      <path d="M 199.460571 486.3672 
L 199.460571 65.5776 
" clip-path="url(#pf51e67aad3)" style="fill: none; stroke: #ffffff; stroke-width: 0.8; stroke-linecap: round"/>
     </g>
     <g id="text_4">
      <!-- 45 -->
      <g style="fill: #262626" transform="translate(201.216821 503.0972) rotate(-90) scale(0.08 -0.08)">
       <defs>
        <path id="DengXian-35" d="M 3047 1169 
Q 3047 469 2676 78 
Q 2306 -313 1641 -313 
Q 575 -313 366 672 
L 763 734 
Q 859 350 1075 186 
Q 1291 22 1669 22 
Q 2134 22 2387 315 
Q 2641 609 2641 1153 
Q 2641 1619 2392 1895 
Q 2144 2172 1713 2172 
Q 1459 2172 1265 2095 
Q 1072 2019 875 1844 
L 503 1844 
L 641 4153 
L 2828 4153 
L 2828 3816 
L 997 3816 
L 894 2222 
Q 1113 2381 1323 2442 
Q 1534 2503 1775 2503 
Q 2359 2503 2703 2142 
Q 3047 1781 3047 1169 
z
" transform="scale(0.015625)"/>
       </defs>
       <use xlink:href="#DengXian-34"/>
       <use xlink:href="#DengXian-35" transform="translate(52.685547 0)"/>
      </g>
     </g>
    </g>
    <g id="xtick_5">
     <g id="line2d_5">
      <path d="M 216.952163 486.3672 
L 216.952163 65.5776 
" clip-path="url(#pf51e67aad3)" style="fill: none; stroke: #ffffff; stroke-width: 0.8; stroke-linecap: round"/>
     </g>
     <g id="text_5">
      <!-- 53未风化点 -->
      <g style="fill: #262626" transform="translate(218.869038 535.0972) rotate(-90) scale(0.08 -0.08)">
       <use xlink:href="#DengXian-35"/>
       <use xlink:href="#DengXian-33" transform="translate(52.685547 0)"/>
       <use xlink:href="#DengXian-672a" transform="translate(105.371094 0)"/>
       <use xlink:href="#DengXian-98ce" transform="translate(205.371094 0)"/>
       <use xlink:href="#DengXian-5316" transform="translate(305.371094 0)"/>
       <use xlink:href="#DengXian-70b9" transform="translate(405.371094 0)"/>
      </g>
     </g>
    </g>
    <g id="xtick_6">
     <g id="line2d_6">
      <path d="M 234.443755 486.3672 
L 234.443755 65.5776 
" clip-path="url(#pf51e67aad3)" style="fill: none; stroke: #ffffff; stroke-width: 0.8; stroke-linecap: round"/>
     </g>
     <g id="text_6">
      <!-- 36 -->
      <g style="fill: #262626" transform="translate(236.200005 503.0972) rotate(-90) scale(0.08 -0.08)">
       <defs>
        <path id="DengXian-36" d="M 3047 1191 
Q 3047 491 2697 89 
Q 2347 -313 1747 -313 
Q 1075 -313 720 234 
Q 366 781 366 1850 
Q 366 3031 739 3625 
Q 1113 4219 1841 4219 
Q 2284 4219 2553 4026 
Q 2822 3834 2944 3428 
L 2566 3344 
Q 2400 3888 1816 3888 
Q 1303 3888 1033 3402 
Q 763 2916 756 1969 
Q 913 2263 1183 2417 
Q 1453 2572 1800 2572 
Q 2372 2572 2709 2201 
Q 3047 1831 3047 1191 
z
M 2647 1166 
Q 2647 1675 2405 1964 
Q 2163 2253 1716 2253 
Q 1466 2253 1256 2137 
Q 1047 2022 926 1806 
Q 806 1591 806 1306 
Q 806 747 1064 383 
Q 1322 19 1738 19 
Q 2166 19 2406 325 
Q 2647 631 2647 1166 
z
" transform="scale(0.015625)"/>
       </defs>
       <use xlink:href="#DengXian-33"/>
       <use xlink:href="#DengXian-36" transform="translate(52.685547 0)"/>
      </g>
     </g>
    </g>
    <g id="xtick_7">
     <g id="line2d_7">
      <path d="M 251.935347 486.3672 
L 251.935347 65.5776 
" clip-path="url(#pf51e67aad3)" style="fill: none; stroke: #ffffff; stroke-width: 0.8; stroke-linecap: round"/>
     </g>
     <g id="text_7">
      <!-- 42未风化点1 -->
      <g style="fill: #262626" transform="translate(253.852222 539.3122) rotate(-90) scale(0.08 -0.08)">
       <defs>
        <path id="DengXian-31" d="M 484 -250 
L 484 84 
L 1609 84 
L 1609 3744 
L 603 3075 
L 603 3434 
L 1653 4153 
L 2000 4153 
L 2000 84 
L 2959 84 
L 2959 -250 
L 484 -250 
z
" transform="scale(0.015625)"/>
       </defs>
       <use xlink:href="#DengXian-34"/>
       <use xlink:href="#DengXian-32" transform="translate(52.685547 0)"/>
       <use xlink:href="#DengXian-672a" transform="translate(105.371094 0)"/>
       <use xlink:href="#DengXian-98ce" transform="translate(205.371094 0)"/>
       <use xlink:href="#DengXian-5316" transform="translate(305.371094 0)"/>
       <use xlink:href="#DengXian-70b9" transform="translate(405.371094 0)"/>
       <use xlink:href="#DengXian-31" transform="translate(505.371094 0)"/>
      </g>
     </g>
    </g>
    <g id="xtick_8">
     <g id="line2d_8">
      <path d="M 269.426939 486.3672 
L 269.426939 65.5776 
" clip-path="url(#pf51e67aad3)" style="fill: none; stroke: #ffffff; stroke-width: 0.8; stroke-linecap: round"/>
     </g>
     <g id="text_8">
      <!-- 47 -->
      <g style="fill: #262626" transform="translate(271.183189 503.0972) rotate(-90) scale(0.08 -0.08)">
       <defs>
        <path id="DengXian-37" d="M 3031 3809 
Q 2278 2631 1928 1634 
Q 1578 638 1578 -250 
L 1172 -250 
Q 1172 625 1545 1651 
Q 1919 2678 2638 3797 
L 331 3797 
L 331 4153 
L 3031 4153 
L 3031 3809 
z
" transform="scale(0.015625)"/>
       </defs>
       <use xlink:href="#DengXian-34"/>
       <use xlink:href="#DengXian-37" transform="translate(52.685547 0)"/>
      </g>
     </g>
    </g>
    <g id="xtick_9">
     <g id="line2d_9">
      <path d="M 286.918531 486.3672 
L 286.918531 65.5776 
" clip-path="url(#pf51e67aad3)" style="fill: none; stroke: #ffffff; stroke-width: 0.8; stroke-linecap: round"/>
     </g>
     <g id="text_9">
      <!-- 52 -->
      <g style="fill: #262626" transform="translate(288.674781 503.0972) rotate(-90) scale(0.08 -0.08)">
       <use xlink:href="#DengXian-35"/>
       <use xlink:href="#DengXian-32" transform="translate(52.685547 0)"/>
      </g>
     </g>
    </g>
    <g id="xtick_10">
     <g id="line2d_10">
      <path d="M 304.410122 486.3672 
L 304.410122 65.5776 
" clip-path="url(#pf51e67aad3)" style="fill: none; stroke: #ffffff; stroke-width: 0.8; stroke-linecap: round"/>
     </g>
     <g id="text_10">
      <!-- 29未风化点 -->
      <g style="fill: #262626" transform="translate(306.326997 535.0972) rotate(-90) scale(0.08 -0.08)">
       <defs>
        <path id="DengXian-39" d="M 3013 2047 
Q 3013 894 2638 290 
Q 2263 -313 1538 -313 
Q 622 -313 384 500 
L 759 581 
Q 844 294 1048 155 
Q 1253 16 1547 16 
Q 2588 16 2622 1934 
Q 2494 1666 2208 1494 
Q 1922 1322 1553 1322 
Q 991 1322 658 1717 
Q 325 2113 325 2775 
Q 325 3447 675 3833 
Q 1025 4219 1647 4219 
Q 2316 4219 2664 3678 
Q 3013 3138 3013 2047 
z
M 2572 2634 
Q 2572 3203 2314 3543 
Q 2056 3884 1638 3884 
Q 1203 3884 964 3590 
Q 725 3297 725 2778 
Q 725 2244 965 1945 
Q 1206 1647 1631 1647 
Q 2056 1647 2314 1923 
Q 2572 2200 2572 2634 
z
" transform="scale(0.015625)"/>
       </defs>
       <use xlink:href="#DengXian-32"/>
       <use xlink:href="#DengXian-39" transform="translate(52.685547 0)"/>
       <use xlink:href="#DengXian-672a" transform="translate(105.371094 0)"/>
       <use xlink:href="#DengXian-98ce" transform="translate(205.371094 0)"/>
       <use xlink:href="#DengXian-5316" transform="translate(305.371094 0)"/>
       <use xlink:href="#DengXian-70b9" transform="translate(405.371094 0)"/>
      </g>
     </g>
    </g>
    <g id="xtick_11">
     <g id="line2d_11">
      <path d="M 321.901714 486.3672 
L 321.901714 65.5776 
" clip-path="url(#pf51e67aad3)" style="fill: none; stroke: #ffffff; stroke-width: 0.8; stroke-linecap: round"/>
     </g>
     <g id="text_11">
      <!-- 48 -->
      <g style="fill: #262626" transform="translate(323.657964 503.0972) rotate(-90) scale(0.08 -0.08)">
       <defs>
        <path id="DengXian-38" d="M 3050 972 
Q 3050 359 2697 23 
Q 2344 -313 1688 -313 
Q 1038 -313 680 25 
Q 322 363 322 966 
Q 322 1391 553 1684 
Q 784 1978 1159 2053 
L 1159 2066 
Q 819 2156 619 2440 
Q 419 2725 419 3109 
Q 419 3606 759 3912 
Q 1100 4219 1675 4219 
Q 2266 4219 2606 3911 
Q 2947 3603 2947 3103 
Q 2947 2706 2742 2428 
Q 2538 2150 2200 2075 
L 2200 2063 
Q 2588 1988 2819 1702 
Q 3050 1416 3050 972 
z
M 2541 3088 
Q 2541 3494 2316 3700 
Q 2091 3906 1675 3906 
Q 1263 3906 1042 3695 
Q 822 3484 822 3088 
Q 822 2684 1048 2454 
Q 1275 2225 1681 2225 
Q 2100 2225 2320 2450 
Q 2541 2675 2541 3088 
z
M 2644 1009 
Q 2644 1428 2394 1667 
Q 2144 1906 1678 1906 
Q 1231 1906 978 1656 
Q 725 1406 725 997 
Q 725 516 973 259 
Q 1222 3 1694 3 
Q 2172 3 2408 258 
Q 2644 513 2644 1009 
z
" transform="scale(0.015625)"/>
       </defs>
       <use xlink:href="#DengXian-34"/>
       <use xlink:href="#DengXian-38" transform="translate(52.685547 0)"/>
      </g>
     </g>
    </g>
    <g id="xtick_12">
     <g id="line2d_12">
      <path d="M 339.393306 486.3672 
L 339.393306 65.5776 
" clip-path="url(#pf51e67aad3)" style="fill: none; stroke: #ffffff; stroke-width: 0.8; stroke-linecap: round"/>
     </g>
     <g id="text_12">
      <!-- 25未风化点 -->
      <g style="fill: #262626" transform="translate(341.310181 535.0972) rotate(-90) scale(0.08 -0.08)">
       <use xlink:href="#DengXian-32"/>
       <use xlink:href="#DengXian-35" transform="translate(52.685547 0)"/>
       <use xlink:href="#DengXian-672a" transform="translate(105.371094 0)"/>
       <use xlink:href="#DengXian-98ce" transform="translate(205.371094 0)"/>
       <use xlink:href="#DengXian-5316" transform="translate(305.371094 0)"/>
       <use xlink:href="#DengXian-70b9" transform="translate(405.371094 0)"/>
      </g>
     </g>
    </g>
    <g id="xtick_13">
     <g id="line2d_13">
      <path d="M 356.884898 486.3672 
L 356.884898 65.5776 
" clip-path="url(#pf51e67aad3)" style="fill: none; stroke: #ffffff; stroke-width: 0.8; stroke-linecap: round"/>
     </g>
     <g id="text_13">
      <!-- 38 -->
      <g style="fill: #262626" transform="translate(358.641148 503.0972) rotate(-90) scale(0.08 -0.08)">
       <use xlink:href="#DengXian-33"/>
       <use xlink:href="#DengXian-38" transform="translate(52.685547 0)"/>
      </g>
     </g>
    </g>
    <g id="xtick_14">
     <g id="line2d_14">
      <path d="M 374.37649 486.3672 
L 374.37649 65.5776 
" clip-path="url(#pf51e67aad3)" style="fill: none; stroke: #ffffff; stroke-width: 0.8; stroke-linecap: round"/>
     </g>
     <g id="text_14">
      <!-- 55 -->
      <g style="fill: #262626" transform="translate(376.13274 503.0972) rotate(-90) scale(0.08 -0.08)">
       <use xlink:href="#DengXian-35"/>
       <use xlink:href="#DengXian-35" transform="translate(52.685547 0)"/>
      </g>
     </g>
    </g>
    <g id="xtick_15">
     <g id="line2d_15">
      <path d="M 391.868082 486.3672 
L 391.868082 65.5776 
" clip-path="url(#pf51e67aad3)" style="fill: none; stroke: #ffffff; stroke-width: 0.8; stroke-linecap: round"/>
     </g>
     <g id="text_15">
      <!-- 34 -->
      <g style="fill: #262626" transform="translate(393.624332 503.0972) rotate(-90) scale(0.08 -0.08)">
       <use xlink:href="#DengXian-33"/>
       <use xlink:href="#DengXian-34" transform="translate(52.685547 0)"/>
      </g>
     </g>
    </g>
    <g id="xtick_16">
     <g id="line2d_16">
      <path d="M 409.359673 486.3672 
L 409.359673 65.5776 
" clip-path="url(#pf51e67aad3)" style="fill: none; stroke: #ffffff; stroke-width: 0.8; stroke-linecap: round"/>
     </g>
     <g id="text_16">
      <!-- 32 -->
      <g style="fill: #262626" transform="translate(411.115923 503.0972) rotate(-90) scale(0.08 -0.08)">
       <use xlink:href="#DengXian-33"/>
       <use xlink:href="#DengXian-32" transform="translate(52.685547 0)"/>
      </g>
     </g>
    </g>
    <g id="xtick_17">
     <g id="line2d_17">
      <path d="M 426.851265 486.3672 
L 426.851265 65.5776 
" clip-path="url(#pf51e67aad3)" style="fill: none; stroke: #ffffff; stroke-width: 0.8; stroke-linecap: round"/>
     </g>
     <g id="text_17">
      <!-- 46 -->
      <g style="fill: #262626" transform="translate(428.607515 503.0972) rotate(-90) scale(0.08 -0.08)">
       <use xlink:href="#DengXian-34"/>
       <use xlink:href="#DengXian-36" transform="translate(52.685547 0)"/>
      </g>
     </g>
    </g>
    <g id="xtick_18">
     <g id="line2d_18">
      <path d="M 444.342857 486.3672 
L 444.342857 65.5776 
" clip-path="url(#pf51e67aad3)" style="fill: none; stroke: #ffffff; stroke-width: 0.8; stroke-linecap: round"/>
     </g>
     <g id="text_18">
      <!-- 24 -->
      <g style="fill: #262626" transform="translate(446.099107 503.0972) rotate(-90) scale(0.08 -0.08)">
       <use xlink:href="#DengXian-32"/>
       <use xlink:href="#DengXian-34" transform="translate(52.685547 0)"/>
      </g>
     </g>
    </g>
    <g id="xtick_19">
     <g id="line2d_19">
      <path d="M 461.834449 486.3672 
L 461.834449 65.5776 
" clip-path="url(#pf51e67aad3)" style="fill: none; stroke: #ffffff; stroke-width: 0.8; stroke-linecap: round"/>
     </g>
     <g id="text_19">
      <!-- 33 -->
      <g style="fill: #262626" transform="translate(463.590699 503.0972) rotate(-90) scale(0.08 -0.08)">
       <use xlink:href="#DengXian-33"/>
       <use xlink:href="#DengXian-33" transform="translate(52.685547 0)"/>
      </g>
     </g>
    </g>
    <g id="xtick_20">
     <g id="line2d_20">
      <path d="M 479.326041 486.3672 
L 479.326041 65.5776 
" clip-path="url(#pf51e67aad3)" style="fill: none; stroke: #ffffff; stroke-width: 0.8; stroke-linecap: round"/>
     </g>
     <g id="text_20">
      <!-- 57 -->
      <g style="fill: #262626" transform="translate(481.082291 503.0972) rotate(-90) scale(0.08 -0.08)">
       <use xlink:href="#DengXian-35"/>
       <use xlink:href="#DengXian-37" transform="translate(52.685547 0)"/>
      </g>
     </g>
    </g>
    <g id="xtick_21">
     <g id="line2d_21">
      <path d="M 496.817633 486.3672 
L 496.817633 65.5776 
" clip-path="url(#pf51e67aad3)" style="fill: none; stroke: #ffffff; stroke-width: 0.8; stroke-linecap: round"/>
     </g>
     <g id="text_21">
      <!-- 30部位1 -->
      <g style="fill: #262626" transform="translate(498.771383 523.3122) rotate(-90) scale(0.08 -0.08)">
       <defs>
        <path id="DengXian-30" d="M 3106 1953 
Q 3106 850 2750 268 
Q 2394 -313 1697 -313 
Q 1006 -313 654 256 
Q 303 825 303 1953 
Q 303 3100 645 3659 
Q 988 4219 1719 4219 
Q 2422 4219 2764 3656 
Q 3106 3094 3106 1953 
z
M 2706 1953 
Q 2706 2963 2473 3425 
Q 2241 3888 1716 3888 
Q 1172 3888 936 3423 
Q 700 2959 700 1953 
Q 700 969 944 495 
Q 1188 22 1703 22 
Q 2216 22 2461 508 
Q 2706 994 2706 1953 
z
" transform="scale(0.015625)"/>
        <path id="DengXian-90e8" d="M 788 2438 
L 2169 2438 
Q 2472 2981 2669 3653 
L 3091 3463 
Q 3144 3438 3138 3406 
Q 3138 3366 3072 3341 
Q 2963 3291 2881 3128 
Q 2688 2725 2534 2438 
L 3144 2438 
Q 3391 2444 3669 2478 
L 3669 2081 
Q 3413 2113 3144 2119 
L 788 2119 
Q 556 2113 269 2081 
L 269 2478 
Q 550 2444 788 2438 
z
M 1088 4084 
L 2106 4084 
Q 1856 4416 1472 4744 
L 1766 5006 
Q 2138 4653 2419 4359 
L 2131 4084 
L 2950 4084 
Q 3206 4091 3481 4122 
L 3481 3725 
Q 3219 3756 2950 3763 
L 1088 3763 
Q 850 3756 569 3725 
L 569 4122 
Q 872 4091 1088 4084 
z
M 1275 -838 
L 838 -838 
Q 872 -588 878 -331 
L 878 1044 
Q 872 1269 838 1563 
Q 1119 1522 1350 1522 
L 2675 1522 
Q 2931 1528 3206 1563 
Q 3175 1300 3169 1038 
L 3169 -159 
Q 3175 -391 3206 -678 
L 2772 -678 
Q 2803 -453 2809 -288 
L 1234 -288 
L 1234 -331 
Q 1241 -588 1275 -838 
z
M 1234 1203 
L 1234 19 
L 2809 19 
L 2809 1203 
L 1234 1203 
z
M 1203 3597 
Q 1497 3169 1741 2784 
L 1403 2547 
Q 1166 2994 878 3384 
L 1203 3597 
z
M 3903 4453 
Q 4250 4416 4469 4416 
L 5350 4416 
Q 5613 4416 5900 4453 
Q 5453 3263 5069 2463 
Q 5697 2094 5941 1484 
Q 6050 1184 6050 906 
Q 6050 597 5913 325 
Q 5716 -122 4916 -172 
Q 4825 103 4628 319 
Q 4878 247 5075 247 
Q 5491 247 5631 575 
Q 5697 722 5697 888 
Q 5697 1172 5509 1522 
Q 5222 2028 4647 2344 
Q 5069 3188 5356 4097 
L 4300 4097 
L 4300 -475 
Q 4306 -756 4341 -1025 
L 3903 -1025 
Q 3938 -769 3944 -481 
L 3944 3909 
Q 3938 4159 3903 4453 
z
" transform="scale(0.015625)"/>
        <path id="DengXian-4f4d" d="M 4500 -122 
L 5819 -122 
Q 5972 -128 6222 -84 
L 6222 -466 
Q 5972 -428 5813 -428 
L 2322 -428 
Q 2138 -428 1894 -466 
L 1894 -84 
Q 2113 -128 2309 -122 
L 4122 -122 
Q 4622 1509 4819 2931 
L 5356 2759 
Q 5428 2741 5422 2713 
Q 5422 2681 5350 2638 
Q 5228 2572 5184 2356 
Q 4819 856 4500 -122 
z
M 5978 3669 
L 5978 3272 
Q 5734 3316 5550 3309 
L 2516 3309 
Q 2328 3316 2069 3272 
L 2069 3669 
Q 2303 3628 2491 3628 
L 5544 3628 
Q 5741 3622 5978 3669 
z
M 3009 2688 
Q 3450 1491 3781 409 
L 3341 263 
Q 3009 1594 2578 2522 
L 3009 2688 
z
M 3028 4769 
L 3341 5063 
Q 3916 4506 4378 4000 
L 4025 3675 
Q 3616 4288 3028 4769 
z
M 1684 4966 
L 2156 4756 
Q 2228 4722 2228 4703 
Q 2228 4678 2156 4647 
Q 2059 4581 1997 4453 
Q 1906 4238 1650 3675 
L 1650 -544 
Q 1644 -716 1691 -1031 
L 1253 -1031 
Q 1300 -738 1294 -556 
L 1294 2950 
Q 1019 2438 684 1925 
Q 481 2075 184 2181 
Q 1131 3097 1684 4966 
z
" transform="scale(0.015625)"/>
       </defs>
       <use xlink:href="#DengXian-33"/>
       <use xlink:href="#DengXian-30" transform="translate(52.685547 0)"/>
       <use xlink:href="#DengXian-90e8" transform="translate(105.371094 0)"/>
       <use xlink:href="#DengXian-4f4d" transform="translate(205.371094 0)"/>
       <use xlink:href="#DengXian-31" transform="translate(305.371094 0)"/>
      </g>
     </g>
    </g>
    <g id="xtick_22">
     <g id="line2d_22">
      <path d="M 514.309224 486.3672 
L 514.309224 65.5776 
" clip-path="url(#pf51e67aad3)" style="fill: none; stroke: #ffffff; stroke-width: 0.8; stroke-linecap: round"/>
     </g>
     <g id="text_22">
      <!-- 43部位1 -->
      <g style="fill: #262626" transform="translate(516.262974 523.3122) rotate(-90) scale(0.08 -0.08)">
       <use xlink:href="#DengXian-34"/>
       <use xlink:href="#DengXian-33" transform="translate(52.685547 0)"/>
       <use xlink:href="#DengXian-90e8" transform="translate(105.371094 0)"/>
       <use xlink:href="#DengXian-4f4d" transform="translate(205.371094 0)"/>
       <use xlink:href="#DengXian-31" transform="translate(305.371094 0)"/>
      </g>
     </g>
    </g>
    <g id="xtick_23">
     <g id="line2d_23">
      <path d="M 531.800816 486.3672 
L 531.800816 65.5776 
" clip-path="url(#pf51e67aad3)" style="fill: none; stroke: #ffffff; stroke-width: 0.8; stroke-linecap: round"/>
     </g>
     <g id="text_23">
      <!-- 51部位2 -->
      <g style="fill: #262626" transform="translate(533.754566 523.3122) rotate(-90) scale(0.08 -0.08)">
       <use xlink:href="#DengXian-35"/>
       <use xlink:href="#DengXian-31" transform="translate(52.685547 0)"/>
       <use xlink:href="#DengXian-90e8" transform="translate(105.371094 0)"/>
       <use xlink:href="#DengXian-4f4d" transform="translate(205.371094 0)"/>
       <use xlink:href="#DengXian-32" transform="translate(305.371094 0)"/>
      </g>
     </g>
    </g>
    <g id="xtick_24">
     <g id="line2d_24">
      <path d="M 549.292408 486.3672 
L 549.292408 65.5776 
" clip-path="url(#pf51e67aad3)" style="fill: none; stroke: #ffffff; stroke-width: 0.8; stroke-linecap: round"/>
     </g>
     <g id="text_24">
      <!-- 54严重风化点 -->
      <g style="fill: #262626" transform="translate(551.121158 543.0972) rotate(-90) scale(0.08 -0.08)">
       <defs>
        <path id="DengXian-4e25" d="M 244 -659 
Q 1184 -22 1184 1625 
Q 1184 1847 1172 2041 
Q 1153 2406 1125 2663 
Q 1306 2625 1663 2625 
L 2700 2625 
L 2700 4213 
L 1447 4213 
Q 1119 4213 953 4172 
L 953 4569 
Q 1100 4531 1447 4531 
L 5288 4531 
Q 5631 4531 5791 4569 
L 5791 4172 
Q 5594 4213 5288 4213 
L 4197 4213 
L 4197 2625 
L 5556 2625 
Q 5875 2625 6016 2663 
L 6016 2266 
Q 5850 2303 5569 2303 
L 1575 2303 
Q 1550 891 1394 319 
Q 1241 -313 756 -916 
Q 569 -794 244 -659 
z
M 3072 4213 
L 3072 2625 
L 3828 2625 
L 3828 4213 
L 3072 4213 
z
M 1509 3884 
Q 2081 3359 2316 3084 
L 2009 2797 
Q 1697 3231 1203 3603 
L 1509 3884 
z
M 5275 3944 
L 5650 3647 
Q 5728 3591 5722 3572 
Q 5722 3553 5619 3547 
Q 5497 3525 5381 3425 
Q 5153 3175 4775 2822 
Q 4616 2969 4459 3091 
Q 4966 3513 5275 3944 
z
" transform="scale(0.015625)"/>
        <path id="DengXian-91cd" d="M 909 4481 
Q 1359 4444 1856 4444 
Q 2516 4444 3188 4513 
Q 4325 4641 4934 4922 
L 5228 4538 
Q 5284 4472 5284 4441 
Q 5284 4431 5281 4428 
Q 5272 4413 5238 4413 
Q 5216 4413 5166 4422 
Q 5059 4444 4975 4444 
Q 4906 4444 4831 4428 
Q 4263 4334 3413 4206 
L 3413 3634 
L 5606 3634 
Q 5797 3628 5984 3675 
L 5984 3291 
Q 5791 3334 5613 3328 
L 3413 3328 
L 3413 2925 
L 4769 2925 
Q 4947 2919 5191 2963 
Q 5147 2734 5153 2553 
L 5153 1306 
Q 5147 1106 5191 903 
Q 4959 947 4775 941 
L 3413 941 
L 3413 488 
L 4959 488 
Q 5147 488 5356 525 
L 5356 141 
Q 5119 184 4953 178 
L 3413 178 
L 3413 -384 
L 5613 -384 
Q 5778 -391 6009 -347 
L 6009 -728 
Q 5791 -684 5606 -691 
L 813 -691 
Q 628 -684 409 -728 
L 409 -347 
Q 594 -391 800 -384 
L 3053 -384 
L 3053 178 
L 1544 178 
Q 1381 184 1147 141 
L 1147 525 
Q 1350 481 1522 488 
L 3053 488 
L 3053 941 
L 1709 941 
Q 1528 947 1275 903 
Q 1319 1113 1313 1300 
L 1313 2559 
Q 1319 2725 1275 2963 
Q 1509 2919 1703 2925 
L 3053 2925 
L 3053 3328 
L 781 3328 
Q 609 3334 372 3291 
L 372 3675 
Q 569 3628 769 3634 
L 3053 3634 
L 3053 4159 
Q 2419 4091 1153 4044 
Q 1031 4347 909 4481 
z
M 3053 1234 
L 3053 1784 
L 1656 1784 
L 1656 1234 
L 3053 1234 
z
M 1656 2631 
L 1656 2081 
L 3053 2081 
L 3053 2631 
L 1656 2631 
z
M 3413 2631 
L 3413 2081 
L 4806 2081 
L 4806 2631 
L 3413 2631 
z
M 3413 1784 
L 3413 1234 
L 4806 1234 
L 4806 1784 
L 3413 1784 
z
" transform="scale(0.015625)"/>
       </defs>
       <use xlink:href="#DengXian-35"/>
       <use xlink:href="#DengXian-34" transform="translate(52.685547 0)"/>
       <use xlink:href="#DengXian-4e25" transform="translate(105.371094 0)"/>
       <use xlink:href="#DengXian-91cd" transform="translate(205.371094 0)"/>
       <use xlink:href="#DengXian-98ce" transform="translate(305.371094 0)"/>
       <use xlink:href="#DengXian-5316" transform="translate(405.371094 0)"/>
       <use xlink:href="#DengXian-70b9" transform="translate(505.371094 0)"/>
      </g>
     </g>
    </g>
    <g id="xtick_25">
     <g id="line2d_25">
      <path d="M 566.784 486.3672 
L 566.784 65.5776 
" clip-path="url(#pf51e67aad3)" style="fill: none; stroke: #ffffff; stroke-width: 0.8; stroke-linecap: round"/>
     </g>
     <g id="text_25">
      <!-- 58 -->
      <g style="fill: #262626" transform="translate(568.54025 503.0972) rotate(-90) scale(0.08 -0.08)">
       <use xlink:href="#DengXian-35"/>
       <use xlink:href="#DengXian-38" transform="translate(52.685547 0)"/>
      </g>
     </g>
    </g>
    <g id="xtick_26">
     <g id="line2d_26">
      <path d="M 584.275592 486.3672 
L 584.275592 65.5776 
" clip-path="url(#pf51e67aad3)" style="fill: none; stroke: #ffffff; stroke-width: 0.8; stroke-linecap: round"/>
     </g>
     <g id="text_26">
      <!-- 26严重风化点 -->
      <g style="fill: #262626" transform="translate(586.104342 543.0972) rotate(-90) scale(0.08 -0.08)">
       <use xlink:href="#DengXian-32"/>
       <use xlink:href="#DengXian-36" transform="translate(52.685547 0)"/>
       <use xlink:href="#DengXian-4e25" transform="translate(105.371094 0)"/>
       <use xlink:href="#DengXian-91cd" transform="translate(205.371094 0)"/>
       <use xlink:href="#DengXian-98ce" transform="translate(305.371094 0)"/>
       <use xlink:href="#DengXian-5316" transform="translate(405.371094 0)"/>
       <use xlink:href="#DengXian-70b9" transform="translate(505.371094 0)"/>
      </g>
     </g>
    </g>
    <g id="xtick_27">
     <g id="line2d_27">
      <path d="M 601.767184 486.3672 
L 601.767184 65.5776 
" clip-path="url(#pf51e67aad3)" style="fill: none; stroke: #ffffff; stroke-width: 0.8; stroke-linecap: round"/>
     </g>
     <g id="text_27">
      <!-- 41 -->
      <g style="fill: #262626" transform="translate(603.523434 503.0972) rotate(-90) scale(0.08 -0.08)">
       <use xlink:href="#DengXian-34"/>
       <use xlink:href="#DengXian-31" transform="translate(52.685547 0)"/>
      </g>
     </g>
    </g>
    <g id="xtick_28">
     <g id="line2d_28">
      <path d="M 619.258776 486.3672 
L 619.258776 65.5776 
" clip-path="url(#pf51e67aad3)" style="fill: none; stroke: #ffffff; stroke-width: 0.8; stroke-linecap: round"/>
     </g>
     <g id="text_28">
      <!-- 51部位1 -->
      <g style="fill: #262626" transform="translate(621.212526 523.3122) rotate(-90) scale(0.08 -0.08)">
       <use xlink:href="#DengXian-35"/>
       <use xlink:href="#DengXian-31" transform="translate(52.685547 0)"/>
       <use xlink:href="#DengXian-90e8" transform="translate(105.371094 0)"/>
       <use xlink:href="#DengXian-4f4d" transform="translate(205.371094 0)"/>
       <use xlink:href="#DengXian-31" transform="translate(305.371094 0)"/>
      </g>
     </g>
    </g>
    <g id="xtick_29">
     <g id="line2d_29">
      <path d="M 636.750367 486.3672 
L 636.750367 65.5776 
" clip-path="url(#pf51e67aad3)" style="fill: none; stroke: #ffffff; stroke-width: 0.8; stroke-linecap: round"/>
     </g>
     <g id="text_29">
      <!-- 43部位2 -->
      <g style="fill: #262626" transform="translate(638.704117 523.3122) rotate(-90) scale(0.08 -0.08)">
       <use xlink:href="#DengXian-34"/>
       <use xlink:href="#DengXian-33" transform="translate(52.685547 0)"/>
       <use xlink:href="#DengXian-90e8" transform="translate(105.371094 0)"/>
       <use xlink:href="#DengXian-4f4d" transform="translate(205.371094 0)"/>
       <use xlink:href="#DengXian-32" transform="translate(305.371094 0)"/>
      </g>
     </g>
    </g>
    <g id="xtick_30">
     <g id="line2d_30">
      <path d="M 654.241959 486.3672 
L 654.241959 65.5776 
" clip-path="url(#pf51e67aad3)" style="fill: none; stroke: #ffffff; stroke-width: 0.8; stroke-linecap: round"/>
     </g>
     <g id="text_30">
      <!-- 49 -->
      <g style="fill: #262626" transform="translate(655.998209 503.0972) rotate(-90) scale(0.08 -0.08)">
       <use xlink:href="#DengXian-34"/>
       <use xlink:href="#DengXian-39" transform="translate(52.685547 0)"/>
      </g>
     </g>
    </g>
    <g id="xtick_31">
     <g id="line2d_31">
      <path d="M 671.733551 486.3672 
L 671.733551 65.5776 
" clip-path="url(#pf51e67aad3)" style="fill: none; stroke: #ffffff; stroke-width: 0.8; stroke-linecap: round"/>
     </g>
     <g id="text_31">
      <!-- 11 -->
      <g style="fill: #262626" transform="translate(673.489801 503.0972) rotate(-90) scale(0.08 -0.08)">
       <use xlink:href="#DengXian-31"/>
       <use xlink:href="#DengXian-31" transform="translate(52.685547 0)"/>
      </g>
     </g>
    </g>
    <g id="xtick_32">
     <g id="line2d_32">
      <path d="M 689.225143 486.3672 
L 689.225143 65.5776 
" clip-path="url(#pf51e67aad3)" style="fill: none; stroke: #ffffff; stroke-width: 0.8; stroke-linecap: round"/>
     </g>
     <g id="text_32">
      <!-- 19 -->
      <g style="fill: #262626" transform="translate(690.981393 503.0972) rotate(-90) scale(0.08 -0.08)">
       <use xlink:href="#DengXian-31"/>
       <use xlink:href="#DengXian-39" transform="translate(52.685547 0)"/>
      </g>
     </g>
    </g>
    <g id="xtick_33">
     <g id="line2d_33">
      <path d="M 706.716735 486.3672 
L 706.716735 65.5776 
" clip-path="url(#pf51e67aad3)" style="fill: none; stroke: #ffffff; stroke-width: 0.8; stroke-linecap: round"/>
     </g>
     <g id="text_33">
      <!-- 20 -->
      <g style="fill: #262626" transform="translate(708.472985 503.0972) rotate(-90) scale(0.08 -0.08)">
       <use xlink:href="#DengXian-32"/>
       <use xlink:href="#DengXian-30" transform="translate(52.685547 0)"/>
      </g>
     </g>
    </g>
    <g id="xtick_34">
     <g id="line2d_34">
      <path d="M 724.208327 486.3672 
L 724.208327 65.5776 
" clip-path="url(#pf51e67aad3)" style="fill: none; stroke: #ffffff; stroke-width: 0.8; stroke-linecap: round"/>
     </g>
     <g id="text_34">
      <!-- 50未风化点 -->
      <g style="fill: #262626" transform="translate(726.125202 535.0972) rotate(-90) scale(0.08 -0.08)">
       <use xlink:href="#DengXian-35"/>
       <use xlink:href="#DengXian-30" transform="translate(52.685547 0)"/>
       <use xlink:href="#DengXian-672a" transform="translate(105.371094 0)"/>
       <use xlink:href="#DengXian-98ce" transform="translate(205.371094 0)"/>
       <use xlink:href="#DengXian-5316" transform="translate(305.371094 0)"/>
       <use xlink:href="#DengXian-70b9" transform="translate(405.371094 0)"/>
      </g>
     </g>
    </g>
    <g id="xtick_35">
     <g id="line2d_35">
      <path d="M 741.699918 486.3672 
L 741.699918 65.5776 
" clip-path="url(#pf51e67aad3)" style="fill: none; stroke: #ffffff; stroke-width: 0.8; stroke-linecap: round"/>
     </g>
     <g id="text_35">
      <!-- 08严重风化点 -->
      <g style="fill: #262626" transform="translate(743.528668 543.0972) rotate(-90) scale(0.08 -0.08)">
       <use xlink:href="#DengXian-30"/>
       <use xlink:href="#DengXian-38" transform="translate(52.685547 0)"/>
       <use xlink:href="#DengXian-4e25" transform="translate(105.371094 0)"/>
       <use xlink:href="#DengXian-91cd" transform="translate(205.371094 0)"/>
       <use xlink:href="#DengXian-98ce" transform="translate(305.371094 0)"/>
       <use xlink:href="#DengXian-5316" transform="translate(405.371094 0)"/>
       <use xlink:href="#DengXian-70b9" transform="translate(505.371094 0)"/>
      </g>
     </g>
    </g>
    <g id="xtick_36">
     <g id="line2d_36">
      <path d="M 759.19151 486.3672 
L 759.19151 65.5776 
" clip-path="url(#pf51e67aad3)" style="fill: none; stroke: #ffffff; stroke-width: 0.8; stroke-linecap: round"/>
     </g>
     <g id="text_36">
      <!-- 50 -->
      <g style="fill: #262626" transform="translate(760.94776 503.0972) rotate(-90) scale(0.08 -0.08)">
       <use xlink:href="#DengXian-35"/>
       <use xlink:href="#DengXian-30" transform="translate(52.685547 0)"/>
      </g>
     </g>
    </g>
    <g id="xtick_37">
     <g id="line2d_37">
      <path d="M 776.683102 486.3672 
L 776.683102 65.5776 
" clip-path="url(#pf51e67aad3)" style="fill: none; stroke: #ffffff; stroke-width: 0.8; stroke-linecap: round"/>
     </g>
     <g id="text_37">
      <!-- 35 -->
      <g style="fill: #262626" transform="translate(778.439352 503.0972) rotate(-90) scale(0.08 -0.08)">
       <use xlink:href="#DengXian-33"/>
       <use xlink:href="#DengXian-35" transform="translate(52.685547 0)"/>
      </g>
     </g>
    </g>
    <g id="xtick_38">
     <g id="line2d_38">
      <path d="M 794.174694 486.3672 
L 794.174694 65.5776 
" clip-path="url(#pf51e67aad3)" style="fill: none; stroke: #ffffff; stroke-width: 0.8; stroke-linecap: round"/>
     </g>
     <g id="text_38">
      <!-- 28未风化点 -->
      <g style="fill: #262626" transform="translate(796.091569 535.0972) rotate(-90) scale(0.08 -0.08)">
       <use xlink:href="#DengXian-32"/>
       <use xlink:href="#DengXian-38" transform="translate(52.685547 0)"/>
       <use xlink:href="#DengXian-672a" transform="translate(105.371094 0)"/>
       <use xlink:href="#DengXian-98ce" transform="translate(205.371094 0)"/>
       <use xlink:href="#DengXian-5316" transform="translate(305.371094 0)"/>
       <use xlink:href="#DengXian-70b9" transform="translate(405.371094 0)"/>
      </g>
     </g>
    </g>
    <g id="xtick_39">
     <g id="line2d_39">
      <path d="M 811.666286 486.3672 
L 811.666286 65.5776 
" clip-path="url(#pf51e67aad3)" style="fill: none; stroke: #ffffff; stroke-width: 0.8; stroke-linecap: round"/>
     </g>
     <g id="text_39">
      <!-- 31 -->
      <g style="fill: #262626" transform="translate(813.422536 503.0972) rotate(-90) scale(0.08 -0.08)">
       <use xlink:href="#DengXian-33"/>
       <use xlink:href="#DengXian-31" transform="translate(52.685547 0)"/>
      </g>
     </g>
    </g>
    <g id="xtick_40">
     <g id="line2d_40">
      <path d="M 829.157878 486.3672 
L 829.157878 65.5776 
" clip-path="url(#pf51e67aad3)" style="fill: none; stroke: #ffffff; stroke-width: 0.8; stroke-linecap: round"/>
     </g>
     <g id="text_40">
      <!-- 30部位2 -->
      <g style="fill: #262626" transform="translate(831.111628 523.3122) rotate(-90) scale(0.08 -0.08)">
       <use xlink:href="#DengXian-33"/>
       <use xlink:href="#DengXian-30" transform="translate(52.685547 0)"/>
       <use xlink:href="#DengXian-90e8" transform="translate(105.371094 0)"/>
       <use xlink:href="#DengXian-4f4d" transform="translate(205.371094 0)"/>
       <use xlink:href="#DengXian-32" transform="translate(305.371094 0)"/>
      </g>
     </g>
    </g>
    <g id="xtick_41">
     <g id="line2d_41">
      <path d="M 846.649469 486.3672 
L 846.649469 65.5776 
" clip-path="url(#pf51e67aad3)" style="fill: none; stroke: #ffffff; stroke-width: 0.8; stroke-linecap: round"/>
     </g>
     <g id="text_41">
      <!-- 37 -->
      <g style="fill: #262626" transform="translate(848.405719 503.0972) rotate(-90) scale(0.08 -0.08)">
       <use xlink:href="#DengXian-33"/>
       <use xlink:href="#DengXian-37" transform="translate(52.685547 0)"/>
      </g>
     </g>
    </g>
    <g id="xtick_42">
     <g id="line2d_42">
      <path d="M 864.141061 486.3672 
L 864.141061 65.5776 
" clip-path="url(#pf51e67aad3)" style="fill: none; stroke: #ffffff; stroke-width: 0.8; stroke-linecap: round"/>
     </g>
     <g id="text_42">
      <!-- 49未风化点 -->
      <g style="fill: #262626" transform="translate(866.057936 535.0972) rotate(-90) scale(0.08 -0.08)">
       <use xlink:href="#DengXian-34"/>
       <use xlink:href="#DengXian-39" transform="translate(52.685547 0)"/>
       <use xlink:href="#DengXian-672a" transform="translate(105.371094 0)"/>
       <use xlink:href="#DengXian-98ce" transform="translate(205.371094 0)"/>
       <use xlink:href="#DengXian-5316" transform="translate(305.371094 0)"/>
       <use xlink:href="#DengXian-70b9" transform="translate(405.371094 0)"/>
      </g>
     </g>
    </g>
    <g id="xtick_43">
     <g id="line2d_43">
      <path d="M 881.632653 486.3672 
L 881.632653 65.5776 
" clip-path="url(#pf51e67aad3)" style="fill: none; stroke: #ffffff; stroke-width: 0.8; stroke-linecap: round"/>
     </g>
     <g id="text_43">
      <!-- 54 -->
      <g style="fill: #262626" transform="translate(883.388903 503.0972) rotate(-90) scale(0.08 -0.08)">
       <use xlink:href="#DengXian-35"/>
       <use xlink:href="#DengXian-34" transform="translate(52.685547 0)"/>
      </g>
     </g>
    </g>
    <g id="xtick_44">
     <g id="line2d_44">
      <path d="M 899.124245 486.3672 
L 899.124245 65.5776 
" clip-path="url(#pf51e67aad3)" style="fill: none; stroke: #ffffff; stroke-width: 0.8; stroke-linecap: round"/>
     </g>
     <g id="text_44">
      <!-- 2 -->
      <g style="fill: #262626" transform="translate(900.880495 498.8822) rotate(-90) scale(0.08 -0.08)">
       <use xlink:href="#DengXian-32"/>
      </g>
     </g>
    </g>
    <g id="xtick_45">
     <g id="line2d_45">
      <path d="M 916.615837 486.3672 
L 916.615837 65.5776 
" clip-path="url(#pf51e67aad3)" style="fill: none; stroke: #ffffff; stroke-width: 0.8; stroke-linecap: round"/>
     </g>
     <g id="text_45">
      <!-- 8 -->
      <g style="fill: #262626" transform="translate(918.372087 498.8822) rotate(-90) scale(0.08 -0.08)">
       <use xlink:href="#DengXian-38"/>
      </g>
     </g>
    </g>
    <g id="xtick_46">
     <g id="line2d_46">
      <path d="M 934.107429 486.3672 
L 934.107429 65.5776 
" clip-path="url(#pf51e67aad3)" style="fill: none; stroke: #ffffff; stroke-width: 0.8; stroke-linecap: round"/>
     </g>
     <g id="text_46">
      <!-- 26 -->
      <g style="fill: #262626" transform="translate(935.863679 503.0972) rotate(-90) scale(0.08 -0.08)">
       <use xlink:href="#DengXian-32"/>
       <use xlink:href="#DengXian-36" transform="translate(52.685547 0)"/>
      </g>
     </g>
    </g>
    <g id="xtick_47">
     <g id="line2d_47">
      <path d="M 951.59902 486.3672 
L 951.59902 65.5776 
" clip-path="url(#pf51e67aad3)" style="fill: none; stroke: #ffffff; stroke-width: 0.8; stroke-linecap: round"/>
     </g>
     <g id="text_47">
      <!-- 39 -->
      <g style="fill: #262626" transform="translate(953.35527 503.0972) rotate(-90) scale(0.08 -0.08)">
       <use xlink:href="#DengXian-33"/>
       <use xlink:href="#DengXian-39" transform="translate(52.685547 0)"/>
      </g>
     </g>
    </g>
    <g id="xtick_48">
     <g id="line2d_48">
      <path d="M 969.090612 486.3672 
L 969.090612 65.5776 
" clip-path="url(#pf51e67aad3)" style="fill: none; stroke: #ffffff; stroke-width: 0.8; stroke-linecap: round"/>
     </g>
     <g id="text_48">
      <!-- 40 -->
      <g style="fill: #262626" transform="translate(970.846862 503.0972) rotate(-90) scale(0.08 -0.08)">
       <use xlink:href="#DengXian-34"/>
       <use xlink:href="#DengXian-30" transform="translate(52.685547 0)"/>
      </g>
     </g>
    </g>
    <g id="xtick_49">
     <g id="line2d_49">
      <path d="M 986.582204 486.3672 
L 986.582204 65.5776 
" clip-path="url(#pf51e67aad3)" style="fill: none; stroke: #ffffff; stroke-width: 0.8; stroke-linecap: round"/>
     </g>
     <g id="text_49">
      <!-- 56 -->
      <g style="fill: #262626" transform="translate(988.338454 503.0972) rotate(-90) scale(0.08 -0.08)">
       <use xlink:href="#DengXian-35"/>
       <use xlink:href="#DengXian-36" transform="translate(52.685547 0)"/>
      </g>
     </g>
    </g>
   </g>
   <g id="matplotlib.axis_2">
    <g id="ytick_1">
     <g id="line2d_50">
      <path d="M 138.24 486.3672 
L 995.328 486.3672 
" clip-path="url(#pf51e67aad3)" style="fill: none; stroke: #ffffff; stroke-width: 0.8; stroke-linecap: round"/>
     </g>
     <g id="text_50">
      <!-- 0 -->
      <g style="fill: #262626" transform="translate(121.5943 491.681025) scale(0.1584 -0.1584)">
       <use xlink:href="#DengXian-30"/>
      </g>
     </g>
    </g>
    <g id="ytick_2">
     <g id="line2d_51">
      <path d="M 138.24 393.110217 
L 995.328 393.110217 
" clip-path="url(#pf51e67aad3)" style="fill: none; stroke: #ffffff; stroke-width: 0.8; stroke-linecap: round"/>
     </g>
     <g id="text_51">
      <!-- 5 -->
      <g style="fill: #262626" transform="translate(121.5943 398.424042) scale(0.1584 -0.1584)">
       <use xlink:href="#DengXian-35"/>
      </g>
     </g>
    </g>
    <g id="ytick_3">
     <g id="line2d_52">
      <path d="M 138.24 299.853235 
L 995.328 299.853235 
" clip-path="url(#pf51e67aad3)" style="fill: none; stroke: #ffffff; stroke-width: 0.8; stroke-linecap: round"/>
     </g>
     <g id="text_52">
      <!-- 10 -->
      <g style="fill: #262626" transform="translate(113.2486 305.16706) scale(0.1584 -0.1584)">
       <use xlink:href="#DengXian-31"/>
       <use xlink:href="#DengXian-30" transform="translate(52.685547 0)"/>
      </g>
     </g>
    </g>
    <g id="ytick_4">
     <g id="line2d_53">
      <path d="M 138.24 206.596252 
L 995.328 206.596252 
" clip-path="url(#pf51e67aad3)" style="fill: none; stroke: #ffffff; stroke-width: 0.8; stroke-linecap: round"/>
     </g>
     <g id="text_53">
      <!-- 15 -->
      <g style="fill: #262626" transform="translate(113.2486 211.910077) scale(0.1584 -0.1584)">
       <use xlink:href="#DengXian-31"/>
       <use xlink:href="#DengXian-35" transform="translate(52.685547 0)"/>
      </g>
     </g>
    </g>
    <g id="ytick_5">
     <g id="line2d_54">
      <path d="M 138.24 113.339269 
L 995.328 113.339269 
" clip-path="url(#pf51e67aad3)" style="fill: none; stroke: #ffffff; stroke-width: 0.8; stroke-linecap: round"/>
     </g>
     <g id="text_54">
      <!-- 20 -->
      <g style="fill: #262626" transform="translate(113.2486 118.653094) scale(0.1584 -0.1584)">
       <use xlink:href="#DengXian-32"/>
       <use xlink:href="#DengXian-30" transform="translate(52.685547 0)"/>
      </g>
     </g>
    </g>
   </g>
   <g id="LineCollection_1">
    <path d="M 146.985796 486.3672 
L 146.985796 481.345158 
L 164.477388 481.345158 
L 164.477388 486.3672 
" clip-path="url(#pf51e67aad3)" style="fill: none; stroke: #dd8452; stroke-width: 1.2"/>
    <path d="M 199.460571 486.3672 
L 199.460571 484.419937 
L 216.952163 484.419937 
L 216.952163 486.3672 
" clip-path="url(#pf51e67aad3)" style="fill: none; stroke: #dd8452; stroke-width: 1.2"/>
    <path d="M 181.96898 486.3672 
L 181.96898 484.221614 
L 208.206367 484.221614 
L 208.206367 484.419937 
" clip-path="url(#pf51e67aad3)" style="fill: none; stroke: #dd8452; stroke-width: 1.2"/>
    <path d="M 251.935347 486.3672 
L 251.935347 480.573246 
L 269.426939 480.573246 
L 269.426939 486.3672 
" clip-path="url(#pf51e67aad3)" style="fill: none; stroke: #dd8452; stroke-width: 1.2"/>
    <path d="M 234.443755 486.3672 
L 234.443755 475.815827 
L 260.681143 475.815827 
L 260.681143 480.573246 
" clip-path="url(#pf51e67aad3)" style="fill: none; stroke: #dd8452; stroke-width: 1.2"/>
    <path d="M 195.087673 484.221614 
L 195.087673 464.743106 
L 247.562449 464.743106 
L 247.562449 475.815827 
" clip-path="url(#pf51e67aad3)" style="fill: none; stroke: #dd8452; stroke-width: 1.2"/>
    <path d="M 155.731592 481.345158 
L 155.731592 459.328035 
L 221.325061 459.328035 
L 221.325061 464.743106 
" clip-path="url(#pf51e67aad3)" style="fill: none; stroke: #dd8452; stroke-width: 1.2"/>
    <path d="M 304.410122 486.3672 
L 304.410122 470.591602 
L 321.901714 470.591602 
L 321.901714 486.3672 
" clip-path="url(#pf51e67aad3)" style="fill: none; stroke: #dd8452; stroke-width: 1.2"/>
    <path d="M 356.884898 486.3672 
L 356.884898 468.266695 
L 374.37649 468.266695 
L 374.37649 486.3672 
" clip-path="url(#pf51e67aad3)" style="fill: none; stroke: #dd8452; stroke-width: 1.2"/>
    <path d="M 339.393306 486.3672 
L 339.393306 466.438406 
L 365.630694 466.438406 
L 365.630694 468.266695 
" clip-path="url(#pf51e67aad3)" style="fill: none; stroke: #dd8452; stroke-width: 1.2"/>
    <path d="M 313.155918 470.591602 
L 313.155918 441.844424 
L 352.512 441.844424 
L 352.512 466.438406 
" clip-path="url(#pf51e67aad3)" style="fill: none; stroke: #dd8452; stroke-width: 1.2"/>
    <path d="M 286.918531 486.3672 
L 286.918531 427.578464 
L 332.833959 427.578464 
L 332.833959 441.844424 
" clip-path="url(#pf51e67aad3)" style="fill: none; stroke: #dd8452; stroke-width: 1.2"/>
    <path d="M 188.528327 459.328035 
L 188.528327 356.277155 
L 309.876245 356.277155 
L 309.876245 427.578464 
" clip-path="url(#pf51e67aad3)" style="fill: none; stroke: #dd8452; stroke-width: 1.2"/>
   </g>
   <g id="LineCollection_2">
    <path d="M 444.342857 486.3672 
L 444.342857 482.272379 
L 461.834449 482.272379 
L 461.834449 486.3672 
" clip-path="url(#pf51e67aad3)" style="fill: none; stroke: #55a868; stroke-width: 1.2"/>
    <path d="M 426.851265 486.3672 
L 426.851265 480.304301 
L 453.088653 480.304301 
L 453.088653 482.272379 
" clip-path="url(#pf51e67aad3)" style="fill: none; stroke: #55a868; stroke-width: 1.2"/>
    <path d="M 409.359673 486.3672 
L 409.359673 478.236532 
L 439.969959 478.236532 
L 439.969959 480.304301 
" clip-path="url(#pf51e67aad3)" style="fill: none; stroke: #55a868; stroke-width: 1.2"/>
    <path d="M 391.868082 486.3672 
L 391.868082 472.777254 
L 424.664816 472.777254 
L 424.664816 478.236532 
" clip-path="url(#pf51e67aad3)" style="fill: none; stroke: #55a868; stroke-width: 1.2"/>
    <path d="M 496.817633 486.3672 
L 496.817633 480.828018 
L 514.309224 480.828018 
L 514.309224 486.3672 
" clip-path="url(#pf51e67aad3)" style="fill: none; stroke: #55a868; stroke-width: 1.2"/>
    <path d="M 479.326041 486.3672 
L 479.326041 460.325949 
L 505.563429 460.325949 
L 505.563429 480.828018 
" clip-path="url(#pf51e67aad3)" style="fill: none; stroke: #55a868; stroke-width: 1.2"/>
    <path d="M 408.266449 472.777254 
L 408.266449 422.168047 
L 492.444735 422.168047 
L 492.444735 460.325949 
" clip-path="url(#pf51e67aad3)" style="fill: none; stroke: #55a868; stroke-width: 1.2"/>
    <path d="M 531.800816 486.3672 
L 531.800816 473.147056 
L 549.292408 473.147056 
L 549.292408 486.3672 
" clip-path="url(#pf51e67aad3)" style="fill: none; stroke: #55a868; stroke-width: 1.2"/>
    <path d="M 601.767184 486.3672 
L 601.767184 485.187582 
L 619.258776 485.187582 
L 619.258776 486.3672 
" clip-path="url(#pf51e67aad3)" style="fill: none; stroke: #55a868; stroke-width: 1.2"/>
    <path d="M 584.275592 486.3672 
L 584.275592 482.556955 
L 610.51298 482.556955 
L 610.51298 485.187582 
" clip-path="url(#pf51e67aad3)" style="fill: none; stroke: #55a868; stroke-width: 1.2"/>
    <path d="M 566.784 486.3672 
L 566.784 481.341119 
L 597.394286 481.341119 
L 597.394286 482.556955 
" clip-path="url(#pf51e67aad3)" style="fill: none; stroke: #55a868; stroke-width: 1.2"/>
    <path d="M 671.733551 486.3672 
L 671.733551 485.048347 
L 689.225143 485.048347 
L 689.225143 486.3672 
" clip-path="url(#pf51e67aad3)" style="fill: none; stroke: #55a868; stroke-width: 1.2"/>
    <path d="M 654.241959 486.3672 
L 654.241959 483.140275 
L 680.479347 483.140275 
L 680.479347 485.048347 
" clip-path="url(#pf51e67aad3)" style="fill: none; stroke: #55a868; stroke-width: 1.2"/>
    <path d="M 636.750367 486.3672 
L 636.750367 480.562249 
L 667.360653 480.562249 
L 667.360653 483.140275 
" clip-path="url(#pf51e67aad3)" style="fill: none; stroke: #55a868; stroke-width: 1.2"/>
    <path d="M 706.716735 486.3672 
L 706.716735 484.678244 
L 724.208327 484.678244 
L 724.208327 486.3672 
" clip-path="url(#pf51e67aad3)" style="fill: none; stroke: #55a868; stroke-width: 1.2"/>
    <path d="M 741.699918 486.3672 
L 741.699918 483.776065 
L 759.19151 483.776065 
L 759.19151 486.3672 
" clip-path="url(#pf51e67aad3)" style="fill: none; stroke: #55a868; stroke-width: 1.2"/>
    <path d="M 715.462531 484.678244 
L 715.462531 479.108715 
L 750.445714 479.108715 
L 750.445714 483.776065 
" clip-path="url(#pf51e67aad3)" style="fill: none; stroke: #55a868; stroke-width: 1.2"/>
    <path d="M 652.05551 480.562249 
L 652.05551 473.627805 
L 732.954122 473.627805 
L 732.954122 479.108715 
" clip-path="url(#pf51e67aad3)" style="fill: none; stroke: #55a868; stroke-width: 1.2"/>
    <path d="M 582.089143 481.341119 
L 582.089143 467.198787 
L 692.504816 467.198787 
L 692.504816 473.627805 
" clip-path="url(#pf51e67aad3)" style="fill: none; stroke: #55a868; stroke-width: 1.2"/>
    <path d="M 540.546612 473.147056 
L 540.546612 443.909987 
L 637.29698 443.909987 
L 637.29698 467.198787 
" clip-path="url(#pf51e67aad3)" style="fill: none; stroke: #55a868; stroke-width: 1.2"/>
    <path d="M 829.157878 486.3672 
L 829.157878 483.569491 
L 846.649469 483.569491 
L 846.649469 486.3672 
" clip-path="url(#pf51e67aad3)" style="fill: none; stroke: #55a868; stroke-width: 1.2"/>
    <path d="M 811.666286 486.3672 
L 811.666286 481.488038 
L 837.903673 481.488038 
L 837.903673 483.569491 
" clip-path="url(#pf51e67aad3)" style="fill: none; stroke: #55a868; stroke-width: 1.2"/>
    <path d="M 794.174694 486.3672 
L 794.174694 479.206019 
L 824.78498 479.206019 
L 824.78498 481.488038 
" clip-path="url(#pf51e67aad3)" style="fill: none; stroke: #55a868; stroke-width: 1.2"/>
    <path d="M 776.683102 486.3672 
L 776.683102 463.909416 
L 809.479837 463.909416 
L 809.479837 479.206019 
" clip-path="url(#pf51e67aad3)" style="fill: none; stroke: #55a868; stroke-width: 1.2"/>
    <path d="M 864.141061 486.3672 
L 864.141061 484.50206 
L 881.632653 484.50206 
L 881.632653 486.3672 
" clip-path="url(#pf51e67aad3)" style="fill: none; stroke: #55a868; stroke-width: 1.2"/>
    <path d="M 916.615837 486.3672 
L 916.615837 484.647626 
L 934.107429 484.647626 
L 934.107429 486.3672 
" clip-path="url(#pf51e67aad3)" style="fill: none; stroke: #55a868; stroke-width: 1.2"/>
    <path d="M 899.124245 486.3672 
L 899.124245 482.507067 
L 925.361633 482.507067 
L 925.361633 484.647626 
" clip-path="url(#pf51e67aad3)" style="fill: none; stroke: #55a868; stroke-width: 1.2"/>
    <path d="M 872.886857 484.50206 
L 872.886857 481.017575 
L 912.242939 481.017575 
L 912.242939 482.507067 
" clip-path="url(#pf51e67aad3)" style="fill: none; stroke: #55a868; stroke-width: 1.2"/>
    <path d="M 969.090612 486.3672 
L 969.090612 480.66097 
L 986.582204 480.66097 
L 986.582204 486.3672 
" clip-path="url(#pf51e67aad3)" style="fill: none; stroke: #55a868; stroke-width: 1.2"/>
    <path d="M 951.59902 486.3672 
L 951.59902 472.556768 
L 977.836408 472.556768 
L 977.836408 480.66097 
" clip-path="url(#pf51e67aad3)" style="fill: none; stroke: #55a868; stroke-width: 1.2"/>
    <path d="M 892.564898 481.017575 
L 892.564898 461.652809 
L 964.717714 461.652809 
L 964.717714 472.556768 
" clip-path="url(#pf51e67aad3)" style="fill: none; stroke: #55a868; stroke-width: 1.2"/>
    <path d="M 793.081469 463.909416 
L 793.081469 440.952163 
L 928.641306 440.952163 
L 928.641306 461.652809 
" clip-path="url(#pf51e67aad3)" style="fill: none; stroke: #55a868; stroke-width: 1.2"/>
    <path d="M 588.921796 443.909987 
L 588.921796 402.593252 
L 860.861388 402.593252 
L 860.861388 440.952163 
" clip-path="url(#pf51e67aad3)" style="fill: none; stroke: #55a868; stroke-width: 1.2"/>
    <path d="M 450.355592 422.168047 
L 450.355592 268.603275 
L 724.891592 268.603275 
L 724.891592 402.593252 
" clip-path="url(#pf51e67aad3)" style="fill: none; stroke: #55a868; stroke-width: 1.2"/>
   </g>
   <g id="LineCollection_3">
    <path d="M 249.202286 356.277155 
L 249.202286 85.6152 
L 587.623592 85.6152 
L 587.623592 268.603275 
" clip-path="url(#pf51e67aad3)" style="fill: none; stroke: #4c72b0; stroke-width: 1.2"/>
   </g>
   <g id="patch_3">
    <path d="M 138.24 486.3672 
L 138.24 65.5776 
" style="fill: none; stroke: #ffffff; stroke-linejoin: miter; stroke-linecap: square"/>
   </g>
   <g id="patch_4">
    <path d="M 995.328 486.3672 
L 995.328 65.5776 
" style="fill: none; stroke: #ffffff; stroke-linejoin: miter; stroke-linecap: square"/>
   </g>
   <g id="patch_5">
    <path d="M 138.24 486.3672 
L 995.328 486.3672 
" style="fill: none; stroke: #ffffff; stroke-linejoin: miter; stroke-linecap: square"/>
   </g>
   <g id="patch_6">
    <path d="M 138.24 65.5776 
L 995.328 65.5776 
" style="fill: none; stroke: #ffffff; stroke-linejoin: miter; stroke-linecap: square"/>
   </g>
  </g>
 </g>
 <defs>
  <clipPath id="pf51e67aad3">
   <rect x="138.24" y="65.5776" width="857.088" height="420.7896"/>
  </clipPath>
 </defs>
</svg>
