<?xml version="1.0" encoding="utf-8" standalone="no"?>
<!DOCTYPE svg PUBLIC "-//W3C//DTD SVG 1.1//EN"
  "http://www.w3.org/Graphics/SVG/1.1/DTD/svg11.dtd">
<svg xmlns:xlink="http://www.w3.org/1999/xlink" width="1105.92pt" height="546.48pt" viewBox="0 0 1105.92 546.48" xmlns="http://www.w3.org/2000/svg" version="1.1">
 <metadata>
  <rdf:RDF xmlns:dc="http://purl.org/dc/elements/1.1/" xmlns:cc="http://creativecommons.org/ns#" xmlns:rdf="http://www.w3.org/1999/02/22-rdf-syntax-ns#">
   <cc:Work>
    <dc:type rdf:resource="http://purl.org/dc/dcmitype/StillImage"/>
    <dc:date>2025-02-13T10:51:51.063725</dc:date>
    <dc:format>image/svg+xml</dc:format>
    <dc:creator>
     <cc:Agent>
      <dc:title>Matplotlib v3.10.0, https://matplotlib.org/</dc:title>
     </cc:Agent>
    </dc:creator>
   </cc:Work>
  </rdf:RDF>
 </metadata>
 <defs>
  <style type="text/css">*{stroke-linejoin: round; stroke-linecap: butt}</style>
 </defs>
 <g id="figure_1">
  <g id="patch_1">
   <path d="M 0 546.48 
L 1105.92 546.48 
L 1105.92 0 
L 0 0 
z
" style="fill: #ffffff"/>
  </g>
  <g id="axes_1">
   <g id="patch_2">
    <path d="M 138.24 486.3672 
L 995.328 486.3672 
L 995.328 65.5776 
L 138.24 65.5776 
z
" style="fill: #eaeaf2"/>
   </g>
   <g id="matplotlib.axis_1">
    <g id="xtick_1">
     <g id="line2d_1">
      <path d="M 225.825635 486.3672 
L 225.825635 65.5776 
" clip-path="url(#p0134b569e0)" style="fill: none; stroke: #ffffff; stroke-width: 0.8; stroke-linecap: round"/>
     </g>
     <g id="text_1">
      <!-- -3 -->
      <g style="fill: #262626" transform="translate(217.692785 505.29485) scale(0.1584 -0.1584)">
       <defs>
        <path id="DengXian-2d" d="M 694 1166 
L 694 1522 
L 2506 1522 
L 2506 1166 
L 694 1166 
z
" transform="scale(0.015625)"/>
        <path id="DengXian-33" d="M 3019 963 
Q 3019 356 2662 21 
Q 2306 -313 1656 -313 
Q 409 -313 266 828 
L 669 872 
Q 778 25 1656 25 
Q 2122 25 2367 262 
Q 2613 500 2613 963 
Q 2613 1375 2320 1590 
Q 2028 1806 1500 1806 
L 1200 1806 
L 1200 2172 
L 1491 2172 
Q 1784 2172 2011 2269 
Q 2238 2366 2369 2555 
Q 2500 2744 2500 3022 
Q 2500 3434 2283 3659 
Q 2066 3884 1644 3884 
Q 1266 3884 1027 3689 
Q 788 3494 747 3091 
L 353 3125 
Q 413 3647 755 3933 
Q 1097 4219 1647 4219 
Q 2244 4219 2573 3914 
Q 2903 3609 2903 3056 
Q 2903 2653 2672 2376 
Q 2441 2100 2022 2009 
L 2022 1997 
Q 2491 1938 2755 1658 
Q 3019 1378 3019 963 
z
" transform="scale(0.015625)"/>
       </defs>
       <use xlink:href="#DengXian-2d"/>
       <use xlink:href="#DengXian-33" transform="translate(50 0)"/>
      </g>
     </g>
    </g>
    <g id="xtick_2">
     <g id="line2d_2">
      <path d="M 330.094248 486.3672 
L 330.094248 65.5776 
" clip-path="url(#p0134b569e0)" style="fill: none; stroke: #ffffff; stroke-width: 0.8; stroke-linecap: round"/>
     </g>
     <g id="text_2">
      <!-- -2 -->
      <g style="fill: #262626" transform="translate(321.961398 505.29485) scale(0.1584 -0.1584)">
       <defs>
        <path id="DengXian-32" d="M 347 -250 
L 347 31 
Q 491 394 764 751 
Q 1038 1109 1566 1569 
Q 2109 2038 2326 2359 
Q 2544 2681 2544 3034 
Q 2544 3441 2316 3661 
Q 2088 3881 1681 3881 
Q 1313 3881 1077 3664 
Q 841 3447 800 3069 
L 400 3119 
Q 447 3613 795 3916 
Q 1144 4219 1684 4219 
Q 2281 4219 2615 3912 
Q 2950 3606 2950 3059 
Q 2950 2778 2850 2531 
Q 2750 2284 2550 2039 
Q 2350 1794 1869 1366 
Q 1025 616 803 103 
L 3016 103 
L 3016 -250 
L 347 -250 
z
" transform="scale(0.015625)"/>
       </defs>
       <use xlink:href="#DengXian-2d"/>
       <use xlink:href="#DengXian-32" transform="translate(50 0)"/>
      </g>
     </g>
    </g>
    <g id="xtick_3">
     <g id="line2d_3">
      <path d="M 434.362861 486.3672 
L 434.362861 65.5776 
" clip-path="url(#p0134b569e0)" style="fill: none; stroke: #ffffff; stroke-width: 0.8; stroke-linecap: round"/>
     </g>
     <g id="text_3">
      <!-- -1 -->
      <g style="fill: #262626" transform="translate(426.230011 505.29485) scale(0.1584 -0.1584)">
       <defs>
        <path id="DengXian-31" d="M 484 -250 
L 484 84 
L 1609 84 
L 1609 3744 
L 603 3075 
L 603 3434 
L 1653 4153 
L 2000 4153 
L 2000 84 
L 2959 84 
L 2959 -250 
L 484 -250 
z
" transform="scale(0.015625)"/>
       </defs>
       <use xlink:href="#DengXian-2d"/>
       <use xlink:href="#DengXian-31" transform="translate(50 0)"/>
      </g>
     </g>
    </g>
    <g id="xtick_4">
     <g id="line2d_4">
      <path d="M 538.631474 486.3672 
L 538.631474 65.5776 
" clip-path="url(#p0134b569e0)" style="fill: none; stroke: #ffffff; stroke-width: 0.8; stroke-linecap: round"/>
     </g>
     <g id="text_4">
      <!-- 0 -->
      <g style="fill: #262626" transform="translate(534.458624 505.29485) scale(0.1584 -0.1584)">
       <defs>
        <path id="DengXian-30" d="M 3106 1953 
Q 3106 850 2750 268 
Q 2394 -313 1697 -313 
Q 1006 -313 654 256 
Q 303 825 303 1953 
Q 303 3100 645 3659 
Q 988 4219 1719 4219 
Q 2422 4219 2764 3656 
Q 3106 3094 3106 1953 
z
M 2706 1953 
Q 2706 2963 2473 3425 
Q 2241 3888 1716 3888 
Q 1172 3888 936 3423 
Q 700 2959 700 1953 
Q 700 969 944 495 
Q 1188 22 1703 22 
Q 2216 22 2461 508 
Q 2706 994 2706 1953 
z
" transform="scale(0.015625)"/>
       </defs>
       <use xlink:href="#DengXian-30"/>
      </g>
     </g>
    </g>
    <g id="xtick_5">
     <g id="line2d_5">
      <path d="M 642.900088 486.3672 
L 642.900088 65.5776 
" clip-path="url(#p0134b569e0)" style="fill: none; stroke: #ffffff; stroke-width: 0.8; stroke-linecap: round"/>
     </g>
     <g id="text_5">
      <!-- 1 -->
      <g style="fill: #262626" transform="translate(638.727238 505.29485) scale(0.1584 -0.1584)">
       <use xlink:href="#DengXian-31"/>
      </g>
     </g>
    </g>
    <g id="xtick_6">
     <g id="line2d_6">
      <path d="M 747.168701 486.3672 
L 747.168701 65.5776 
" clip-path="url(#p0134b569e0)" style="fill: none; stroke: #ffffff; stroke-width: 0.8; stroke-linecap: round"/>
     </g>
     <g id="text_6">
      <!-- 2 -->
      <g style="fill: #262626" transform="translate(742.995851 505.29485) scale(0.1584 -0.1584)">
       <use xlink:href="#DengXian-32"/>
      </g>
     </g>
    </g>
    <g id="xtick_7">
     <g id="line2d_7">
      <path d="M 851.437314 486.3672 
L 851.437314 65.5776 
" clip-path="url(#p0134b569e0)" style="fill: none; stroke: #ffffff; stroke-width: 0.8; stroke-linecap: round"/>
     </g>
     <g id="text_7">
      <!-- 3 -->
      <g style="fill: #262626" transform="translate(847.264464 505.29485) scale(0.1584 -0.1584)">
       <use xlink:href="#DengXian-33"/>
      </g>
     </g>
    </g>
    <g id="xtick_8">
     <g id="line2d_8">
      <path d="M 955.705927 486.3672 
L 955.705927 65.5776 
" clip-path="url(#p0134b569e0)" style="fill: none; stroke: #ffffff; stroke-width: 0.8; stroke-linecap: round"/>
     </g>
     <g id="text_8">
      <!-- 4 -->
      <g style="fill: #262626" transform="translate(951.533077 505.29485) scale(0.1584 -0.1584)">
       <defs>
        <path id="DengXian-34" d="M 2516 803 
L 2516 -250 
L 2125 -250 
L 2125 803 
L 141 803 
L 141 1116 
L 2088 4153 
L 2516 4153 
L 2516 1131 
L 3113 1131 
L 3113 803 
L 2516 803 
z
M 2125 3628 
L 538 1131 
L 2125 1131 
L 2125 3628 
z
" transform="scale(0.015625)"/>
       </defs>
       <use xlink:href="#DengXian-34"/>
      </g>
     </g>
    </g>
    <g id="text_9">
     <!-- 氧化钾(K2O) -->
     <g style="fill: #262626" transform="translate(519.9417 526.46775) scale(0.1728 -0.1728)">
      <defs>
       <path id="DengXian-6c27" d="M 1703 4275 
L 5153 4275 
Q 5538 4275 5753 4313 
L 5753 3916 
Q 5447 3956 5166 3956 
L 1544 3956 
Q 1253 3481 647 2828 
Q 531 2963 281 3097 
Q 1113 3591 1625 5000 
L 2075 4819 
Q 2131 4800 2131 4787 
Q 2131 4775 2075 4750 
Q 1913 4672 1831 4525 
Q 1825 4506 1797 4459 
Q 1741 4334 1703 4275 
z
M 1025 166 
L 2491 166 
L 2491 697 
L 1600 697 
Q 1288 697 1119 659 
L 1119 1044 
Q 1294 1006 1575 1006 
L 2491 1006 
L 2491 1497 
L 1319 1497 
Q 984 1497 806 1459 
L 806 1844 
Q 959 1806 1319 1806 
L 2088 1806 
Q 1900 2081 1563 2356 
L 1813 2584 
Q 2059 2381 2394 2009 
L 2203 1806 
L 3047 1806 
Q 3519 2316 3647 2631 
L 1497 2631 
Q 1178 2631 941 2591 
L 941 2988 
Q 1106 2950 1497 2950 
L 4563 2950 
Q 4941 2950 5172 2988 
Q 5100 2566 5081 2381 
Q 5066 2053 5066 1753 
Q 5066 472 5363 -91 
Q 5544 -425 5663 -425 
Q 5675 -425 5684 -422 
Q 5797 -372 5784 78 
Q 5959 -38 6175 -109 
Q 6169 -141 6150 -219 
Q 6100 -459 6047 -594 
Q 5931 -916 5759 -966 
Q 5734 -972 5700 -972 
Q 5547 -972 5375 -775 
Q 4953 -306 4813 447 
Q 4738 831 4716 1356 
Q 4709 1528 4709 1775 
Q 4709 2175 4728 2631 
L 3681 2631 
L 4031 2400 
Q 4091 2363 4084 2344 
Q 4078 2316 4000 2303 
Q 3853 2272 3756 2175 
Q 3675 2075 3475 1856 
Q 3444 1825 3431 1806 
L 3891 1806 
Q 4191 1806 4422 1844 
L 4422 1459 
Q 4166 1497 3891 1497 
L 2859 1497 
L 2859 1006 
L 3525 1006 
Q 3834 1006 4072 1044 
L 4072 659 
Q 3822 697 3531 697 
L 2859 697 
L 2859 166 
L 4038 166 
Q 4378 166 4609 206 
L 4609 -178 
Q 4378 -141 4044 -141 
L 2859 -141 
L 2859 -506 
Q 2859 -831 2900 -1013 
L 2450 -1013 
Q 2491 -831 2491 -513 
L 2491 -141 
L 1025 -141 
Q 684 -141 538 -178 
L 538 206 
Q 697 166 1025 166 
z
M 5388 3647 
L 5388 3250 
Q 5159 3291 4838 3291 
L 2047 3291 
Q 1697 3291 1497 3250 
L 1497 3647 
Q 1691 3609 2053 3609 
L 4838 3609 
Q 5191 3609 5388 3647 
z
" transform="scale(0.015625)"/>
       <path id="DengXian-5316" d="M 238 2034 
Q 1325 2931 2113 4972 
L 2584 4728 
Q 2650 4697 2644 4678 
Q 2644 4659 2572 4628 
Q 2431 4569 2291 4281 
Q 2100 3884 1875 3488 
L 1875 -319 
Q 1881 -575 1913 -922 
L 1478 -922 
Q 1516 -556 1516 -319 
L 1516 2894 
Q 1147 2303 684 1728 
Q 488 1900 238 2034 
z
M 3866 4250 
L 3866 1991 
Q 4897 2913 5447 3828 
L 5838 3488 
Q 5900 3438 5894 3414 
Q 5888 3391 5806 3366 
Q 5684 3366 5453 3091 
Q 4588 2106 3866 1484 
L 3866 44 
Q 3853 -244 3994 -294 
Q 4128 -372 4665 -372 
Q 5203 -372 5381 -294 
Q 5569 -231 5619 6 
Q 5663 206 5697 569 
Q 5850 428 6156 366 
Q 6144 306 6125 231 
Q 6094 97 6069 -6 
Q 5913 -728 5166 -722 
Q 4903 -731 4703 -731 
Q 4366 -731 4044 -709 
Q 3513 -659 3494 -134 
L 3494 1209 
Q 3066 903 2547 563 
Q 2350 831 2169 966 
Q 2681 1081 3494 1684 
L 3494 4269 
Q 3494 4469 3456 4878 
L 3950 4813 
Q 4019 4806 4019 4781 
Q 4025 4769 3969 4709 
Q 3859 4622 3866 4250 
z
" transform="scale(0.015625)"/>
       <path id="DengXian-94be" d="M 2944 4538 
Q 3256 4494 3463 4500 
L 5434 4500 
Q 5638 4500 5966 4538 
Q 5919 4294 5925 4031 
L 5925 1153 
Q 5919 831 5966 634 
L 5528 634 
Q 5575 838 5569 984 
L 4616 984 
L 4616 -366 
Q 4616 -538 4653 -884 
L 4219 -884 
Q 4256 -563 4256 -366 
L 4256 984 
L 3341 984 
Q 3334 788 3378 556 
L 2944 556 
Q 2988 897 2981 1075 
L 2981 4031 
Q 2988 4281 2944 4538 
z
M 3341 2875 
L 4256 2875 
L 4256 4178 
L 3341 4178 
L 3341 2875 
z
M 3341 2553 
L 3341 1306 
L 4256 1306 
L 4256 2553 
L 3341 2553 
z
M 4616 2553 
L 4616 1306 
L 5569 1306 
L 5569 2553 
L 4616 2553 
z
M 4616 4178 
L 4616 2875 
L 5569 2875 
L 5569 4178 
L 4616 4178 
z
M 225 3053 
Q 1025 3706 1428 4972 
L 1850 4794 
Q 1953 4756 1947 4728 
Q 1947 4709 1844 4666 
Q 1741 4603 1678 4488 
Q 1594 4313 1434 4013 
Q 1403 3950 1381 3909 
L 2156 3909 
Q 2350 3903 2675 3950 
L 2675 3553 
Q 2356 3591 2169 3591 
L 1184 3591 
Q 941 3225 647 2841 
Q 481 2988 225 3053 
z
M 947 1613 
L 1356 1613 
L 1356 2478 
L 1269 2478 
Q 1088 2484 756 2438 
L 756 2834 
Q 1031 2791 1269 2797 
L 1906 2797 
Q 2125 2791 2431 2834 
L 2431 2438 
Q 2119 2484 1919 2478 
L 1716 2478 
L 1716 1613 
L 2175 1613 
Q 2400 1606 2694 1650 
L 2694 1253 
Q 2369 1300 2181 1294 
L 1716 1294 
L 1716 -172 
Q 2175 147 2553 459 
Q 2572 269 2675 91 
Q 1825 -475 1447 -800 
L 1131 -409 
Q 1363 -269 1356 -84 
L 1356 1294 
L 947 1294 
Q 756 1300 434 1253 
L 434 1650 
Q 750 1606 947 1613 
z
" transform="scale(0.015625)"/>
       <path id="DengXian-28" d="M 322 1413 
Q 322 2275 556 2912 
Q 791 3550 1341 4294 
L 1713 4294 
Q 1159 3544 920 2898 
Q 681 2253 681 1406 
Q 681 563 918 -82 
Q 1156 -728 1713 -1484 
L 1341 -1484 
Q 803 -763 562 -114 
Q 322 534 322 1413 
z
" transform="scale(0.015625)"/>
       <path id="DengXian-4b" d="M 3041 -250 
L 1472 1950 
L 1022 1503 
L 1022 -250 
L 603 -250 
L 603 4153 
L 1022 4153 
L 1022 1947 
L 2934 4153 
L 3456 4153 
L 1769 2241 
L 3566 -250 
L 3041 -250 
z
" transform="scale(0.015625)"/>
       <path id="DengXian-4f" d="M 4503 1972 
Q 4503 1288 4248 766 
Q 3994 244 3523 -34 
Q 3053 -313 2419 -313 
Q 1772 -313 1303 -34 
Q 834 244 587 764 
Q 341 1284 341 1972 
Q 341 3022 892 3620 
Q 1444 4219 2425 4219 
Q 3066 4219 3534 3950 
Q 4003 3681 4253 3168 
Q 4503 2656 4503 1972 
z
M 4072 1972 
Q 4072 2850 3637 3356 
Q 3203 3863 2425 3863 
Q 1638 3863 1203 3364 
Q 769 2866 769 1972 
Q 769 1081 1211 561 
Q 1653 41 2419 41 
Q 3213 41 3642 550 
Q 4072 1059 4072 1972 
z
" transform="scale(0.015625)"/>
       <path id="DengXian-29" d="M 1547 1403 
Q 1547 559 1314 -83 
Q 1081 -725 525 -1484 
L 156 -1484 
Q 709 -734 948 -89 
Q 1188 556 1188 1403 
Q 1188 2241 950 2887 
Q 713 3534 156 4294 
L 525 4294 
Q 1075 3553 1311 2909 
Q 1547 2266 1547 1403 
z
" transform="scale(0.015625)"/>
      </defs>
      <use xlink:href="#DengXian-6c27"/>
      <use xlink:href="#DengXian-5316" transform="translate(100 0)"/>
      <use xlink:href="#DengXian-94be" transform="translate(200 0)"/>
      <use xlink:href="#DengXian-28" transform="translate(300 0)"/>
      <use xlink:href="#DengXian-4b" transform="translate(329.199219 0)"/>
      <use xlink:href="#DengXian-32" transform="translate(384.521484 0)"/>
      <use xlink:href="#DengXian-4f" transform="translate(437.207031 0)"/>
      <use xlink:href="#DengXian-29" transform="translate(512.939453 0)"/>
     </g>
    </g>
   </g>
   <g id="matplotlib.axis_2">
    <g id="ytick_1">
     <g id="line2d_9">
      <path d="M 138.24 464.867001 
L 995.328 464.867001 
" clip-path="url(#p0134b569e0)" style="fill: none; stroke: #ffffff; stroke-width: 0.8; stroke-linecap: round"/>
     </g>
     <g id="text_10">
      <!-- -4 -->
      <g style="fill: #262626" transform="translate(113.6743 470.180826) scale(0.1584 -0.1584)">
       <use xlink:href="#DengXian-2d"/>
       <use xlink:href="#DengXian-34" transform="translate(50 0)"/>
      </g>
     </g>
    </g>
    <g id="ytick_2">
     <g id="line2d_10">
      <path d="M 138.24 403.437863 
L 995.328 403.437863 
" clip-path="url(#p0134b569e0)" style="fill: none; stroke: #ffffff; stroke-width: 0.8; stroke-linecap: round"/>
     </g>
     <g id="text_11">
      <!-- -3 -->
      <g style="fill: #262626" transform="translate(113.6743 408.751688) scale(0.1584 -0.1584)">
       <use xlink:href="#DengXian-2d"/>
       <use xlink:href="#DengXian-33" transform="translate(50 0)"/>
      </g>
     </g>
    </g>
    <g id="ytick_3">
     <g id="line2d_11">
      <path d="M 138.24 342.008724 
L 995.328 342.008724 
" clip-path="url(#p0134b569e0)" style="fill: none; stroke: #ffffff; stroke-width: 0.8; stroke-linecap: round"/>
     </g>
     <g id="text_12">
      <!-- -2 -->
      <g style="fill: #262626" transform="translate(113.6743 347.322549) scale(0.1584 -0.1584)">
       <use xlink:href="#DengXian-2d"/>
       <use xlink:href="#DengXian-32" transform="translate(50 0)"/>
      </g>
     </g>
    </g>
    <g id="ytick_4">
     <g id="line2d_12">
      <path d="M 138.24 280.579585 
L 995.328 280.579585 
" clip-path="url(#p0134b569e0)" style="fill: none; stroke: #ffffff; stroke-width: 0.8; stroke-linecap: round"/>
     </g>
     <g id="text_13">
      <!-- -1 -->
      <g style="fill: #262626" transform="translate(113.6743 285.89341) scale(0.1584 -0.1584)">
       <use xlink:href="#DengXian-2d"/>
       <use xlink:href="#DengXian-31" transform="translate(50 0)"/>
      </g>
     </g>
    </g>
    <g id="ytick_5">
     <g id="line2d_13">
      <path d="M 138.24 219.150447 
L 995.328 219.150447 
" clip-path="url(#p0134b569e0)" style="fill: none; stroke: #ffffff; stroke-width: 0.8; stroke-linecap: round"/>
     </g>
     <g id="text_14">
      <!-- 0 -->
      <g style="fill: #262626" transform="translate(121.5943 224.464272) scale(0.1584 -0.1584)">
       <use xlink:href="#DengXian-30"/>
      </g>
     </g>
    </g>
    <g id="ytick_6">
     <g id="line2d_14">
      <path d="M 138.24 157.721308 
L 995.328 157.721308 
" clip-path="url(#p0134b569e0)" style="fill: none; stroke: #ffffff; stroke-width: 0.8; stroke-linecap: round"/>
     </g>
     <g id="text_15">
      <!-- 1 -->
      <g style="fill: #262626" transform="translate(121.5943 163.035133) scale(0.1584 -0.1584)">
       <use xlink:href="#DengXian-31"/>
      </g>
     </g>
    </g>
    <g id="ytick_7">
     <g id="line2d_15">
      <path d="M 138.24 96.292169 
L 995.328 96.292169 
" clip-path="url(#p0134b569e0)" style="fill: none; stroke: #ffffff; stroke-width: 0.8; stroke-linecap: round"/>
     </g>
     <g id="text_16">
      <!-- 2 -->
      <g style="fill: #262626" transform="translate(121.5943 101.605994) scale(0.1584 -0.1584)">
       <use xlink:href="#DengXian-32"/>
      </g>
     </g>
    </g>
    <g id="text_17">
     <!-- 氧化钠(Na2O) -->
     <g style="fill: #262626" transform="translate(105.6675 328.6575) rotate(-90) scale(0.1728 -0.1728)">
      <defs>
       <path id="DengXian-94a0" d="M 3003 3553 
Q 3341 3513 3566 3513 
L 4319 3513 
L 4319 4341 
Q 4319 4641 4281 4947 
L 4769 4884 
Q 4850 4878 4850 4851 
Q 4850 4825 4775 4769 
Q 4659 4703 4666 4341 
L 4666 3513 
L 5472 3513 
Q 5772 3513 6053 3553 
Q 6016 3278 6016 3041 
L 6016 -159 
Q 6028 -569 5838 -684 
Q 5663 -825 4991 -872 
Q 4928 -634 4788 -403 
Q 5078 -447 5266 -447 
Q 5406 -447 5478 -422 
Q 5663 -378 5656 -153 
L 5656 3194 
L 4659 3194 
Q 4647 2803 4609 2444 
Q 5197 1716 5625 1153 
L 5288 903 
Q 4941 1453 4500 2053 
Q 4256 1325 3775 750 
Q 3597 891 3384 972 
L 3384 -269 
Q 3384 -538 3425 -872 
L 3003 -872 
Q 3041 -538 3041 -269 
L 3041 3028 
Q 3041 3263 3003 3553 
z
M 4319 3194 
L 3384 3194 
L 3384 1019 
Q 4269 1734 4319 3194 
z
M 1569 4941 
L 1972 4750 
Q 2088 4697 2088 4672 
Q 2094 4641 1997 4603 
Q 1844 4556 1766 4391 
Q 1613 4103 1453 3834 
L 2194 3834 
Q 2456 3834 2778 3872 
L 2778 3475 
Q 2456 3513 2194 3513 
L 1259 3513 
Q 1031 3219 672 2803 
Q 519 2956 288 3053 
Q 1222 3822 1569 4941 
z
M 1019 1600 
L 1428 1600 
L 1428 2491 
L 1338 2491 
Q 1088 2491 781 2450 
L 781 2847 
Q 1094 2809 1338 2809 
L 1966 2809 
Q 2228 2809 2522 2847 
L 2522 2450 
Q 2222 2491 1966 2491 
L 1772 2491 
L 1772 1600 
L 2081 1600 
Q 2363 1600 2638 1638 
L 2638 1241 
Q 2350 1281 2081 1281 
L 1772 1281 
L 1772 -134 
Q 2241 166 2681 531 
Q 2694 359 2759 122 
Q 1778 -494 1484 -794 
L 1197 -378 
Q 1428 -269 1428 -84 
L 1428 1281 
L 1019 1281 
Q 750 1281 441 1241 
L 441 1638 
Q 728 1600 1019 1600 
z
" transform="scale(0.015625)"/>
       <path id="DengXian-4e" d="M 3572 -250 
L 944 3663 
Q 972 3156 972 2850 
L 972 -250 
L 578 -250 
L 578 4153 
L 1069 4153 
L 3719 213 
Q 3684 653 3684 1091 
L 3684 4153 
L 4084 4153 
L 4084 -250 
L 3572 -250 
z
" transform="scale(0.015625)"/>
       <path id="DengXian-61" d="M 1381 16 
Q 1656 16 1870 145 
Q 2084 275 2206 501 
Q 2328 728 2328 978 
L 2328 1363 
L 1872 1350 
Q 1234 1334 964 1156 
Q 694 978 694 619 
Q 694 16 1381 16 
z
M 2725 -250 
L 2347 -250 
L 2328 316 
L 2316 316 
Q 1994 -313 1316 -313 
Q 819 -313 548 -67 
Q 278 178 278 613 
Q 278 1106 651 1365 
Q 1025 1625 1803 1647 
L 2325 1659 
L 2325 1788 
Q 2325 2238 2145 2452 
Q 1966 2666 1588 2666 
Q 1241 2666 1064 2555 
Q 888 2444 822 2181 
L 447 2259 
Q 547 2663 826 2828 
Q 1106 2994 1594 2994 
Q 2191 2994 2458 2697 
Q 2725 2400 2725 1753 
L 2725 -250 
z
" transform="scale(0.015625)"/>
      </defs>
      <use xlink:href="#DengXian-6c27"/>
      <use xlink:href="#DengXian-5316" transform="translate(100 0)"/>
      <use xlink:href="#DengXian-94a0" transform="translate(200 0)"/>
      <use xlink:href="#DengXian-28" transform="translate(300 0)"/>
      <use xlink:href="#DengXian-4e" transform="translate(329.199219 0)"/>
      <use xlink:href="#DengXian-61" transform="translate(402.050781 0)"/>
      <use xlink:href="#DengXian-32" transform="translate(452.148438 0)"/>
      <use xlink:href="#DengXian-4f" transform="translate(504.833984 0)"/>
      <use xlink:href="#DengXian-29" transform="translate(580.566406 0)"/>
     </g>
    </g>
   </g>
   <g id="PathCollection_1">
    <defs>
     <path id="C0_0_8d4959725b" d="M 0 2.738613 
C 0.726289 2.738613 1.422928 2.450055 1.936492 1.936492 
C 2.450055 1.422928 2.738613 0.726289 2.738613 -0 
C 2.738613 -0.726289 2.450055 -1.422928 1.936492 -1.936492 
C 1.422928 -2.450055 0.726289 -2.738613 0 -2.738613 
C -0.726289 -2.738613 -1.422928 -2.450055 -1.936492 -1.936492 
C -2.450055 -1.422928 -2.738613 -0.726289 -2.738613 0 
C -2.738613 0.726289 -2.450055 1.422928 -1.936492 1.936492 
C -1.422928 2.450055 -0.726289 2.738613 0 2.738613 
z
"/>
    </defs>
    <g clip-path="url(#p0134b569e0)">
     <use xlink:href="#C0_0_8d4959725b" x="818.071358" y="393.609201" style="fill: #fde725; stroke: #000000; stroke-width: 0.8"/>
    </g>
    <g clip-path="url(#p0134b569e0)">
     <use xlink:href="#C0_0_8d4959725b" x="832.668964" y="345.080181" style="fill: #fde725; stroke: #000000; stroke-width: 0.8"/>
    </g>
    <g clip-path="url(#p0134b569e0)">
     <use xlink:href="#C0_0_8d4959725b" x="787.83346" y="424.32377" style="fill: #fde725; stroke: #000000; stroke-width: 0.8"/>
    </g>
    <g clip-path="url(#p0134b569e0)">
     <use xlink:href="#C0_0_8d4959725b" x="812.857927" y="394.223492" style="fill: #fde725; stroke: #000000; stroke-width: 0.8"/>
    </g>
    <g clip-path="url(#p0134b569e0)">
     <use xlink:href="#C0_0_8d4959725b" x="812.857927" y="402.823571" style="fill: #fde725; stroke: #000000; stroke-width: 0.8"/>
    </g>
    <g clip-path="url(#p0134b569e0)">
     <use xlink:href="#C0_0_8d4959725b" x="775.321226" y="399.752114" style="fill: #fde725; stroke: #000000; stroke-width: 0.8"/>
    </g>
    <g clip-path="url(#p0134b569e0)">
     <use xlink:href="#C0_0_8d4959725b" x="736.741839" y="424.938061" style="fill: #fde725; stroke: #000000; stroke-width: 0.8"/>
    </g>
    <g clip-path="url(#p0134b569e0)">
     <use xlink:href="#C0_0_8d4959725b" x="363.460204" y="322.3514" style="fill: #440154; stroke: #000000; stroke-width: 0.8"/>
    </g>
    <g clip-path="url(#p0134b569e0)">
     <use xlink:href="#C0_0_8d4959725b" x="635.601285" y="327.265731" style="fill: #fde725; stroke: #000000; stroke-width: 0.8"/>
    </g>
    <g clip-path="url(#p0134b569e0)">
     <use xlink:href="#C0_0_8d4959725b" x="712.760058" y="308.836989" style="fill: #fde725; stroke: #000000; stroke-width: 0.8"/>
    </g>
    <g clip-path="url(#p0134b569e0)">
     <use xlink:href="#C0_0_8d4959725b" x="692.949022" y="326.651439" style="fill: #fde725; stroke: #000000; stroke-width: 0.8"/>
    </g>
    <g clip-path="url(#p0134b569e0)">
     <use xlink:href="#C0_0_8d4959725b" x="837.882394" y="133.149653" style="fill: #21918c; stroke: #000000; stroke-width: 0.8"/>
    </g>
    <g clip-path="url(#p0134b569e0)">
     <use xlink:href="#C0_0_8d4959725b" x="829.540905" y="127.006739" style="fill: #21918c; stroke: #000000; stroke-width: 0.8"/>
    </g>
    <g clip-path="url(#p0134b569e0)">
     <use xlink:href="#C0_0_8d4959725b" x="878.547153" y="137.449692" style="fill: #21918c; stroke: #000000; stroke-width: 0.8"/>
    </g>
    <g clip-path="url(#p0134b569e0)">
     <use xlink:href="#C0_0_8d4959725b" x="891.059387" y="347.537347" style="fill: #fde725; stroke: #000000; stroke-width: 0.8"/>
    </g>
    <g clip-path="url(#p0134b569e0)">
     <use xlink:href="#C0_0_8d4959725b" x="242.508613" y="393.609201" style="fill: #440154; stroke: #000000; stroke-width: 0.8"/>
    </g>
    <g clip-path="url(#p0134b569e0)">
     <use xlink:href="#C0_0_8d4959725b" x="633.515912" y="342.623015" style="fill: #fde725; stroke: #000000; stroke-width: 0.8"/>
    </g>
    <g clip-path="url(#p0134b569e0)">
     <use xlink:href="#C0_0_8d4959725b" x="351.990657" y="329.108605" style="fill: #440154; stroke: #000000; stroke-width: 0.8"/>
    </g>
   </g>
   <g id="PathCollection_2">
    <defs>
     <path id="C1_0_f8fb36c616" d="M 0 6.123724 
C 1.624031 6.123724 3.181764 5.47849 4.330127 4.330127 
C 5.47849 3.181764 6.123724 1.624031 6.123724 -0 
C 6.123724 -1.624031 5.47849 -3.181764 4.330127 -4.330127 
C 3.181764 -5.47849 1.624031 -6.123724 0 -6.123724 
C -1.624031 -6.123724 -3.181764 -5.47849 -4.330127 -4.330127 
C -5.47849 -3.181764 -6.123724 -1.624031 -6.123724 0 
C -6.123724 1.624031 -5.47849 3.181764 -4.330127 4.330127 
C -3.181764 5.47849 -1.624031 6.123724 0 6.123724 
z
"/>
    </defs>
    <g clip-path="url(#p0134b569e0)">
     <use xlink:href="#C1_0_f8fb36c616" x="363.460204" y="322.3514" style="fill: none; stroke: #000000; stroke-width: 0.8"/>
    </g>
    <g clip-path="url(#p0134b569e0)">
     <use xlink:href="#C1_0_f8fb36c616" x="837.882394" y="133.149653" style="fill: none; stroke: #000000; stroke-width: 0.8"/>
    </g>
    <g clip-path="url(#p0134b569e0)">
     <use xlink:href="#C1_0_f8fb36c616" x="829.540905" y="127.006739" style="fill: none; stroke: #000000; stroke-width: 0.8"/>
    </g>
    <g clip-path="url(#p0134b569e0)">
     <use xlink:href="#C1_0_f8fb36c616" x="635.601285" y="327.265731" style="fill: none; stroke: #000000; stroke-width: 0.8"/>
    </g>
    <g clip-path="url(#p0134b569e0)">
     <use xlink:href="#C1_0_f8fb36c616" x="712.760058" y="308.836989" style="fill: none; stroke: #000000; stroke-width: 0.8"/>
    </g>
    <g clip-path="url(#p0134b569e0)">
     <use xlink:href="#C1_0_f8fb36c616" x="891.059387" y="347.537347" style="fill: none; stroke: #000000; stroke-width: 0.8"/>
    </g>
    <g clip-path="url(#p0134b569e0)">
     <use xlink:href="#C1_0_f8fb36c616" x="633.515912" y="342.623015" style="fill: none; stroke: #000000; stroke-width: 0.8"/>
    </g>
   </g>
   <g id="QuadContourSet_1">
    <path clip-path="url(#p0134b569e0)" style="fill: none; stroke-dasharray: 4.44,1.92; stroke-dashoffset: 0; stroke: #000000; stroke-width: 1.2"/>
    <path d="M 404.203243 65.5776 
L 404.203243 65.998811 
L 405.061189 66.420022 
L 405.061189 66.420022 
L 405.061189 66.841232 
L 406.777081 67.683654 
L 406.777081 67.683654 
L 406.777081 68.104865 
L 407.635027 68.526076 
L 407.635027 68.526076 
L 407.635027 68.947286 
L 409.350919 69.789708 
L 409.350919 69.789708 
L 409.350919 70.210919 
L 410.208865 70.63213 
L 410.208865 70.63213 
L 410.208865 71.053341 
L 411.924757 71.895762 
L 411.924757 71.895762 
L 411.924757 72.316973 
L 412.782703 72.738184 
L 412.782703 72.738184 
L 412.782703 73.159395 
L 414.498595 74.001816 
L 414.498595 74.001816 
L 414.498595 74.423027 
L 415.356541 74.844238 
L 415.356541 74.844238 
L 415.356541 75.265449 
L 417.072432 76.10787 
L 417.072432 76.10787 
L 417.072432 76.529081 
L 417.930378 76.950292 
L 417.930378 76.950292 
L 417.930378 77.371503 
L 418.788324 77.792714 
L 418.788324 77.792714 
L 418.788324 78.213924 
L 420.504216 79.056346 
L 420.504216 79.056346 
L 420.504216 79.477557 
L 421.362162 79.898768 
L 421.362162 79.898768 
L 421.362162 80.319978 
L 423.078054 81.1624 
L 423.078054 81.1624 
L 423.078054 81.583611 
L 423.936 82.004822 
L 423.936 82.004822 
L 423.936 82.426032 
L 425.651892 83.268454 
L 425.651892 83.268454 
L 425.651892 83.689665 
L 426.509838 84.110876 
L 426.509838 84.110876 
L 426.509838 84.532086 
L 428.22573 85.374508 
L 428.22573 85.374508 
L 428.22573 85.795719 
L 429.083676 86.21693 
L 429.083676 86.21693 
L 429.083676 86.638141 
L 430.799568 87.480562 
L 430.799568 87.480562 
L 430.799568 87.901773 
L 431.657514 88.322984 
L 431.657514 88.322984 
L 431.657514 88.744195 
L 432.515459 89.165405 
L 432.515459 89.165405 
L 432.515459 89.586616 
L 434.231351 90.429038 
L 434.231351 90.429038 
L 434.231351 90.850249 
L 435.089297 91.271459 
L 435.089297 91.271459 
L 435.089297 91.69267 
L 436.805189 92.535092 
L 436.805189 92.535092 
L 436.805189 92.956303 
L 437.663135 93.377514 
L 437.663135 93.377514 
L 437.663135 93.798724 
L 439.379027 94.641146 
L 439.379027 94.641146 
L 439.379027 95.062357 
L 440.236973 95.483568 
L 440.236973 95.483568 
L 440.236973 95.904778 
L 441.952865 96.7472 
L 441.952865 96.7472 
L 441.952865 97.168411 
L 442.810811 97.589622 
L 442.810811 97.589622 
L 442.810811 98.010832 
L 444.526703 98.853254 
L 444.526703 98.853254 
L 444.526703 99.274465 
L 445.384649 99.695676 
L 445.384649 99.695676 
L 445.384649 100.116886 
L 447.100541 100.959308 
L 447.100541 100.959308 
L 447.100541 101.380519 
L 447.958486 101.80173 
L 447.958486 101.80173 
L 447.958486 102.222941 
L 448.816432 102.644151 
L 448.816432 102.644151 
L 448.816432 103.065362 
L 450.532324 103.907784 
L 450.532324 103.907784 
L 450.532324 104.328995 
L 451.39027 104.750205 
L 451.39027 104.750205 
L 451.39027 105.171416 
L 453.106162 106.013838 
L 453.106162 106.013838 
L 453.106162 106.435049 
L 453.964108 106.856259 
L 453.964108 106.856259 
L 453.964108 107.27747 
L 455.68 108.119892 
L 455.68 108.119892 
L 455.68 108.541103 
L 456.537946 108.962314 
L 456.537946 108.962314 
L 456.537946 109.383524 
L 458.253838 110.225946 
L 458.253838 110.225946 
L 458.253838 110.647157 
L 459.111784 111.068368 
L 459.111784 111.068368 
L 459.111784 111.489578 
L 460.827676 112.332 
L 460.827676 112.332 
L 460.827676 112.753211 
L 461.685622 113.174422 
L 461.685622 113.174422 
L 461.685622 113.595632 
L 462.543568 114.016843 
L 462.543568 114.016843 
L 462.543568 114.438054 
L 464.259459 115.280476 
L 464.259459 115.280476 
L 464.259459 115.701686 
L 465.117405 116.122897 
L 465.117405 116.122897 
L 465.117405 116.544108 
L 466.833297 117.38653 
L 466.833297 117.38653 
L 466.833297 117.807741 
L 467.691243 118.228951 
L 467.691243 118.228951 
L 467.691243 118.650162 
L 469.407135 119.492584 
L 469.407135 119.492584 
L 469.407135 119.913795 
L 470.265081 120.335005 
L 470.265081 120.335005 
L 470.265081 120.756216 
L 471.980973 121.598638 
L 471.980973 121.598638 
L 471.980973 122.019849 
L 472.838919 122.441059 
L 472.838919 122.441059 
L 472.838919 122.86227 
L 474.554811 123.704692 
L 474.554811 123.704692 
L 474.554811 124.125903 
L 475.412757 124.547114 
L 475.412757 124.547114 
L 475.412757 124.968324 
L 476.270703 125.389535 
L 476.270703 125.389535 
L 476.270703 125.810746 
L 477.986595 126.653168 
L 477.986595 126.653168 
L 477.986595 127.074378 
L 478.844541 127.495589 
L 478.844541 127.495589 
L 478.844541 127.9168 
L 480.560432 128.759222 
L 480.560432 128.759222 
L 480.560432 129.180432 
L 481.418378 129.601643 
L 481.418378 129.601643 
L 481.418378 130.022854 
L 483.13427 130.865276 
L 483.13427 130.865276 
L 483.13427 131.286486 
L 483.992216 131.707697 
L 483.992216 131.707697 
L 483.992216 132.128908 
L 485.708108 132.97133 
L 485.708108 132.97133 
L 485.708108 133.392541 
L 486.566054 133.813751 
L 486.566054 133.813751 
L 486.566054 134.234962 
L 488.281946 135.077384 
L 488.281946 135.077384 
L 488.281946 135.498595 
L 489.139892 135.919805 
L 489.139892 135.919805 
L 489.139892 136.341016 
L 489.997838 136.762227 
L 489.997838 136.762227 
L 489.997838 137.183438 
L 491.71373 138.025859 
L 491.71373 138.025859 
L 491.71373 138.44707 
L 492.571676 138.868281 
L 492.571676 138.868281 
L 492.571676 139.289492 
L 494.287568 140.131914 
L 494.287568 140.131914 
L 494.287568 140.553124 
L 495.145514 140.974335 
L 495.145514 140.974335 
L 495.145514 141.395546 
L 496.861405 142.237968 
L 496.861405 142.237968 
L 496.861405 142.659178 
L 497.719351 143.080389 
L 497.719351 143.080389 
L 497.719351 143.5016 
L 499.435243 144.344022 
L 499.435243 144.344022 
L 499.435243 144.765232 
L 500.293189 145.186443 
L 500.293189 145.186443 
L 500.293189 145.607654 
L 502.009081 146.450076 
L 502.009081 146.450076 
L 502.009081 146.871286 
L 502.867027 147.292497 
L 502.867027 147.292497 
L 502.867027 147.713708 
L 503.724973 148.134919 
L 503.724973 148.134919 
L 503.724973 148.55613 
L 505.440865 149.398551 
L 505.440865 149.398551 
L 505.440865 149.819762 
L 506.298811 150.240973 
L 506.298811 150.240973 
L 506.298811 150.662184 
L 508.014703 151.504605 
L 508.014703 151.504605 
L 508.014703 151.925816 
L 508.872649 152.347027 
L 508.872649 152.347027 
L 508.872649 152.768238 
L 510.588541 153.610659 
L 510.588541 153.610659 
L 510.588541 154.03187 
L 511.446486 154.453081 
L 511.446486 154.453081 
L 511.446486 154.874292 
L 513.162378 155.716714 
L 513.162378 155.716714 
L 513.162378 156.137924 
L 514.020324 156.559135 
L 514.020324 156.559135 
L 514.020324 156.980346 
L 515.736216 157.822768 
L 515.736216 157.822768 
L 515.736216 158.243978 
L 516.594162 158.665189 
L 516.594162 158.665189 
L 516.594162 159.0864 
L 518.310054 159.928822 
L 518.310054 159.928822 
L 518.310054 160.350032 
L 519.168 160.771243 
L 519.168 160.771243 
L 519.168 161.192454 
L 520.025946 161.613665 
L 520.025946 161.613665 
L 520.025946 162.034876 
L 521.741838 162.877297 
L 521.741838 162.877297 
L 521.741838 163.298508 
L 522.599784 163.719719 
L 522.599784 163.719719 
L 522.599784 164.14093 
L 524.315676 164.983351 
L 524.315676 164.983351 
L 524.315676 165.404562 
L 525.173622 165.825773 
L 525.173622 165.825773 
L 525.173622 166.246984 
L 526.031568 166.668195 
L 526.031568 166.668195 
L 525.173622 166.668195 
L 525.173622 166.668195 
L 524.315676 166.246984 
L 523.45773 166.246984 
L 523.45773 166.246984 
L 522.599784 165.825773 
L 521.741838 165.825773 
L 520.883892 166.246984 
L 520.883892 167.089405 
L 520.883892 167.089405 
L 520.025946 167.510616 
L 520.025946 173.407568 
L 520.025946 173.407568 
L 519.168 173.828778 
L 519.168 179.72573 
L 519.168 179.72573 
L 518.310054 180.146941 
L 518.310054 186.043892 
L 518.310054 186.043892 
L 517.452108 186.465103 
L 517.452108 192.362054 
L 517.452108 192.362054 
L 516.594162 192.783265 
L 516.594162 198.680216 
L 516.594162 198.680216 
L 515.736216 199.101427 
L 515.736216 204.998378 
L 515.736216 204.998378 
L 514.87827 205.419589 
L 514.87827 211.316541 
L 514.87827 211.316541 
L 514.020324 211.737751 
L 514.020324 217.634703 
L 514.020324 217.634703 
L 513.162378 218.055914 
L 513.162378 223.952865 
L 513.162378 223.952865 
L 512.304432 224.374076 
L 512.304432 230.271027 
L 512.304432 230.271027 
L 511.446486 230.692238 
L 511.446486 236.589189 
L 511.446486 236.589189 
L 510.588541 237.0104 
L 510.588541 242.907351 
L 510.588541 242.907351 
L 509.730595 243.328562 
L 509.730595 249.225514 
L 509.730595 249.225514 
L 508.872649 249.646724 
L 508.872649 255.543676 
L 508.872649 255.543676 
L 508.014703 255.964886 
L 508.014703 261.861838 
L 508.014703 261.861838 
L 507.156757 262.283049 
L 507.156757 268.18 
L 507.156757 268.18 
L 506.298811 268.601211 
L 506.298811 274.498162 
L 506.298811 274.498162 
L 505.440865 274.919373 
L 505.440865 280.816324 
L 505.440865 280.816324 
L 504.582919 281.237535 
L 504.582919 287.555697 
L 504.582919 287.555697 
L 503.724973 287.976908 
L 503.724973 293.873859 
L 503.724973 293.873859 
L 502.867027 294.29507 
L 502.867027 300.192022 
L 502.867027 300.192022 
L 502.009081 300.613232 
L 502.009081 306.510184 
L 502.009081 306.510184 
L 501.151135 306.931395 
L 501.151135 312.828346 
L 501.151135 312.828346 
L 500.293189 313.249557 
L 500.293189 319.146508 
L 500.293189 319.146508 
L 499.435243 319.567719 
L 499.435243 325.46467 
L 499.435243 325.46467 
L 498.577297 325.885881 
L 498.577297 331.782832 
L 498.577297 331.782832 
L 497.719351 332.204043 
L 497.719351 338.100995 
L 497.719351 338.100995 
L 496.861405 338.522205 
L 496.861405 344.419157 
L 496.861405 344.419157 
L 496.003459 344.840368 
L 496.003459 350.737319 
L 496.003459 350.737319 
L 495.145514 351.15853 
L 495.145514 357.055481 
L 495.145514 357.055481 
L 494.287568 357.476692 
L 494.287568 363.373643 
L 494.287568 363.373643 
L 493.429622 363.794854 
L 493.429622 369.691805 
L 493.429622 369.691805 
L 492.571676 370.113016 
L 492.571676 376.009968 
L 492.571676 376.009968 
L 491.71373 376.431178 
L 491.71373 382.32813 
L 491.71373 382.32813 
L 490.855784 382.749341 
L 490.855784 388.646292 
L 490.855784 388.646292 
L 489.997838 389.067503 
L 489.997838 394.964454 
L 489.997838 394.964454 
L 489.139892 395.385665 
L 489.139892 401.282616 
L 489.139892 401.282616 
L 488.281946 401.703827 
L 488.281946 407.600778 
L 488.281946 407.600778 
L 487.424 408.021989 
L 487.424 413.918941 
L 487.424 413.918941 
L 486.566054 414.340151 
L 486.566054 420.237103 
L 486.566054 420.237103 
L 485.708108 420.658314 
L 485.708108 426.555265 
L 485.708108 426.555265 
L 484.850162 426.976476 
L 484.850162 432.873427 
L 484.850162 432.873427 
L 483.992216 433.294638 
L 483.992216 439.191589 
L 483.992216 439.191589 
L 483.13427 439.6128 
L 483.13427 445.509751 
L 483.13427 445.509751 
L 482.276324 445.930962 
L 482.276324 451.827914 
L 482.276324 451.827914 
L 481.418378 452.249124 
L 481.418378 458.146076 
L 481.418378 458.146076 
L 480.560432 458.567286 
L 480.560432 464.464238 
L 480.560432 464.464238 
L 479.702486 464.885449 
L 479.702486 470.7824 
L 479.702486 470.7824 
L 478.844541 471.203611 
L 478.844541 477.100562 
L 478.844541 477.100562 
L 477.986595 477.521773 
L 477.986595 483.418724 
L 477.986595 483.418724 
L 477.128649 483.839935 
L 477.128649 486.3672 
L 477.128649 486.3672 
" clip-path="url(#p0134b569e0)" style="fill: none; stroke: #000000; stroke-width: 1.2"/>
    <path d="M 995.328 268.601211 
L 994.470054 268.18 
L 992.754162 268.18 
L 992.754162 268.18 
L 991.896216 267.758789 
L 991.03827 267.758789 
L 991.03827 267.758789 
L 990.180324 267.337578 
L 989.322378 267.337578 
L 989.322378 267.337578 
L 988.464432 266.916368 
L 987.606486 266.916368 
L 987.606486 266.916368 
L 986.748541 266.495157 
L 985.032649 266.495157 
L 985.032649 266.495157 
L 984.174703 266.073946 
L 983.316757 266.073946 
L 983.316757 266.073946 
L 982.458811 265.652735 
L 981.600865 265.652735 
L 981.600865 265.652735 
L 980.742919 265.231524 
L 979.884973 265.231524 
L 979.884973 265.231524 
L 979.027027 264.810314 
L 977.311135 264.810314 
L 977.311135 264.810314 
L 976.453189 264.389103 
L 975.595243 264.389103 
L 975.595243 264.389103 
L 974.737297 263.967892 
L 973.879351 263.967892 
L 973.879351 263.967892 
L 973.021405 263.546681 
L 972.163459 263.546681 
L 972.163459 263.546681 
L 971.305514 263.12547 
L 969.589622 263.12547 
L 969.589622 263.12547 
L 968.731676 262.704259 
L 967.87373 262.704259 
L 967.87373 262.704259 
L 967.015784 262.283049 
L 966.157838 262.283049 
L 966.157838 262.283049 
L 965.299892 261.861838 
L 964.441946 261.861838 
L 964.441946 261.861838 
L 963.584 261.440627 
L 961.868108 261.440627 
L 961.868108 261.440627 
L 961.010162 261.019416 
L 960.152216 261.019416 
L 960.152216 261.019416 
L 959.29427 260.598205 
L 958.436324 260.598205 
L 958.436324 260.598205 
L 957.578378 260.176995 
L 956.720432 260.176995 
L 956.720432 260.176995 
L 955.862486 259.755784 
L 954.146595 259.755784 
L 954.146595 259.755784 
L 953.288649 259.334573 
L 952.430703 259.334573 
L 952.430703 259.334573 
L 951.572757 258.913362 
L 950.714811 258.913362 
L 950.714811 258.913362 
L 949.856865 258.492151 
L 948.140973 258.492151 
L 948.140973 258.492151 
L 947.283027 258.070941 
L 946.425081 258.070941 
L 946.425081 258.070941 
L 945.567135 257.64973 
L 944.709189 257.64973 
L 944.709189 257.64973 
L 943.851243 257.228519 
L 942.993297 257.228519 
L 942.993297 257.228519 
L 942.135351 256.807308 
L 940.419459 256.807308 
L 940.419459 256.807308 
L 939.561514 256.386097 
L 938.703568 256.386097 
L 938.703568 256.386097 
L 937.845622 255.964886 
L 936.987676 255.964886 
L 936.987676 255.964886 
L 936.12973 255.543676 
L 935.271784 255.543676 
L 935.271784 255.543676 
L 934.413838 255.122465 
L 932.697946 255.122465 
L 932.697946 255.122465 
L 931.84 254.701254 
L 930.982054 254.701254 
L 930.982054 254.701254 
L 930.124108 254.280043 
L 929.266162 254.280043 
L 929.266162 254.280043 
L 928.408216 253.858832 
L 927.55027 253.858832 
L 927.55027 253.858832 
L 926.692324 253.437622 
L 924.976432 253.437622 
L 924.976432 253.437622 
L 924.118486 253.016411 
L 923.260541 253.016411 
L 923.260541 253.016411 
L 922.402595 252.5952 
L 921.544649 252.5952 
L 921.544649 252.5952 
L 920.686703 252.173989 
L 919.828757 252.173989 
L 919.828757 252.173989 
L 918.970811 251.752778 
L 917.254919 251.752778 
L 917.254919 251.752778 
L 916.396973 251.331568 
L 915.539027 251.331568 
L 915.539027 251.331568 
L 914.681081 250.910357 
L 913.823135 250.910357 
L 913.823135 250.910357 
L 912.965189 250.489146 
L 911.249297 250.489146 
L 911.249297 250.489146 
L 910.391351 250.067935 
L 909.533405 250.067935 
L 909.533405 250.067935 
L 908.675459 249.646724 
L 907.817514 249.646724 
L 907.817514 249.646724 
L 906.959568 249.225514 
L 906.101622 249.225514 
L 906.101622 249.225514 
L 905.243676 248.804303 
L 903.527784 248.804303 
L 903.527784 248.804303 
L 902.669838 248.383092 
L 901.811892 248.383092 
L 901.811892 248.383092 
L 900.953946 247.961881 
L 900.096 247.961881 
L 900.096 247.961881 
L 899.238054 247.54067 
L 898.380108 247.54067 
L 898.380108 247.54067 
L 897.522162 247.119459 
L 895.80627 247.119459 
L 895.80627 247.119459 
L 894.948324 246.698249 
L 894.090378 246.698249 
L 894.090378 246.698249 
L 893.232432 246.277038 
L 892.374486 246.277038 
L 892.374486 246.277038 
L 891.516541 245.855827 
L 890.658595 245.855827 
L 890.658595 245.855827 
L 889.800649 245.434616 
L 888.084757 245.434616 
L 888.084757 245.434616 
L 887.226811 245.013405 
L 886.368865 245.013405 
L 886.368865 245.013405 
L 885.510919 244.592195 
L 884.652973 244.592195 
L 884.652973 244.592195 
L 883.795027 244.170984 
L 882.937081 244.170984 
L 882.937081 244.170984 
L 882.079135 243.749773 
L 880.363243 243.749773 
L 880.363243 243.749773 
L 879.505297 243.328562 
L 878.647351 243.328562 
L 878.647351 243.328562 
L 877.789405 242.907351 
L 876.931459 242.907351 
L 876.931459 242.907351 
L 876.073514 242.486141 
L 874.357622 242.486141 
L 874.357622 242.486141 
L 873.499676 242.06493 
L 872.64173 242.06493 
L 872.64173 242.06493 
L 871.783784 241.643719 
L 870.925838 241.643719 
L 870.925838 241.643719 
L 870.067892 241.222508 
L 869.209946 241.222508 
L 869.209946 241.222508 
L 868.352 240.801297 
L 866.636108 240.801297 
L 866.636108 240.801297 
L 865.778162 240.380086 
L 864.920216 240.380086 
L 864.920216 240.380086 
L 864.06227 239.958876 
L 863.204324 239.958876 
L 863.204324 239.958876 
L 862.346378 239.537665 
L 861.488432 239.537665 
L 861.488432 239.537665 
L 860.630486 239.116454 
L 858.914595 239.116454 
L 858.914595 239.116454 
L 858.056649 238.695243 
L 857.198703 238.695243 
L 857.198703 238.695243 
L 856.340757 238.274032 
L 855.482811 238.274032 
L 855.482811 238.274032 
L 854.624865 237.852822 
L 853.766919 237.852822 
L 853.766919 237.852822 
L 852.908973 237.431611 
L 851.193081 237.431611 
L 851.193081 237.431611 
L 850.335135 237.0104 
L 849.477189 237.0104 
L 849.477189 237.0104 
L 848.619243 236.589189 
L 847.761297 236.589189 
L 847.761297 236.589189 
L 846.903351 236.167978 
L 846.045405 236.167978 
L 846.045405 236.167978 
L 845.187459 235.746768 
L 843.471568 235.746768 
L 843.471568 235.746768 
L 842.613622 235.325557 
L 841.755676 235.325557 
L 841.755676 235.325557 
L 840.89773 234.904346 
L 840.039784 234.904346 
L 840.039784 234.904346 
L 839.181838 234.483135 
L 838.323892 234.483135 
L 838.323892 234.483135 
L 837.465946 234.061924 
L 835.750054 234.061924 
L 835.750054 234.061924 
L 834.892108 233.640714 
L 834.034162 233.640714 
L 834.034162 233.640714 
L 833.176216 233.219503 
L 832.31827 233.219503 
L 832.31827 233.219503 
L 831.460324 232.798292 
L 829.744432 232.798292 
L 829.744432 232.798292 
L 828.886486 232.377081 
L 828.028541 232.377081 
L 828.028541 232.377081 
L 827.170595 231.95587 
L 826.312649 231.95587 
L 826.312649 231.95587 
L 825.454703 231.534659 
L 824.596757 231.534659 
L 824.596757 231.534659 
L 823.738811 231.113449 
L 822.022919 231.113449 
L 822.022919 231.113449 
L 821.164973 230.692238 
L 820.307027 230.692238 
L 820.307027 230.692238 
L 819.449081 230.271027 
L 818.591135 230.271027 
L 818.591135 230.271027 
L 817.733189 229.849816 
L 816.875243 229.849816 
L 816.875243 229.849816 
L 816.017297 229.428605 
L 814.301405 229.428605 
L 814.301405 229.428605 
L 813.443459 229.007395 
L 812.585514 229.007395 
L 812.585514 229.007395 
L 811.727568 228.586184 
L 810.869622 228.586184 
L 810.869622 228.586184 
L 810.011676 228.164973 
L 809.15373 228.164973 
L 809.15373 228.164973 
L 808.295784 227.743762 
L 806.579892 227.743762 
L 806.579892 227.743762 
L 805.721946 227.322551 
L 804.864 227.322551 
L 804.864 227.322551 
L 804.006054 226.901341 
L 803.148108 226.901341 
L 803.148108 226.901341 
L 802.290162 226.48013 
L 801.432216 226.48013 
L 801.432216 226.48013 
L 800.57427 226.058919 
L 798.858378 226.058919 
L 798.858378 226.058919 
L 798.000432 225.637708 
L 797.142486 225.637708 
L 797.142486 225.637708 
L 796.284541 225.216497 
L 795.426595 225.216497 
L 795.426595 225.216497 
L 794.568649 224.795286 
L 792.852757 224.795286 
L 792.852757 224.795286 
L 791.994811 224.374076 
L 791.136865 224.374076 
L 791.136865 224.374076 
L 790.278919 223.952865 
L 789.420973 223.952865 
L 789.420973 223.952865 
L 788.563027 223.531654 
L 787.705081 223.531654 
L 787.705081 223.531654 
L 786.847135 223.110443 
L 785.131243 223.110443 
L 785.131243 223.110443 
L 784.273297 222.689232 
L 783.415351 222.689232 
L 783.415351 222.689232 
L 782.557405 222.268022 
L 781.699459 222.268022 
L 781.699459 222.268022 
L 780.841514 221.846811 
L 779.983568 221.846811 
L 779.983568 221.846811 
L 779.125622 221.4256 
L 777.40973 221.4256 
L 777.40973 221.4256 
L 776.551784 221.004389 
L 775.693838 221.004389 
L 775.693838 221.004389 
L 774.835892 220.583178 
L 773.977946 220.583178 
L 773.977946 220.583178 
L 773.12 220.161968 
L 772.262054 220.161968 
L 772.262054 220.161968 
L 771.404108 219.740757 
L 769.688216 219.740757 
L 769.688216 219.740757 
L 768.83027 219.319546 
L 767.972324 219.319546 
L 767.972324 219.319546 
L 767.114378 218.898335 
L 766.256432 218.898335 
L 766.256432 218.898335 
L 765.398486 218.477124 
L 764.540541 218.477124 
L 764.540541 218.477124 
L 763.682595 218.055914 
L 761.966703 218.055914 
L 761.966703 218.055914 
L 761.108757 217.634703 
L 760.250811 217.634703 
L 760.250811 217.634703 
L 759.392865 217.213492 
L 758.534919 217.213492 
L 758.534919 217.213492 
L 757.676973 216.792281 
L 755.961081 216.792281 
L 755.961081 216.792281 
L 755.103135 216.37107 
L 754.245189 216.37107 
L 754.245189 216.37107 
L 753.387243 215.949859 
L 752.529297 215.949859 
L 752.529297 215.949859 
L 751.671351 215.528649 
L 750.813405 215.528649 
L 750.813405 215.528649 
L 749.955459 215.107438 
L 748.239568 215.107438 
L 748.239568 215.107438 
L 747.381622 214.686227 
L 746.523676 214.686227 
L 746.523676 214.686227 
L 745.66573 214.265016 
L 744.807784 214.265016 
L 744.807784 214.265016 
L 743.949838 213.843805 
L 743.091892 213.843805 
L 743.091892 213.843805 
L 742.233946 213.422595 
L 740.518054 213.422595 
L 740.518054 213.422595 
L 739.660108 213.001384 
L 738.802162 213.001384 
L 738.802162 213.001384 
L 737.944216 212.580173 
L 737.08627 212.580173 
L 737.08627 212.580173 
L 736.228324 212.158962 
L 735.370378 212.158962 
L 735.370378 212.158962 
L 734.512432 211.737751 
L 732.796541 211.737751 
L 732.796541 211.737751 
L 731.938595 211.316541 
L 731.080649 211.316541 
L 731.080649 211.316541 
L 730.222703 210.89533 
L 729.364757 210.89533 
L 729.364757 210.89533 
L 728.506811 210.474119 
L 727.648865 210.474119 
L 727.648865 210.474119 
L 726.790919 210.052908 
L 725.075027 210.052908 
L 725.075027 210.052908 
L 724.217081 209.631697 
L 723.359135 209.631697 
L 723.359135 209.631697 
L 722.501189 209.210486 
L 721.643243 209.210486 
L 721.643243 209.210486 
L 720.785297 208.789276 
L 719.927351 208.789276 
L 719.927351 208.789276 
L 719.069405 208.368065 
L 717.353514 208.368065 
L 717.353514 208.368065 
L 716.495568 207.946854 
L 715.637622 207.946854 
L 715.637622 207.946854 
L 714.779676 207.525643 
L 713.92173 207.525643 
L 713.92173 207.525643 
L 713.063784 207.104432 
L 711.347892 207.104432 
L 711.347892 207.104432 
L 710.489946 206.683222 
L 709.632 206.683222 
L 709.632 206.683222 
L 708.774054 206.262011 
L 707.916108 206.262011 
L 707.916108 206.262011 
L 707.058162 205.8408 
L 706.200216 205.8408 
L 706.200216 205.8408 
L 705.34227 205.419589 
L 703.626378 205.419589 
L 703.626378 205.419589 
L 702.768432 204.998378 
L 701.910486 204.998378 
L 701.910486 204.998378 
L 701.052541 204.577168 
L 700.194595 204.577168 
L 700.194595 204.577168 
L 699.336649 204.155957 
L 698.478703 204.155957 
L 698.478703 204.155957 
L 697.620757 203.734746 
L 695.904865 203.734746 
L 695.904865 203.734746 
L 695.046919 203.313535 
L 694.188973 203.313535 
L 694.188973 203.313535 
L 693.331027 202.892324 
L 692.473081 202.892324 
L 692.473081 202.892324 
L 691.615135 202.471114 
L 690.757189 202.471114 
L 690.757189 202.471114 
L 689.899243 202.049903 
L 688.183351 202.049903 
L 688.183351 202.049903 
L 687.325405 201.628692 
L 686.467459 201.628692 
L 686.467459 201.628692 
L 685.609514 201.207481 
L 684.751568 201.207481 
L 684.751568 201.207481 
L 683.893622 200.78627 
L 683.035676 200.78627 
L 683.035676 200.78627 
L 682.17773 200.365059 
L 680.461838 200.365059 
L 680.461838 200.365059 
L 679.603892 199.943849 
L 678.745946 199.943849 
L 678.745946 199.943849 
L 677.888 199.522638 
L 677.030054 199.522638 
L 677.030054 199.522638 
L 676.172108 199.101427 
L 674.456216 199.101427 
L 674.456216 199.101427 
L 673.59827 198.680216 
L 672.740324 198.680216 
L 672.740324 198.680216 
L 671.882378 198.259005 
L 671.024432 198.259005 
L 671.024432 198.259005 
L 670.166486 197.837795 
L 669.308541 197.837795 
L 669.308541 197.837795 
L 668.450595 197.416584 
L 666.734703 197.416584 
L 666.734703 197.416584 
L 665.876757 196.995373 
L 665.018811 196.995373 
L 665.018811 196.995373 
L 664.160865 196.574162 
L 663.302919 196.574162 
L 663.302919 196.574162 
L 662.444973 196.152951 
L 661.587027 196.152951 
L 661.587027 196.152951 
L 660.729081 195.731741 
L 659.013189 195.731741 
L 659.013189 195.731741 
L 658.155243 195.31053 
L 657.297297 195.31053 
L 657.297297 195.31053 
L 656.439351 194.889319 
L 655.581405 194.889319 
L 655.581405 194.889319 
L 654.723459 194.468108 
L 653.865514 194.468108 
L 653.865514 194.468108 
L 653.007568 194.046897 
L 651.291676 194.046897 
L 651.291676 194.046897 
L 650.43373 193.625686 
L 649.575784 193.625686 
L 649.575784 193.625686 
L 648.717838 193.204476 
L 647.859892 193.204476 
L 647.859892 193.204476 
L 647.001946 192.783265 
L 646.144 192.783265 
L 646.144 192.783265 
L 645.286054 192.362054 
L 643.570162 192.362054 
L 643.570162 192.362054 
L 642.712216 191.940843 
L 641.85427 191.940843 
L 641.85427 191.940843 
L 640.996324 191.519632 
L 640.138378 191.519632 
L 640.138378 191.519632 
L 639.280432 191.098422 
L 637.564541 191.098422 
L 637.564541 191.098422 
L 636.706595 190.677211 
L 635.848649 190.677211 
L 635.848649 190.677211 
L 634.990703 190.256 
L 634.132757 190.256 
L 634.132757 190.256 
L 633.274811 189.834789 
L 632.416865 189.834789 
L 632.416865 189.834789 
L 631.558919 189.413578 
L 629.843027 189.413578 
L 629.843027 189.413578 
L 628.985081 188.992368 
L 628.127135 188.992368 
L 628.127135 188.992368 
L 627.269189 188.571157 
L 626.411243 188.571157 
L 626.411243 188.571157 
L 625.553297 188.149946 
L 624.695351 188.149946 
L 624.695351 188.149946 
L 623.837405 187.728735 
L 622.121514 187.728735 
L 622.121514 187.728735 
L 621.263568 187.307524 
L 620.405622 187.307524 
L 620.405622 187.307524 
L 619.547676 186.886314 
L 618.68973 186.886314 
L 618.68973 186.886314 
L 617.831784 186.465103 
L 616.973838 186.465103 
L 616.973838 186.465103 
L 616.115892 186.043892 
L 614.4 186.043892 
L 614.4 186.043892 
L 613.542054 185.622681 
L 612.684108 185.622681 
L 612.684108 185.622681 
L 611.826162 185.20147 
L 610.968216 185.20147 
L 610.968216 185.20147 
L 610.11027 184.780259 
L 609.252324 184.780259 
L 609.252324 184.780259 
L 608.394378 184.359049 
L 606.678486 184.359049 
L 606.678486 184.359049 
L 605.820541 183.937838 
L 604.962595 183.937838 
L 604.962595 183.937838 
L 604.104649 183.516627 
L 603.246703 183.516627 
L 603.246703 183.516627 
L 602.388757 183.095416 
L 600.672865 183.095416 
L 600.672865 183.095416 
L 599.814919 182.674205 
L 598.956973 182.674205 
L 598.956973 182.674205 
L 598.099027 182.252995 
L 597.241081 182.252995 
L 597.241081 182.252995 
L 596.383135 181.831784 
L 595.525189 181.831784 
L 595.525189 181.831784 
L 594.667243 181.410573 
L 592.951351 181.410573 
L 592.951351 181.410573 
L 592.093405 180.989362 
L 591.235459 180.989362 
L 591.235459 180.989362 
L 590.377514 180.568151 
L 589.519568 180.568151 
L 589.519568 180.568151 
L 588.661622 180.146941 
L 587.803676 180.146941 
L 587.803676 180.146941 
L 586.94573 179.72573 
L 585.229838 179.72573 
L 585.229838 179.72573 
L 584.371892 179.304519 
L 583.513946 179.304519 
L 583.513946 179.304519 
L 582.656 178.883308 
L 581.798054 178.883308 
L 581.798054 178.883308 
L 580.940108 178.462097 
L 580.082162 178.462097 
L 580.082162 178.462097 
L 579.224216 178.040886 
L 577.508324 178.040886 
L 577.508324 178.040886 
L 576.650378 177.619676 
L 575.792432 177.619676 
L 575.792432 177.619676 
L 574.934486 177.198465 
L 574.076541 177.198465 
L 574.076541 177.198465 
L 573.218595 176.777254 
L 572.360649 176.777254 
L 572.360649 176.777254 
L 571.502703 176.356043 
L 569.786811 176.356043 
L 569.786811 176.356043 
L 568.928865 175.934832 
L 568.070919 175.934832 
L 568.070919 175.934832 
L 567.212973 175.513622 
L 566.355027 175.513622 
L 566.355027 175.513622 
L 565.497081 175.092411 
L 564.639135 175.092411 
L 564.639135 175.092411 
L 563.781189 174.6712 
L 562.065297 174.6712 
L 562.065297 174.6712 
L 561.207351 174.249989 
L 560.349405 174.249989 
L 560.349405 174.249989 
L 559.491459 173.828778 
L 558.633514 173.828778 
L 558.633514 173.828778 
L 557.775568 173.407568 
L 556.059676 173.407568 
L 556.059676 173.407568 
L 555.20173 172.986357 
L 554.343784 172.986357 
L 554.343784 172.986357 
L 553.485838 172.565146 
L 552.627892 172.565146 
L 552.627892 172.565146 
L 551.769946 172.143935 
L 550.912 172.143935 
L 550.912 172.143935 
L 550.054054 171.722724 
L 548.338162 171.722724 
L 548.338162 171.722724 
L 547.480216 171.301514 
L 546.62227 171.301514 
L 546.62227 171.301514 
L 545.764324 170.880303 
L 544.906378 170.880303 
L 544.906378 170.880303 
L 544.048432 170.459092 
L 543.190486 170.459092 
L 543.190486 170.459092 
L 542.332541 170.037881 
L 540.616649 170.037881 
L 540.616649 170.037881 
L 539.758703 169.61667 
L 538.900757 169.61667 
L 538.900757 169.61667 
L 538.042811 169.195459 
L 537.184865 169.195459 
L 537.184865 169.195459 
L 536.326919 168.774249 
L 535.468973 168.774249 
L 535.468973 168.774249 
L 534.611027 168.353038 
L 532.895135 168.353038 
L 532.895135 168.353038 
L 532.037189 167.931827 
L 531.179243 167.931827 
L 531.179243 167.931827 
L 530.321297 167.510616 
L 529.463351 167.510616 
L 529.463351 167.510616 
L 528.605405 167.089405 
L 527.747459 167.089405 
L 527.747459 167.089405 
L 526.889514 166.668195 
L 526.031568 166.8788 
L 525.173622 166.8788 
L 524.315676 166.457589 
L 523.45773 166.457589 
L 522.599784 166.036378 
L 521.741838 166.036378 
L 521.312865 166.246984 
L 521.312865 167.089405 
L 520.454919 167.510616 
L 520.454919 173.407568 
L 519.596973 173.828778 
L 519.596973 179.72573 
L 518.739027 180.146941 
L 518.739027 186.043892 
L 517.881081 186.465103 
L 517.881081 192.362054 
L 517.023135 192.783265 
L 517.023135 198.680216 
L 516.165189 199.101427 
L 516.165189 204.998378 
L 515.307243 205.419589 
L 515.307243 211.316541 
L 514.449297 211.737751 
L 514.449297 217.634703 
L 513.591351 218.055914 
L 513.591351 223.952865 
L 512.733405 224.374076 
L 512.733405 230.271027 
L 511.875459 230.692238 
L 511.875459 236.589189 
L 511.017514 237.0104 
L 511.017514 242.907351 
L 510.159568 243.328562 
L 510.159568 249.225514 
L 509.301622 249.646724 
L 509.301622 255.543676 
L 508.443676 255.964886 
L 508.443676 261.861838 
L 507.58573 262.283049 
L 507.58573 268.18 
L 506.727784 268.601211 
L 506.727784 274.498162 
L 505.869838 274.919373 
L 505.869838 280.816324 
L 505.011892 281.237535 
L 505.011892 287.555697 
L 504.153946 287.976908 
L 504.153946 293.873859 
L 503.296 294.29507 
L 503.296 300.192022 
L 502.438054 300.613232 
L 502.438054 306.510184 
L 501.580108 306.931395 
L 501.580108 312.828346 
L 500.722162 313.249557 
L 500.722162 319.146508 
L 499.864216 319.567719 
L 499.864216 325.46467 
L 499.00627 325.885881 
L 499.00627 331.782832 
L 498.148324 332.204043 
L 498.148324 338.100995 
L 497.290378 338.522205 
L 497.290378 344.419157 
L 496.432432 344.840368 
L 496.432432 350.737319 
L 495.574486 351.15853 
L 495.574486 357.055481 
L 494.716541 357.476692 
L 494.716541 363.373643 
L 493.858595 363.794854 
L 493.858595 369.691805 
L 493.000649 370.113016 
L 493.000649 376.009968 
L 492.142703 376.431178 
L 492.142703 382.32813 
L 491.284757 382.749341 
L 491.284757 388.646292 
L 490.426811 389.067503 
L 490.426811 394.964454 
L 489.568865 395.385665 
L 489.568865 401.282616 
L 488.710919 401.703827 
L 488.710919 407.600778 
L 487.852973 408.021989 
L 487.852973 413.918941 
L 486.995027 414.340151 
L 486.995027 420.237103 
L 486.137081 420.658314 
L 486.137081 426.555265 
L 485.279135 426.976476 
L 485.279135 432.873427 
L 484.421189 433.294638 
L 484.421189 439.191589 
L 483.563243 439.6128 
L 483.563243 445.509751 
L 482.705297 445.930962 
L 482.705297 451.827914 
L 481.847351 452.249124 
L 481.847351 458.146076 
L 480.989405 458.567286 
L 480.989405 464.464238 
L 480.131459 464.885449 
L 480.131459 470.7824 
L 479.273514 471.203611 
L 479.273514 477.100562 
L 478.415568 477.521773 
L 478.415568 483.418724 
L 477.557622 483.839935 
L 477.557622 486.3672 
L 477.557622 486.3672 
" clip-path="url(#p0134b569e0)" style="fill: none; stroke: #000000; stroke-width: 1.2"/>
   </g>
   <g id="patch_3">
    <path d="M 138.24 486.3672 
L 138.24 65.5776 
" style="fill: none; stroke: #ffffff; stroke-linejoin: miter; stroke-linecap: square"/>
   </g>
   <g id="patch_4">
    <path d="M 995.328 486.3672 
L 995.328 65.5776 
" style="fill: none; stroke: #ffffff; stroke-linejoin: miter; stroke-linecap: square"/>
   </g>
   <g id="patch_5">
    <path d="M 138.24 486.3672 
L 995.328 486.3672 
" style="fill: none; stroke: #ffffff; stroke-linejoin: miter; stroke-linecap: square"/>
   </g>
   <g id="patch_6">
    <path d="M 138.24 65.5776 
L 995.328 65.5776 
" style="fill: none; stroke: #ffffff; stroke-linejoin: miter; stroke-linecap: square"/>
   </g>
   <g id="legend_1">
    <g id="patch_7">
     <path d="M 924.7302 169.8129 
L 984.24 169.8129 
Q 987.408 169.8129 987.408 166.6449 
L 987.408 76.6656 
Q 987.408 73.4976 984.24 73.4976 
L 924.7302 73.4976 
Q 921.5622 73.4976 921.5622 76.6656 
L 921.5622 166.6449 
Q 921.5622 169.8129 924.7302 169.8129 
z
" style="fill: #eaeaf2; opacity: 0.8; stroke: #cccccc; stroke-width: 0.8; stroke-linejoin: miter"/>
    </g>
    <g id="text_18">
     <!-- Classes -->
     <g style="fill: #262626" transform="translate(927.8982 91.4274) scale(0.1728 -0.1728)">
      <defs>
       <path id="DengXian-43" d="M 2200 -313 
Q 1347 -313 864 298 
Q 381 909 381 1972 
Q 381 3034 875 3626 
Q 1369 4219 2244 4219 
Q 2803 4219 3186 3994 
Q 3569 3769 3784 3275 
L 3397 3113 
Q 3238 3513 2948 3688 
Q 2659 3863 2244 3863 
Q 1556 3863 1182 3359 
Q 809 2856 809 1972 
Q 809 1072 1182 556 
Q 1556 41 2219 41 
Q 2684 41 2984 266 
Q 3284 491 3431 878 
L 3797 709 
Q 3359 -313 2200 -313 
z
" transform="scale(0.015625)"/>
       <path id="DengXian-6c" d="M 516 -250 
L 516 4294 
L 913 4294 
L 913 -250 
L 516 -250 
z
" transform="scale(0.015625)"/>
       <path id="DengXian-73" d="M 2409 628 
Q 2409 178 2114 -67 
Q 1819 -313 1284 -313 
Q 784 -313 500 -136 
Q 216 41 116 453 
L 481 519 
Q 547 259 733 128 
Q 919 -3 1281 -3 
Q 2019 -3 2019 594 
Q 2019 763 1951 869 
Q 1884 975 1767 1042 
Q 1650 1109 1489 1154 
Q 1328 1200 1141 1250 
Q 797 1334 623 1442 
Q 450 1550 356 1712 
Q 263 1875 263 2109 
Q 263 2531 522 2762 
Q 781 2994 1284 2994 
Q 1741 2994 1992 2825 
Q 2244 2656 2331 2291 
L 1956 2247 
Q 1903 2481 1742 2582 
Q 1581 2684 1284 2684 
Q 963 2684 805 2545 
Q 647 2406 647 2153 
Q 647 1991 708 1894 
Q 769 1797 889 1730 
Q 1009 1663 1441 1547 
Q 1863 1431 2038 1320 
Q 2213 1209 2311 1045 
Q 2409 881 2409 628 
z
" transform="scale(0.015625)"/>
       <path id="DengXian-65" d="M 725 1278 
Q 725 681 989 348 
Q 1253 16 1725 16 
Q 2041 16 2267 145 
Q 2494 275 2659 581 
L 2975 409 
Q 2756 19 2450 -147 
Q 2144 -313 1716 -313 
Q 1038 -313 675 118 
Q 313 550 313 1366 
Q 313 1888 484 2253 
Q 656 2619 970 2806 
Q 1284 2994 1703 2994 
Q 2353 2994 2697 2578 
Q 3041 2163 3041 1384 
L 3041 1278 
L 725 1278 
z
M 1688 2666 
Q 1250 2666 1003 2392 
Q 756 2119 731 1588 
L 2625 1588 
Q 2569 2666 1688 2666 
z
" transform="scale(0.015625)"/>
      </defs>
      <use xlink:href="#DengXian-43"/>
      <use xlink:href="#DengXian-6c" transform="translate(62.011719 0)"/>
      <use xlink:href="#DengXian-61" transform="translate(84.375 0)"/>
      <use xlink:href="#DengXian-73" transform="translate(134.472656 0)"/>
      <use xlink:href="#DengXian-73" transform="translate(175.097656 0)"/>
      <use xlink:href="#DengXian-65" transform="translate(215.722656 0)"/>
      <use xlink:href="#DengXian-73" transform="translate(267.089844 0)"/>
     </g>
    </g>
    <g id="line2d_16">
     <defs>
      <path id="m4843c1e347" d="M 0 2.4 
C 0.636487 2.4 1.246992 2.147121 1.697056 1.697056 
C 2.147121 1.246992 2.4 0.636487 2.4 0 
C 2.4 -0.636487 2.147121 -1.246992 1.697056 -1.697056 
C 1.246992 -2.147121 0.636487 -2.4 0 -2.4 
C -0.636487 -2.4 -1.246992 -2.147121 -1.697056 -1.697056 
C -2.147121 -1.246992 -2.4 -0.636487 -2.4 0 
C -2.4 0.636487 -2.147121 1.246992 -1.697056 1.697056 
C -1.246992 2.147121 -0.636487 2.4 0 2.4 
z
" style="stroke: #440154; stroke-width: 0.8"/>
     </defs>
     <g>
      <use xlink:href="#m4843c1e347" x="943.9515" y="108.8982" style="fill: #440154; stroke: #440154; stroke-width: 0.8"/>
     </g>
    </g>
    <g id="text_19">
     <!-- $\mathdefault{1}$ -->
     <g style="fill: #262626" transform="translate(972.4635 114.4422) scale(0.1584 -0.1584)">
      <use xlink:href="#DengXian-31" transform="translate(0 0.109375)"/>
     </g>
    </g>
    <g id="line2d_17">
     <defs>
      <path id="m14b144f7d2" d="M 0 2.4 
C 0.636487 2.4 1.246992 2.147121 1.697056 1.697056 
C 2.147121 1.246992 2.4 0.636487 2.4 0 
C 2.4 -0.636487 2.147121 -1.246992 1.697056 -1.697056 
C 1.246992 -2.147121 0.636487 -2.4 0 -2.4 
C -0.636487 -2.4 -1.246992 -2.147121 -1.697056 -1.697056 
C -2.147121 -1.246992 -2.4 -0.636487 -2.4 0 
C -2.4 0.636487 -2.147121 1.246992 -1.697056 1.697056 
C -1.246992 2.147121 -0.636487 2.4 0 2.4 
z
" style="stroke: #21918c; stroke-width: 0.8"/>
     </defs>
     <g>
      <use xlink:href="#m14b144f7d2" x="943.9515" y="131.5791" style="fill: #21918c; stroke: #21918c; stroke-width: 0.8"/>
     </g>
    </g>
    <g id="text_20">
     <!-- $\mathdefault{2}$ -->
     <g style="fill: #262626" transform="translate(972.4635 137.1231) scale(0.1584 -0.1584)">
      <use xlink:href="#DengXian-32" transform="translate(0 0.078125)"/>
     </g>
    </g>
    <g id="line2d_18">
     <defs>
      <path id="mc2cf587769" d="M 0 2.4 
C 0.636487 2.4 1.246992 2.147121 1.697056 1.697056 
C 2.147121 1.246992 2.4 0.636487 2.4 0 
C 2.4 -0.636487 2.147121 -1.246992 1.697056 -1.697056 
C 1.246992 -2.147121 0.636487 -2.4 0 -2.4 
C -0.636487 -2.4 -1.246992 -2.147121 -1.697056 -1.697056 
C -2.147121 -1.246992 -2.4 -0.636487 -2.4 0 
C -2.4 0.636487 -2.147121 1.246992 -1.697056 1.697056 
C -1.246992 2.147121 -0.636487 2.4 0 2.4 
z
" style="stroke: #fde725; stroke-width: 0.8"/>
     </defs>
     <g>
      <use xlink:href="#mc2cf587769" x="943.9515" y="154.26" style="fill: #fde725; stroke: #fde725; stroke-width: 0.8"/>
     </g>
    </g>
    <g id="text_21">
     <!-- $\mathdefault{3}$ -->
     <g style="fill: #262626" transform="translate(972.4635 159.804) scale(0.1584 -0.1584)">
      <use xlink:href="#DengXian-33" transform="translate(0 0.078125)"/>
     </g>
    </g>
   </g>
  </g>
 </g>
 <defs>
  <clipPath id="p0134b569e0">
   <rect x="138.24" y="65.5776" width="857.088" height="420.7896"/>
  </clipPath>
 </defs>
</svg>
