<?xml version="1.0" encoding="utf-8" standalone="no"?>
<!DOCTYPE svg PUBLIC "-//W3C//DTD SVG 1.1//EN"
  "http://www.w3.org/Graphics/SVG/1.1/DTD/svg11.dtd">
<svg xmlns:xlink="http://www.w3.org/1999/xlink" width="1105.92pt" height="546.48pt" viewBox="0 0 1105.92 546.48" xmlns="http://www.w3.org/2000/svg" version="1.1">
 <metadata>
  <rdf:RDF xmlns:dc="http://purl.org/dc/elements/1.1/" xmlns:cc="http://creativecommons.org/ns#" xmlns:rdf="http://www.w3.org/1999/02/22-rdf-syntax-ns#">
   <cc:Work>
    <dc:type rdf:resource="http://purl.org/dc/dcmitype/StillImage"/>
    <dc:date>2025-03-11T20:29:01.444474</dc:date>
    <dc:format>image/svg+xml</dc:format>
    <dc:creator>
     <cc:Agent>
      <dc:title>Matplotlib v3.10.1, https://matplotlib.org/</dc:title>
     </cc:Agent>
    </dc:creator>
   </cc:Work>
  </rdf:RDF>
 </metadata>
 <defs>
  <style type="text/css">*{stroke-linejoin: round; stroke-linecap: butt}</style>
 </defs>
 <g id="figure_1">
  <g id="patch_1">
   <path d="M 0 546.48 
L 1105.92 546.48 
L 1105.92 0 
L 0 0 
z
" style="fill: #ffffff"/>
  </g>
  <g id="axes_1">
   <g id="patch_2">
    <path d="M 138.24 486.3672 
L 995.328 486.3672 
L 995.328 65.5776 
L 138.24 65.5776 
z
" style="fill: #ffffff"/>
   </g>
   <g id="matplotlib.axis_1">
    <g id="xtick_1">
     <g id="line2d_1">
      <defs>
       <path id="mb18b7cb2cb" d="M 0 0 
L 0 3.5 
" style="stroke: #000000; stroke-width: 0.8"/>
      </defs>
      <g>
       <use xlink:href="#mb18b7cb2cb" x="177.198545" y="486.3672" style="stroke: #000000; stroke-width: 0.8"/>
      </g>
     </g>
     <g id="text_1">
      <!-- 2023-04-23 -->
      <g transform="translate(145.908545 501.41845) scale(0.12 -0.12)">
       <defs>
        <path id="DengXian-32" d="M 347 -250 
L 347 31 
Q 491 394 764 751 
Q 1038 1109 1566 1569 
Q 2109 2038 2326 2359 
Q 2544 2681 2544 3034 
Q 2544 3441 2316 3661 
Q 2088 3881 1681 3881 
Q 1313 3881 1077 3664 
Q 841 3447 800 3069 
L 400 3119 
Q 447 3613 795 3916 
Q 1144 4219 1684 4219 
Q 2281 4219 2615 3912 
Q 2950 3606 2950 3059 
Q 2950 2778 2850 2531 
Q 2750 2284 2550 2039 
Q 2350 1794 1869 1366 
Q 1025 616 803 103 
L 3016 103 
L 3016 -250 
L 347 -250 
z
" transform="scale(0.015625)"/>
        <path id="DengXian-30" d="M 3106 1953 
Q 3106 850 2750 268 
Q 2394 -313 1697 -313 
Q 1006 -313 654 256 
Q 303 825 303 1953 
Q 303 3100 645 3659 
Q 988 4219 1719 4219 
Q 2422 4219 2764 3656 
Q 3106 3094 3106 1953 
z
M 2706 1953 
Q 2706 2963 2473 3425 
Q 2241 3888 1716 3888 
Q 1172 3888 936 3423 
Q 700 2959 700 1953 
Q 700 969 944 495 
Q 1188 22 1703 22 
Q 2216 22 2461 508 
Q 2706 994 2706 1953 
z
" transform="scale(0.015625)"/>
        <path id="DengXian-33" d="M 3019 963 
Q 3019 356 2662 21 
Q 2306 -313 1656 -313 
Q 409 -313 266 828 
L 669 872 
Q 778 25 1656 25 
Q 2122 25 2367 262 
Q 2613 500 2613 963 
Q 2613 1375 2320 1590 
Q 2028 1806 1500 1806 
L 1200 1806 
L 1200 2172 
L 1491 2172 
Q 1784 2172 2011 2269 
Q 2238 2366 2369 2555 
Q 2500 2744 2500 3022 
Q 2500 3434 2283 3659 
Q 2066 3884 1644 3884 
Q 1266 3884 1027 3689 
Q 788 3494 747 3091 
L 353 3125 
Q 413 3647 755 3933 
Q 1097 4219 1647 4219 
Q 2244 4219 2573 3914 
Q 2903 3609 2903 3056 
Q 2903 2653 2672 2376 
Q 2441 2100 2022 2009 
L 2022 1997 
Q 2491 1938 2755 1658 
Q 3019 1378 3019 963 
z
" transform="scale(0.015625)"/>
        <path id="DengXian-2d" d="M 694 1166 
L 694 1522 
L 2506 1522 
L 2506 1166 
L 694 1166 
z
" transform="scale(0.015625)"/>
        <path id="DengXian-34" d="M 2516 803 
L 2516 -250 
L 2125 -250 
L 2125 803 
L 141 803 
L 141 1116 
L 2088 4153 
L 2516 4153 
L 2516 1131 
L 3113 1131 
L 3113 803 
L 2516 803 
z
M 2125 3628 
L 538 1131 
L 2125 1131 
L 2125 3628 
z
" transform="scale(0.015625)"/>
       </defs>
       <use xlink:href="#DengXian-32"/>
       <use xlink:href="#DengXian-30" transform="translate(52.685547 0)"/>
       <use xlink:href="#DengXian-32" transform="translate(105.371094 0)"/>
       <use xlink:href="#DengXian-33" transform="translate(158.056641 0)"/>
       <use xlink:href="#DengXian-2d" transform="translate(210.742188 0)"/>
       <use xlink:href="#DengXian-30" transform="translate(260.742188 0)"/>
       <use xlink:href="#DengXian-34" transform="translate(313.427734 0)"/>
       <use xlink:href="#DengXian-2d" transform="translate(366.113281 0)"/>
       <use xlink:href="#DengXian-32" transform="translate(416.113281 0)"/>
       <use xlink:href="#DengXian-33" transform="translate(468.798828 0)"/>
      </g>
     </g>
    </g>
    <g id="xtick_2">
     <g id="line2d_2">
      <g>
       <use xlink:href="#mb18b7cb2cb" x="371.991273" y="486.3672" style="stroke: #000000; stroke-width: 0.8"/>
      </g>
     </g>
     <g id="text_2">
      <!-- 2023-04-24 -->
      <g transform="translate(340.701273 501.41845) scale(0.12 -0.12)">
       <use xlink:href="#DengXian-32"/>
       <use xlink:href="#DengXian-30" transform="translate(52.685547 0)"/>
       <use xlink:href="#DengXian-32" transform="translate(105.371094 0)"/>
       <use xlink:href="#DengXian-33" transform="translate(158.056641 0)"/>
       <use xlink:href="#DengXian-2d" transform="translate(210.742188 0)"/>
       <use xlink:href="#DengXian-30" transform="translate(260.742188 0)"/>
       <use xlink:href="#DengXian-34" transform="translate(313.427734 0)"/>
       <use xlink:href="#DengXian-2d" transform="translate(366.113281 0)"/>
       <use xlink:href="#DengXian-32" transform="translate(416.113281 0)"/>
       <use xlink:href="#DengXian-34" transform="translate(468.798828 0)"/>
      </g>
     </g>
    </g>
    <g id="xtick_3">
     <g id="line2d_3">
      <g>
       <use xlink:href="#mb18b7cb2cb" x="566.784" y="486.3672" style="stroke: #000000; stroke-width: 0.8"/>
      </g>
     </g>
     <g id="text_3">
      <!-- 2023-04-25 -->
      <g transform="translate(535.494 501.41845) scale(0.12 -0.12)">
       <defs>
        <path id="DengXian-35" d="M 3047 1169 
Q 3047 469 2676 78 
Q 2306 -313 1641 -313 
Q 575 -313 366 672 
L 763 734 
Q 859 350 1075 186 
Q 1291 22 1669 22 
Q 2134 22 2387 315 
Q 2641 609 2641 1153 
Q 2641 1619 2392 1895 
Q 2144 2172 1713 2172 
Q 1459 2172 1265 2095 
Q 1072 2019 875 1844 
L 503 1844 
L 641 4153 
L 2828 4153 
L 2828 3816 
L 997 3816 
L 894 2222 
Q 1113 2381 1323 2442 
Q 1534 2503 1775 2503 
Q 2359 2503 2703 2142 
Q 3047 1781 3047 1169 
z
" transform="scale(0.015625)"/>
       </defs>
       <use xlink:href="#DengXian-32"/>
       <use xlink:href="#DengXian-30" transform="translate(52.685547 0)"/>
       <use xlink:href="#DengXian-32" transform="translate(105.371094 0)"/>
       <use xlink:href="#DengXian-33" transform="translate(158.056641 0)"/>
       <use xlink:href="#DengXian-2d" transform="translate(210.742188 0)"/>
       <use xlink:href="#DengXian-30" transform="translate(260.742188 0)"/>
       <use xlink:href="#DengXian-34" transform="translate(313.427734 0)"/>
       <use xlink:href="#DengXian-2d" transform="translate(366.113281 0)"/>
       <use xlink:href="#DengXian-32" transform="translate(416.113281 0)"/>
       <use xlink:href="#DengXian-35" transform="translate(468.798828 0)"/>
      </g>
     </g>
    </g>
    <g id="xtick_4">
     <g id="line2d_4">
      <g>
       <use xlink:href="#mb18b7cb2cb" x="761.576727" y="486.3672" style="stroke: #000000; stroke-width: 0.8"/>
      </g>
     </g>
     <g id="text_4">
      <!-- 2023-04-26 -->
      <g transform="translate(730.286727 501.41845) scale(0.12 -0.12)">
       <defs>
        <path id="DengXian-36" d="M 3047 1191 
Q 3047 491 2697 89 
Q 2347 -313 1747 -313 
Q 1075 -313 720 234 
Q 366 781 366 1850 
Q 366 3031 739 3625 
Q 1113 4219 1841 4219 
Q 2284 4219 2553 4026 
Q 2822 3834 2944 3428 
L 2566 3344 
Q 2400 3888 1816 3888 
Q 1303 3888 1033 3402 
Q 763 2916 756 1969 
Q 913 2263 1183 2417 
Q 1453 2572 1800 2572 
Q 2372 2572 2709 2201 
Q 3047 1831 3047 1191 
z
M 2647 1166 
Q 2647 1675 2405 1964 
Q 2163 2253 1716 2253 
Q 1466 2253 1256 2137 
Q 1047 2022 926 1806 
Q 806 1591 806 1306 
Q 806 747 1064 383 
Q 1322 19 1738 19 
Q 2166 19 2406 325 
Q 2647 631 2647 1166 
z
" transform="scale(0.015625)"/>
       </defs>
       <use xlink:href="#DengXian-32"/>
       <use xlink:href="#DengXian-30" transform="translate(52.685547 0)"/>
       <use xlink:href="#DengXian-32" transform="translate(105.371094 0)"/>
       <use xlink:href="#DengXian-33" transform="translate(158.056641 0)"/>
       <use xlink:href="#DengXian-2d" transform="translate(210.742188 0)"/>
       <use xlink:href="#DengXian-30" transform="translate(260.742188 0)"/>
       <use xlink:href="#DengXian-34" transform="translate(313.427734 0)"/>
       <use xlink:href="#DengXian-2d" transform="translate(366.113281 0)"/>
       <use xlink:href="#DengXian-32" transform="translate(416.113281 0)"/>
       <use xlink:href="#DengXian-36" transform="translate(468.798828 0)"/>
      </g>
     </g>
    </g>
    <g id="xtick_5">
     <g id="line2d_5">
      <g>
       <use xlink:href="#mb18b7cb2cb" x="956.369455" y="486.3672" style="stroke: #000000; stroke-width: 0.8"/>
      </g>
     </g>
     <g id="text_5">
      <!-- 2023-04-27 -->
      <g transform="translate(925.079455 501.41845) scale(0.12 -0.12)">
       <defs>
        <path id="DengXian-37" d="M 3031 3809 
Q 2278 2631 1928 1634 
Q 1578 638 1578 -250 
L 1172 -250 
Q 1172 625 1545 1651 
Q 1919 2678 2638 3797 
L 331 3797 
L 331 4153 
L 3031 4153 
L 3031 3809 
z
" transform="scale(0.015625)"/>
       </defs>
       <use xlink:href="#DengXian-32"/>
       <use xlink:href="#DengXian-30" transform="translate(52.685547 0)"/>
       <use xlink:href="#DengXian-32" transform="translate(105.371094 0)"/>
       <use xlink:href="#DengXian-33" transform="translate(158.056641 0)"/>
       <use xlink:href="#DengXian-2d" transform="translate(210.742188 0)"/>
       <use xlink:href="#DengXian-30" transform="translate(260.742188 0)"/>
       <use xlink:href="#DengXian-34" transform="translate(313.427734 0)"/>
       <use xlink:href="#DengXian-2d" transform="translate(366.113281 0)"/>
       <use xlink:href="#DengXian-32" transform="translate(416.113281 0)"/>
       <use xlink:href="#DengXian-37" transform="translate(468.798828 0)"/>
      </g>
     </g>
    </g>
   </g>
   <g id="matplotlib.axis_2">
    <g id="ytick_1">
     <g id="line2d_6">
      <defs>
       <path id="m1fab3c9636" d="M 0 0 
L -3.5 0 
" style="stroke: #000000; stroke-width: 0.8"/>
      </defs>
      <g>
       <use xlink:href="#m1fab3c9636" x="138.24" y="468.424239" style="stroke: #000000; stroke-width: 0.8"/>
      </g>
     </g>
     <g id="text_6">
      <!-- 1000 -->
      <g transform="translate(105.95 472.449864) scale(0.12 -0.12)">
       <defs>
        <path id="DengXian-31" d="M 484 -250 
L 484 84 
L 1609 84 
L 1609 3744 
L 603 3075 
L 603 3434 
L 1653 4153 
L 2000 4153 
L 2000 84 
L 2959 84 
L 2959 -250 
L 484 -250 
z
" transform="scale(0.015625)"/>
       </defs>
       <use xlink:href="#DengXian-31"/>
       <use xlink:href="#DengXian-30" transform="translate(52.685547 0)"/>
       <use xlink:href="#DengXian-30" transform="translate(105.371094 0)"/>
       <use xlink:href="#DengXian-30" transform="translate(158.056641 0)"/>
      </g>
     </g>
    </g>
    <g id="ytick_2">
     <g id="line2d_7">
      <g>
       <use xlink:href="#m1fab3c9636" x="138.24" y="420.509248" style="stroke: #000000; stroke-width: 0.8"/>
      </g>
     </g>
     <g id="text_7">
      <!-- 1050 -->
      <g transform="translate(105.95 424.534873) scale(0.12 -0.12)">
       <use xlink:href="#DengXian-31"/>
       <use xlink:href="#DengXian-30" transform="translate(52.685547 0)"/>
       <use xlink:href="#DengXian-35" transform="translate(105.371094 0)"/>
       <use xlink:href="#DengXian-30" transform="translate(158.056641 0)"/>
      </g>
     </g>
    </g>
    <g id="ytick_3">
     <g id="line2d_8">
      <g>
       <use xlink:href="#m1fab3c9636" x="138.24" y="372.594257" style="stroke: #000000; stroke-width: 0.8"/>
      </g>
     </g>
     <g id="text_8">
      <!-- 1100 -->
      <g transform="translate(105.95 376.619882) scale(0.12 -0.12)">
       <use xlink:href="#DengXian-31"/>
       <use xlink:href="#DengXian-31" transform="translate(52.685547 0)"/>
       <use xlink:href="#DengXian-30" transform="translate(105.371094 0)"/>
       <use xlink:href="#DengXian-30" transform="translate(158.056641 0)"/>
      </g>
     </g>
    </g>
    <g id="ytick_4">
     <g id="line2d_9">
      <g>
       <use xlink:href="#m1fab3c9636" x="138.24" y="324.679266" style="stroke: #000000; stroke-width: 0.8"/>
      </g>
     </g>
     <g id="text_9">
      <!-- 1150 -->
      <g transform="translate(105.95 328.704891) scale(0.12 -0.12)">
       <use xlink:href="#DengXian-31"/>
       <use xlink:href="#DengXian-31" transform="translate(52.685547 0)"/>
       <use xlink:href="#DengXian-35" transform="translate(105.371094 0)"/>
       <use xlink:href="#DengXian-30" transform="translate(158.056641 0)"/>
      </g>
     </g>
    </g>
    <g id="ytick_5">
     <g id="line2d_10">
      <g>
       <use xlink:href="#m1fab3c9636" x="138.24" y="276.764274" style="stroke: #000000; stroke-width: 0.8"/>
      </g>
     </g>
     <g id="text_10">
      <!-- 1200 -->
      <g transform="translate(105.95 280.789899) scale(0.12 -0.12)">
       <use xlink:href="#DengXian-31"/>
       <use xlink:href="#DengXian-32" transform="translate(52.685547 0)"/>
       <use xlink:href="#DengXian-30" transform="translate(105.371094 0)"/>
       <use xlink:href="#DengXian-30" transform="translate(158.056641 0)"/>
      </g>
     </g>
    </g>
    <g id="ytick_6">
     <g id="line2d_11">
      <g>
       <use xlink:href="#m1fab3c9636" x="138.24" y="228.849283" style="stroke: #000000; stroke-width: 0.8"/>
      </g>
     </g>
     <g id="text_11">
      <!-- 1250 -->
      <g transform="translate(105.95 232.874908) scale(0.12 -0.12)">
       <use xlink:href="#DengXian-31"/>
       <use xlink:href="#DengXian-32" transform="translate(52.685547 0)"/>
       <use xlink:href="#DengXian-35" transform="translate(105.371094 0)"/>
       <use xlink:href="#DengXian-30" transform="translate(158.056641 0)"/>
      </g>
     </g>
    </g>
    <g id="ytick_7">
     <g id="line2d_12">
      <g>
       <use xlink:href="#m1fab3c9636" x="138.24" y="180.934292" style="stroke: #000000; stroke-width: 0.8"/>
      </g>
     </g>
     <g id="text_12">
      <!-- 1300 -->
      <g transform="translate(105.95 184.959917) scale(0.12 -0.12)">
       <use xlink:href="#DengXian-31"/>
       <use xlink:href="#DengXian-33" transform="translate(52.685547 0)"/>
       <use xlink:href="#DengXian-30" transform="translate(105.371094 0)"/>
       <use xlink:href="#DengXian-30" transform="translate(158.056641 0)"/>
      </g>
     </g>
    </g>
    <g id="ytick_8">
     <g id="line2d_13">
      <g>
       <use xlink:href="#m1fab3c9636" x="138.24" y="133.019301" style="stroke: #000000; stroke-width: 0.8"/>
      </g>
     </g>
     <g id="text_13">
      <!-- 1350 -->
      <g transform="translate(105.95 137.044926) scale(0.12 -0.12)">
       <use xlink:href="#DengXian-31"/>
       <use xlink:href="#DengXian-33" transform="translate(52.685547 0)"/>
       <use xlink:href="#DengXian-35" transform="translate(105.371094 0)"/>
       <use xlink:href="#DengXian-30" transform="translate(158.056641 0)"/>
      </g>
     </g>
    </g>
    <g id="ytick_9">
     <g id="line2d_14">
      <g>
       <use xlink:href="#m1fab3c9636" x="138.24" y="85.10431" style="stroke: #000000; stroke-width: 0.8"/>
      </g>
     </g>
     <g id="text_14">
      <!-- 1400 -->
      <g transform="translate(105.95 89.129935) scale(0.12 -0.12)">
       <use xlink:href="#DengXian-31"/>
       <use xlink:href="#DengXian-34" transform="translate(52.685547 0)"/>
       <use xlink:href="#DengXian-30" transform="translate(105.371094 0)"/>
       <use xlink:href="#DengXian-30" transform="translate(158.056641 0)"/>
      </g>
     </g>
    </g>
   </g>
   <g id="line2d_15">
    <path d="M 177.198545 332.220059 
L 371.991273 302.501791 
L 566.784 278.861332 
L 761.576727 405.422639 
L 956.369455 84.7044 
" clip-path="url(#p5b1be99c9e)" style="fill: none; stroke: #1f77b4; stroke-width: 1.5; stroke-linecap: square"/>
    <defs>
     <path id="m9ff3c6f641" d="M 0 3 
C 0.795609 3 1.55874 2.683901 2.12132 2.12132 
C 2.683901 1.55874 3 0.795609 3 0 
C 3 -0.795609 2.683901 -1.55874 2.12132 -2.12132 
C 1.55874 -2.683901 0.795609 -3 0 -3 
C -0.795609 -3 -1.55874 -2.683901 -2.12132 -2.12132 
C -2.683901 -1.55874 -3 -0.795609 -3 0 
C -3 0.795609 -2.683901 1.55874 -2.12132 2.12132 
C -1.55874 2.683901 -0.795609 3 0 3 
z
" style="stroke: #1f77b4"/>
    </defs>
    <g clip-path="url(#p5b1be99c9e)">
     <use xlink:href="#m9ff3c6f641" x="177.198545" y="332.220059" style="fill: #1f77b4; stroke: #1f77b4"/>
     <use xlink:href="#m9ff3c6f641" x="371.991273" y="302.501791" style="fill: #1f77b4; stroke: #1f77b4"/>
     <use xlink:href="#m9ff3c6f641" x="566.784" y="278.861332" style="fill: #1f77b4; stroke: #1f77b4"/>
     <use xlink:href="#m9ff3c6f641" x="761.576727" y="405.422639" style="fill: #1f77b4; stroke: #1f77b4"/>
     <use xlink:href="#m9ff3c6f641" x="956.369455" y="84.7044" style="fill: #1f77b4; stroke: #1f77b4"/>
    </g>
   </g>
   <g id="line2d_16">
    <path d="M 177.198545 369.854312 
L 371.991273 315.953432 
L 566.784 293.686847 
L 761.576727 442.5976 
L 956.369455 113.371872 
" clip-path="url(#p5b1be99c9e)" style="fill: none; stroke: #ff7f0e; stroke-width: 1.5; stroke-linecap: square"/>
    <defs>
     <path id="m92ec6ffa04" d="M 0 3 
C 0.795609 3 1.55874 2.683901 2.12132 2.12132 
C 2.683901 1.55874 3 0.795609 3 0 
C 3 -0.795609 2.683901 -1.55874 2.12132 -2.12132 
C 1.55874 -2.683901 0.795609 -3 0 -3 
C -0.795609 -3 -1.55874 -2.683901 -2.12132 -2.12132 
C -2.683901 -1.55874 -3 -0.795609 -3 0 
C -3 0.795609 -2.683901 1.55874 -2.12132 2.12132 
C -1.55874 2.683901 -0.795609 3 0 3 
z
" style="stroke: #ff7f0e"/>
    </defs>
    <g clip-path="url(#p5b1be99c9e)">
     <use xlink:href="#m92ec6ffa04" x="177.198545" y="369.854312" style="fill: #ff7f0e; stroke: #ff7f0e"/>
     <use xlink:href="#m92ec6ffa04" x="371.991273" y="315.953432" style="fill: #ff7f0e; stroke: #ff7f0e"/>
     <use xlink:href="#m92ec6ffa04" x="566.784" y="293.686847" style="fill: #ff7f0e; stroke: #ff7f0e"/>
     <use xlink:href="#m92ec6ffa04" x="761.576727" y="442.5976" style="fill: #ff7f0e; stroke: #ff7f0e"/>
     <use xlink:href="#m92ec6ffa04" x="956.369455" y="113.371872" style="fill: #ff7f0e; stroke: #ff7f0e"/>
    </g>
   </g>
   <g id="line2d_17">
    <path d="M 177.198545 390.065117 
L 371.991273 343.77073 
L 566.784 312.081051 
L 761.576727 467.2404 
L 956.369455 128.196213 
" clip-path="url(#p5b1be99c9e)" style="fill: none; stroke: #2ca02c; stroke-width: 1.5; stroke-linecap: square"/>
    <defs>
     <path id="m03949d64e7" d="M 0 3 
C 0.795609 3 1.55874 2.683901 2.12132 2.12132 
C 2.683901 1.55874 3 0.795609 3 0 
C 3 -0.795609 2.683901 -1.55874 2.12132 -2.12132 
C 1.55874 -2.683901 0.795609 -3 0 -3 
C -0.795609 -3 -1.55874 -2.683901 -2.12132 -2.12132 
C -2.683901 -1.55874 -3 -0.795609 -3 0 
C -3 0.795609 -2.683901 1.55874 -2.12132 2.12132 
C -1.55874 2.683901 -0.795609 3 0 3 
z
" style="stroke: #2ca02c"/>
    </defs>
    <g clip-path="url(#p5b1be99c9e)">
     <use xlink:href="#m03949d64e7" x="177.198545" y="390.065117" style="fill: #2ca02c; stroke: #2ca02c"/>
     <use xlink:href="#m03949d64e7" x="371.991273" y="343.77073" style="fill: #2ca02c; stroke: #2ca02c"/>
     <use xlink:href="#m03949d64e7" x="566.784" y="312.081051" style="fill: #2ca02c; stroke: #2ca02c"/>
     <use xlink:href="#m03949d64e7" x="761.576727" y="467.2404" style="fill: #2ca02c; stroke: #2ca02c"/>
     <use xlink:href="#m03949d64e7" x="956.369455" y="128.196213" style="fill: #2ca02c; stroke: #2ca02c"/>
    </g>
   </g>
   <g id="patch_3">
    <path d="M 138.24 486.3672 
L 138.24 65.5776 
" style="fill: none; stroke: #000000; stroke-width: 0.8; stroke-linejoin: miter; stroke-linecap: square"/>
   </g>
   <g id="patch_4">
    <path d="M 995.328 486.3672 
L 995.328 65.5776 
" style="fill: none; stroke: #000000; stroke-width: 0.8; stroke-linejoin: miter; stroke-linecap: square"/>
   </g>
   <g id="patch_5">
    <path d="M 138.24 486.3672 
L 995.328 486.3672 
" style="fill: none; stroke: #000000; stroke-width: 0.8; stroke-linejoin: miter; stroke-linecap: square"/>
   </g>
   <g id="patch_6">
    <path d="M 138.24 65.5776 
L 995.328 65.5776 
" style="fill: none; stroke: #000000; stroke-width: 0.8; stroke-linejoin: miter; stroke-linecap: square"/>
   </g>
   <g id="legend_1">
    <g id="patch_7">
     <path d="M 146.64 126.7251 
L 241.2975 126.7251 
Q 243.6975 126.7251 243.6975 124.3251 
L 243.6975 73.9776 
Q 243.6975 71.5776 241.2975 71.5776 
L 146.64 71.5776 
Q 144.24 71.5776 144.24 73.9776 
L 144.24 124.3251 
Q 144.24 126.7251 146.64 126.7251 
z
" style="fill: #ffffff; opacity: 0.8; stroke: #cccccc; stroke-linejoin: miter"/>
    </g>
    <g id="line2d_18">
     <path d="M 149.04 80.5776 
L 161.04 80.5776 
L 173.04 80.5776 
" style="fill: none; stroke: #1f77b4; stroke-width: 1.5; stroke-linecap: square"/>
     <g>
      <use xlink:href="#m9ff3c6f641" x="161.04" y="80.5776" style="fill: #1f77b4; stroke: #1f77b4"/>
     </g>
    </g>
    <g id="text_15">
     <!-- Cargo-195 -->
     <g transform="translate(182.64 84.7776) scale(0.12 -0.12)">
      <defs>
       <path id="DengXian-43" d="M 2200 -313 
Q 1347 -313 864 298 
Q 381 909 381 1972 
Q 381 3034 875 3626 
Q 1369 4219 2244 4219 
Q 2803 4219 3186 3994 
Q 3569 3769 3784 3275 
L 3397 3113 
Q 3238 3513 2948 3688 
Q 2659 3863 2244 3863 
Q 1556 3863 1182 3359 
Q 809 2856 809 1972 
Q 809 1072 1182 556 
Q 1556 41 2219 41 
Q 2684 41 2984 266 
Q 3284 491 3431 878 
L 3797 709 
Q 3359 -313 2200 -313 
z
" transform="scale(0.015625)"/>
       <path id="DengXian-61" d="M 1381 16 
Q 1656 16 1870 145 
Q 2084 275 2206 501 
Q 2328 728 2328 978 
L 2328 1363 
L 1872 1350 
Q 1234 1334 964 1156 
Q 694 978 694 619 
Q 694 16 1381 16 
z
M 2725 -250 
L 2347 -250 
L 2328 316 
L 2316 316 
Q 1994 -313 1316 -313 
Q 819 -313 548 -67 
Q 278 178 278 613 
Q 278 1106 651 1365 
Q 1025 1625 1803 1647 
L 2325 1659 
L 2325 1788 
Q 2325 2238 2145 2452 
Q 1966 2666 1588 2666 
Q 1241 2666 1064 2555 
Q 888 2444 822 2181 
L 447 2259 
Q 547 2663 826 2828 
Q 1106 2994 1594 2994 
Q 2191 2994 2458 2697 
Q 2725 2400 2725 1753 
L 2725 -250 
z
" transform="scale(0.015625)"/>
       <path id="DengXian-72" d="M 528 -250 
L 528 2144 
Q 528 2397 500 2931 
L 869 2931 
Q 903 2588 903 2209 
L 916 2209 
Q 1047 2631 1262 2812 
Q 1478 2994 1819 2994 
Q 1950 2994 2063 2966 
L 2063 2597 
Q 1944 2625 1766 2625 
Q 1372 2625 1150 2289 
Q 928 1953 928 1366 
L 928 -250 
L 528 -250 
z
" transform="scale(0.015625)"/>
       <path id="DengXian-67" d="M 725 1334 
Q 725 700 979 365 
Q 1234 31 1728 31 
Q 2238 31 2505 375 
Q 2772 719 2772 1359 
Q 2772 1991 2509 2328 
Q 2247 2666 1753 2666 
Q 1244 2666 984 2322 
Q 725 1978 725 1334 
z
M 313 1334 
Q 313 2113 666 2553 
Q 1019 2994 1666 2994 
Q 2431 2994 2759 2353 
L 2772 2353 
Q 2775 2559 2806 2931 
L 3181 2931 
Q 3163 2613 3163 2203 
L 3163 -163 
Q 3163 -713 2800 -1098 
Q 2438 -1484 1731 -1484 
Q 641 -1484 434 -691 
L 828 -619 
Q 981 -1147 1738 -1147 
Q 2766 -1147 2766 -184 
L 2766 91 
Q 2766 163 2767 228 
Q 2769 294 2772 366 
L 2759 366 
Q 2578 25 2298 -136 
Q 2019 -297 1606 -297 
Q 991 -297 652 136 
Q 313 569 313 1334 
z
" transform="scale(0.015625)"/>
       <path id="DengXian-6f" d="M 3359 1344 
Q 3359 569 2954 128 
Q 2550 -313 1819 -313 
Q 1116 -313 712 132 
Q 309 578 309 1344 
Q 309 2122 712 2558 
Q 1116 2994 1838 2994 
Q 2581 2994 2970 2570 
Q 3359 2147 3359 1344 
z
M 2944 1344 
Q 2944 2000 2669 2333 
Q 2394 2666 1850 2666 
Q 1297 2666 1011 2325 
Q 725 1984 725 1344 
Q 725 713 1008 364 
Q 1291 16 1813 16 
Q 2375 16 2659 353 
Q 2944 691 2944 1344 
z
" transform="scale(0.015625)"/>
       <path id="DengXian-39" d="M 3013 2047 
Q 3013 894 2638 290 
Q 2263 -313 1538 -313 
Q 622 -313 384 500 
L 759 581 
Q 844 294 1048 155 
Q 1253 16 1547 16 
Q 2588 16 2622 1934 
Q 2494 1666 2208 1494 
Q 1922 1322 1553 1322 
Q 991 1322 658 1717 
Q 325 2113 325 2775 
Q 325 3447 675 3833 
Q 1025 4219 1647 4219 
Q 2316 4219 2664 3678 
Q 3013 3138 3013 2047 
z
M 2572 2634 
Q 2572 3203 2314 3543 
Q 2056 3884 1638 3884 
Q 1203 3884 964 3590 
Q 725 3297 725 2778 
Q 725 2244 965 1945 
Q 1206 1647 1631 1647 
Q 2056 1647 2314 1923 
Q 2572 2200 2572 2634 
z
" transform="scale(0.015625)"/>
      </defs>
      <use xlink:href="#DengXian-43"/>
      <use xlink:href="#DengXian-61" transform="translate(62.011719 0)"/>
      <use xlink:href="#DengXian-72" transform="translate(112.109375 0)"/>
      <use xlink:href="#DengXian-67" transform="translate(145.996094 0)"/>
      <use xlink:href="#DengXian-6f" transform="translate(203.417969 0)"/>
      <use xlink:href="#DengXian-2d" transform="translate(260.742188 0)"/>
      <use xlink:href="#DengXian-31" transform="translate(310.742188 0)"/>
      <use xlink:href="#DengXian-39" transform="translate(363.427734 0)"/>
      <use xlink:href="#DengXian-35" transform="translate(416.113281 0)"/>
     </g>
    </g>
    <g id="line2d_19">
     <path d="M 149.04 97.7601 
L 161.04 97.7601 
L 173.04 97.7601 
" style="fill: none; stroke: #ff7f0e; stroke-width: 1.5; stroke-linecap: square"/>
     <g>
      <use xlink:href="#m92ec6ffa04" x="161.04" y="97.7601" style="fill: #ff7f0e; stroke: #ff7f0e"/>
     </g>
    </g>
    <g id="text_16">
     <!-- Cargo-200 -->
     <g transform="translate(182.64 101.9601) scale(0.12 -0.12)">
      <use xlink:href="#DengXian-43"/>
      <use xlink:href="#DengXian-61" transform="translate(62.011719 0)"/>
      <use xlink:href="#DengXian-72" transform="translate(112.109375 0)"/>
      <use xlink:href="#DengXian-67" transform="translate(145.996094 0)"/>
      <use xlink:href="#DengXian-6f" transform="translate(203.417969 0)"/>
      <use xlink:href="#DengXian-2d" transform="translate(260.742188 0)"/>
      <use xlink:href="#DengXian-32" transform="translate(310.742188 0)"/>
      <use xlink:href="#DengXian-30" transform="translate(363.427734 0)"/>
      <use xlink:href="#DengXian-30" transform="translate(416.113281 0)"/>
     </g>
    </g>
    <g id="line2d_20">
     <path d="M 149.04 114.9426 
L 161.04 114.9426 
L 173.04 114.9426 
" style="fill: none; stroke: #2ca02c; stroke-width: 1.5; stroke-linecap: square"/>
     <g>
      <use xlink:href="#m03949d64e7" x="161.04" y="114.9426" style="fill: #2ca02c; stroke: #2ca02c"/>
     </g>
    </g>
    <g id="text_17">
     <!-- Cargo-205 -->
     <g transform="translate(182.64 119.1426) scale(0.12 -0.12)">
      <use xlink:href="#DengXian-43"/>
      <use xlink:href="#DengXian-61" transform="translate(62.011719 0)"/>
      <use xlink:href="#DengXian-72" transform="translate(112.109375 0)"/>
      <use xlink:href="#DengXian-67" transform="translate(145.996094 0)"/>
      <use xlink:href="#DengXian-6f" transform="translate(203.417969 0)"/>
      <use xlink:href="#DengXian-2d" transform="translate(260.742188 0)"/>
      <use xlink:href="#DengXian-32" transform="translate(310.742188 0)"/>
      <use xlink:href="#DengXian-30" transform="translate(363.427734 0)"/>
      <use xlink:href="#DengXian-35" transform="translate(416.113281 0)"/>
     </g>
    </g>
   </g>
  </g>
 </g>
 <defs>
  <clipPath id="p5b1be99c9e">
   <rect x="138.24" y="65.5776" width="857.088" height="420.7896"/>
  </clipPath>
 </defs>
</svg>
