<?xml version="1.0" encoding="utf-8" standalone="no"?>
<!DOCTYPE svg PUBLIC "-//W3C//DTD SVG 1.1//EN"
  "http://www.w3.org/Graphics/SVG/1.1/DTD/svg11.dtd">
<svg xmlns:xlink="http://www.w3.org/1999/xlink" width="1105.92pt" height="546.48pt" viewBox="0 0 1105.92 546.48" xmlns="http://www.w3.org/2000/svg" version="1.1">
 <metadata>
  <rdf:RDF xmlns:dc="http://purl.org/dc/elements/1.1/" xmlns:cc="http://creativecommons.org/ns#" xmlns:rdf="http://www.w3.org/1999/02/22-rdf-syntax-ns#">
   <cc:Work>
    <dc:type rdf:resource="http://purl.org/dc/dcmitype/StillImage"/>
    <dc:date>2025-02-12T21:56:31.316333</dc:date>
    <dc:format>image/svg+xml</dc:format>
    <dc:creator>
     <cc:Agent>
      <dc:title>Matplotlib v3.10.0, https://matplotlib.org/</dc:title>
     </cc:Agent>
    </dc:creator>
   </cc:Work>
  </rdf:RDF>
 </metadata>
 <defs>
  <style type="text/css">*{stroke-linejoin: round; stroke-linecap: butt}</style>
 </defs>
 <g id="figure_1">
  <g id="patch_1">
   <path d="M 0 546.48 
L 1105.92 546.48 
L 1105.92 0 
L 0 0 
z
" style="fill: #ffffff"/>
  </g>
  <g id="axes_1">
   <g id="patch_2">
    <path d="M 138.24 486.3672 
L 995.328 486.3672 
L 995.328 65.5776 
L 138.24 65.5776 
z
" style="fill: #ffffff"/>
   </g>
   <g id="matplotlib.axis_1">
    <g id="xtick_1">
     <g id="line2d_1">
      <defs>
       <path id="m3332b3876b" d="M 0 0 
L 0 3.5 
" style="stroke: #000000; stroke-width: 0.8"/>
      </defs>
      <g>
       <use xlink:href="#m3332b3876b" x="177.198545" y="486.3672" style="stroke: #000000; stroke-width: 0.8"/>
      </g>
     </g>
     <g id="text_1">
      <!-- 2023-04-23 -->
      <g transform="translate(145.908545 501.41845) scale(0.12 -0.12)">
       <defs>
        <path id="DengXian-32" d="M 347 -250 
L 347 31 
Q 491 394 764 751 
Q 1038 1109 1566 1569 
Q 2109 2038 2326 2359 
Q 2544 2681 2544 3034 
Q 2544 3441 2316 3661 
Q 2088 3881 1681 3881 
Q 1313 3881 1077 3664 
Q 841 3447 800 3069 
L 400 3119 
Q 447 3613 795 3916 
Q 1144 4219 1684 4219 
Q 2281 4219 2615 3912 
Q 2950 3606 2950 3059 
Q 2950 2778 2850 2531 
Q 2750 2284 2550 2039 
Q 2350 1794 1869 1366 
Q 1025 616 803 103 
L 3016 103 
L 3016 -250 
L 347 -250 
z
" transform="scale(0.015625)"/>
        <path id="DengXian-30" d="M 3106 1953 
Q 3106 850 2750 268 
Q 2394 -313 1697 -313 
Q 1006 -313 654 256 
Q 303 825 303 1953 
Q 303 3100 645 3659 
Q 988 4219 1719 4219 
Q 2422 4219 2764 3656 
Q 3106 3094 3106 1953 
z
M 2706 1953 
Q 2706 2963 2473 3425 
Q 2241 3888 1716 3888 
Q 1172 3888 936 3423 
Q 700 2959 700 1953 
Q 700 969 944 495 
Q 1188 22 1703 22 
Q 2216 22 2461 508 
Q 2706 994 2706 1953 
z
" transform="scale(0.015625)"/>
        <path id="DengXian-33" d="M 3019 963 
Q 3019 356 2662 21 
Q 2306 -313 1656 -313 
Q 409 -313 266 828 
L 669 872 
Q 778 25 1656 25 
Q 2122 25 2367 262 
Q 2613 500 2613 963 
Q 2613 1375 2320 1590 
Q 2028 1806 1500 1806 
L 1200 1806 
L 1200 2172 
L 1491 2172 
Q 1784 2172 2011 2269 
Q 2238 2366 2369 2555 
Q 2500 2744 2500 3022 
Q 2500 3434 2283 3659 
Q 2066 3884 1644 3884 
Q 1266 3884 1027 3689 
Q 788 3494 747 3091 
L 353 3125 
Q 413 3647 755 3933 
Q 1097 4219 1647 4219 
Q 2244 4219 2573 3914 
Q 2903 3609 2903 3056 
Q 2903 2653 2672 2376 
Q 2441 2100 2022 2009 
L 2022 1997 
Q 2491 1938 2755 1658 
Q 3019 1378 3019 963 
z
" transform="scale(0.015625)"/>
        <path id="DengXian-2d" d="M 694 1166 
L 694 1522 
L 2506 1522 
L 2506 1166 
L 694 1166 
z
" transform="scale(0.015625)"/>
        <path id="DengXian-34" d="M 2516 803 
L 2516 -250 
L 2125 -250 
L 2125 803 
L 141 803 
L 141 1116 
L 2088 4153 
L 2516 4153 
L 2516 1131 
L 3113 1131 
L 3113 803 
L 2516 803 
z
M 2125 3628 
L 538 1131 
L 2125 1131 
L 2125 3628 
z
" transform="scale(0.015625)"/>
       </defs>
       <use xlink:href="#DengXian-32"/>
       <use xlink:href="#DengXian-30" transform="translate(52.685547 0)"/>
       <use xlink:href="#DengXian-32" transform="translate(105.371094 0)"/>
       <use xlink:href="#DengXian-33" transform="translate(158.056641 0)"/>
       <use xlink:href="#DengXian-2d" transform="translate(210.742188 0)"/>
       <use xlink:href="#DengXian-30" transform="translate(260.742188 0)"/>
       <use xlink:href="#DengXian-34" transform="translate(313.427734 0)"/>
       <use xlink:href="#DengXian-2d" transform="translate(366.113281 0)"/>
       <use xlink:href="#DengXian-32" transform="translate(416.113281 0)"/>
       <use xlink:href="#DengXian-33" transform="translate(468.798828 0)"/>
      </g>
     </g>
    </g>
    <g id="xtick_2">
     <g id="line2d_2">
      <g>
       <use xlink:href="#m3332b3876b" x="371.991273" y="486.3672" style="stroke: #000000; stroke-width: 0.8"/>
      </g>
     </g>
     <g id="text_2">
      <!-- 2023-04-24 -->
      <g transform="translate(340.701273 501.41845) scale(0.12 -0.12)">
       <use xlink:href="#DengXian-32"/>
       <use xlink:href="#DengXian-30" transform="translate(52.685547 0)"/>
       <use xlink:href="#DengXian-32" transform="translate(105.371094 0)"/>
       <use xlink:href="#DengXian-33" transform="translate(158.056641 0)"/>
       <use xlink:href="#DengXian-2d" transform="translate(210.742188 0)"/>
       <use xlink:href="#DengXian-30" transform="translate(260.742188 0)"/>
       <use xlink:href="#DengXian-34" transform="translate(313.427734 0)"/>
       <use xlink:href="#DengXian-2d" transform="translate(366.113281 0)"/>
       <use xlink:href="#DengXian-32" transform="translate(416.113281 0)"/>
       <use xlink:href="#DengXian-34" transform="translate(468.798828 0)"/>
      </g>
     </g>
    </g>
    <g id="xtick_3">
     <g id="line2d_3">
      <g>
       <use xlink:href="#m3332b3876b" x="566.784" y="486.3672" style="stroke: #000000; stroke-width: 0.8"/>
      </g>
     </g>
     <g id="text_3">
      <!-- 2023-04-25 -->
      <g transform="translate(535.494 501.41845) scale(0.12 -0.12)">
       <defs>
        <path id="DengXian-35" d="M 3047 1169 
Q 3047 469 2676 78 
Q 2306 -313 1641 -313 
Q 575 -313 366 672 
L 763 734 
Q 859 350 1075 186 
Q 1291 22 1669 22 
Q 2134 22 2387 315 
Q 2641 609 2641 1153 
Q 2641 1619 2392 1895 
Q 2144 2172 1713 2172 
Q 1459 2172 1265 2095 
Q 1072 2019 875 1844 
L 503 1844 
L 641 4153 
L 2828 4153 
L 2828 3816 
L 997 3816 
L 894 2222 
Q 1113 2381 1323 2442 
Q 1534 2503 1775 2503 
Q 2359 2503 2703 2142 
Q 3047 1781 3047 1169 
z
" transform="scale(0.015625)"/>
       </defs>
       <use xlink:href="#DengXian-32"/>
       <use xlink:href="#DengXian-30" transform="translate(52.685547 0)"/>
       <use xlink:href="#DengXian-32" transform="translate(105.371094 0)"/>
       <use xlink:href="#DengXian-33" transform="translate(158.056641 0)"/>
       <use xlink:href="#DengXian-2d" transform="translate(210.742188 0)"/>
       <use xlink:href="#DengXian-30" transform="translate(260.742188 0)"/>
       <use xlink:href="#DengXian-34" transform="translate(313.427734 0)"/>
       <use xlink:href="#DengXian-2d" transform="translate(366.113281 0)"/>
       <use xlink:href="#DengXian-32" transform="translate(416.113281 0)"/>
       <use xlink:href="#DengXian-35" transform="translate(468.798828 0)"/>
      </g>
     </g>
    </g>
    <g id="xtick_4">
     <g id="line2d_4">
      <g>
       <use xlink:href="#m3332b3876b" x="761.576727" y="486.3672" style="stroke: #000000; stroke-width: 0.8"/>
      </g>
     </g>
     <g id="text_4">
      <!-- 2023-04-26 -->
      <g transform="translate(730.286727 501.41845) scale(0.12 -0.12)">
       <defs>
        <path id="DengXian-36" d="M 3047 1191 
Q 3047 491 2697 89 
Q 2347 -313 1747 -313 
Q 1075 -313 720 234 
Q 366 781 366 1850 
Q 366 3031 739 3625 
Q 1113 4219 1841 4219 
Q 2284 4219 2553 4026 
Q 2822 3834 2944 3428 
L 2566 3344 
Q 2400 3888 1816 3888 
Q 1303 3888 1033 3402 
Q 763 2916 756 1969 
Q 913 2263 1183 2417 
Q 1453 2572 1800 2572 
Q 2372 2572 2709 2201 
Q 3047 1831 3047 1191 
z
M 2647 1166 
Q 2647 1675 2405 1964 
Q 2163 2253 1716 2253 
Q 1466 2253 1256 2137 
Q 1047 2022 926 1806 
Q 806 1591 806 1306 
Q 806 747 1064 383 
Q 1322 19 1738 19 
Q 2166 19 2406 325 
Q 2647 631 2647 1166 
z
" transform="scale(0.015625)"/>
       </defs>
       <use xlink:href="#DengXian-32"/>
       <use xlink:href="#DengXian-30" transform="translate(52.685547 0)"/>
       <use xlink:href="#DengXian-32" transform="translate(105.371094 0)"/>
       <use xlink:href="#DengXian-33" transform="translate(158.056641 0)"/>
       <use xlink:href="#DengXian-2d" transform="translate(210.742188 0)"/>
       <use xlink:href="#DengXian-30" transform="translate(260.742188 0)"/>
       <use xlink:href="#DengXian-34" transform="translate(313.427734 0)"/>
       <use xlink:href="#DengXian-2d" transform="translate(366.113281 0)"/>
       <use xlink:href="#DengXian-32" transform="translate(416.113281 0)"/>
       <use xlink:href="#DengXian-36" transform="translate(468.798828 0)"/>
      </g>
     </g>
    </g>
    <g id="xtick_5">
     <g id="line2d_5">
      <g>
       <use xlink:href="#m3332b3876b" x="956.369455" y="486.3672" style="stroke: #000000; stroke-width: 0.8"/>
      </g>
     </g>
     <g id="text_5">
      <!-- 2023-04-27 -->
      <g transform="translate(925.079455 501.41845) scale(0.12 -0.12)">
       <defs>
        <path id="DengXian-37" d="M 3031 3809 
Q 2278 2631 1928 1634 
Q 1578 638 1578 -250 
L 1172 -250 
Q 1172 625 1545 1651 
Q 1919 2678 2638 3797 
L 331 3797 
L 331 4153 
L 3031 4153 
L 3031 3809 
z
" transform="scale(0.015625)"/>
       </defs>
       <use xlink:href="#DengXian-32"/>
       <use xlink:href="#DengXian-30" transform="translate(52.685547 0)"/>
       <use xlink:href="#DengXian-32" transform="translate(105.371094 0)"/>
       <use xlink:href="#DengXian-33" transform="translate(158.056641 0)"/>
       <use xlink:href="#DengXian-2d" transform="translate(210.742188 0)"/>
       <use xlink:href="#DengXian-30" transform="translate(260.742188 0)"/>
       <use xlink:href="#DengXian-34" transform="translate(313.427734 0)"/>
       <use xlink:href="#DengXian-2d" transform="translate(366.113281 0)"/>
       <use xlink:href="#DengXian-32" transform="translate(416.113281 0)"/>
       <use xlink:href="#DengXian-37" transform="translate(468.798828 0)"/>
      </g>
     </g>
    </g>
   </g>
   <g id="matplotlib.axis_2">
    <g id="ytick_1">
     <g id="line2d_6">
      <defs>
       <path id="m1093125aa2" d="M 0 0 
L -3.5 0 
" style="stroke: #000000; stroke-width: 0.8"/>
      </defs>
      <g>
       <use xlink:href="#m1093125aa2" x="138.24" y="468.424239" style="stroke: #000000; stroke-width: 0.8"/>
      </g>
     </g>
     <g id="text_6">
      <!-- 1000 -->
      <g transform="translate(105.95 472.449864) scale(0.12 -0.12)">
       <defs>
        <path id="DengXian-31" d="M 484 -250 
L 484 84 
L 1609 84 
L 1609 3744 
L 603 3075 
L 603 3434 
L 1653 4153 
L 2000 4153 
L 2000 84 
L 2959 84 
L 2959 -250 
L 484 -250 
z
" transform="scale(0.015625)"/>
       </defs>
       <use xlink:href="#DengXian-31"/>
       <use xlink:href="#DengXian-30" transform="translate(52.685547 0)"/>
       <use xlink:href="#DengXian-30" transform="translate(105.371094 0)"/>
       <use xlink:href="#DengXian-30" transform="translate(158.056641 0)"/>
      </g>
     </g>
    </g>
    <g id="ytick_2">
     <g id="line2d_7">
      <g>
       <use xlink:href="#m1093125aa2" x="138.24" y="420.509248" style="stroke: #000000; stroke-width: 0.8"/>
      </g>
     </g>
     <g id="text_7">
      <!-- 1050 -->
      <g transform="translate(105.95 424.534873) scale(0.12 -0.12)">
       <use xlink:href="#DengXian-31"/>
       <use xlink:href="#DengXian-30" transform="translate(52.685547 0)"/>
       <use xlink:href="#DengXian-35" transform="translate(105.371094 0)"/>
       <use xlink:href="#DengXian-30" transform="translate(158.056641 0)"/>
      </g>
     </g>
    </g>
    <g id="ytick_3">
     <g id="line2d_8">
      <g>
       <use xlink:href="#m1093125aa2" x="138.24" y="372.594257" style="stroke: #000000; stroke-width: 0.8"/>
      </g>
     </g>
     <g id="text_8">
      <!-- 1100 -->
      <g transform="translate(105.95 376.619882) scale(0.12 -0.12)">
       <use xlink:href="#DengXian-31"/>
       <use xlink:href="#DengXian-31" transform="translate(52.685547 0)"/>
       <use xlink:href="#DengXian-30" transform="translate(105.371094 0)"/>
       <use xlink:href="#DengXian-30" transform="translate(158.056641 0)"/>
      </g>
     </g>
    </g>
    <g id="ytick_4">
     <g id="line2d_9">
      <g>
       <use xlink:href="#m1093125aa2" x="138.24" y="324.679266" style="stroke: #000000; stroke-width: 0.8"/>
      </g>
     </g>
     <g id="text_9">
      <!-- 1150 -->
      <g transform="translate(105.95 328.704891) scale(0.12 -0.12)">
       <use xlink:href="#DengXian-31"/>
       <use xlink:href="#DengXian-31" transform="translate(52.685547 0)"/>
       <use xlink:href="#DengXian-35" transform="translate(105.371094 0)"/>
       <use xlink:href="#DengXian-30" transform="translate(158.056641 0)"/>
      </g>
     </g>
    </g>
    <g id="ytick_5">
     <g id="line2d_10">
      <g>
       <use xlink:href="#m1093125aa2" x="138.24" y="276.764274" style="stroke: #000000; stroke-width: 0.8"/>
      </g>
     </g>
     <g id="text_10">
      <!-- 1200 -->
      <g transform="translate(105.95 280.789899) scale(0.12 -0.12)">
       <use xlink:href="#DengXian-31"/>
       <use xlink:href="#DengXian-32" transform="translate(52.685547 0)"/>
       <use xlink:href="#DengXian-30" transform="translate(105.371094 0)"/>
       <use xlink:href="#DengXian-30" transform="translate(158.056641 0)"/>
      </g>
     </g>
    </g>
    <g id="ytick_6">
     <g id="line2d_11">
      <g>
       <use xlink:href="#m1093125aa2" x="138.24" y="228.849283" style="stroke: #000000; stroke-width: 0.8"/>
      </g>
     </g>
     <g id="text_11">
      <!-- 1250 -->
      <g transform="translate(105.95 232.874908) scale(0.12 -0.12)">
       <use xlink:href="#DengXian-31"/>
       <use xlink:href="#DengXian-32" transform="translate(52.685547 0)"/>
       <use xlink:href="#DengXian-35" transform="translate(105.371094 0)"/>
       <use xlink:href="#DengXian-30" transform="translate(158.056641 0)"/>
      </g>
     </g>
    </g>
    <g id="ytick_7">
     <g id="line2d_12">
      <g>
       <use xlink:href="#m1093125aa2" x="138.24" y="180.934292" style="stroke: #000000; stroke-width: 0.8"/>
      </g>
     </g>
     <g id="text_12">
      <!-- 1300 -->
      <g transform="translate(105.95 184.959917) scale(0.12 -0.12)">
       <use xlink:href="#DengXian-31"/>
       <use xlink:href="#DengXian-33" transform="translate(52.685547 0)"/>
       <use xlink:href="#DengXian-30" transform="translate(105.371094 0)"/>
       <use xlink:href="#DengXian-30" transform="translate(158.056641 0)"/>
      </g>
     </g>
    </g>
    <g id="ytick_8">
     <g id="line2d_13">
      <g>
       <use xlink:href="#m1093125aa2" x="138.24" y="133.019301" style="stroke: #000000; stroke-width: 0.8"/>
      </g>
     </g>
     <g id="text_13">
      <!-- 1350 -->
      <g transform="translate(105.95 137.044926) scale(0.12 -0.12)">
       <use xlink:href="#DengXian-31"/>
       <use xlink:href="#DengXian-33" transform="translate(52.685547 0)"/>
       <use xlink:href="#DengXian-35" transform="translate(105.371094 0)"/>
       <use xlink:href="#DengXian-30" transform="translate(158.056641 0)"/>
      </g>
     </g>
    </g>
    <g id="ytick_9">
     <g id="line2d_14">
      <g>
       <use xlink:href="#m1093125aa2" x="138.24" y="85.10431" style="stroke: #000000; stroke-width: 0.8"/>
      </g>
     </g>
     <g id="text_14">
      <!-- 1400 -->
      <g transform="translate(105.95 89.129935) scale(0.12 -0.12)">
       <use xlink:href="#DengXian-31"/>
       <use xlink:href="#DengXian-34" transform="translate(52.685547 0)"/>
       <use xlink:href="#DengXian-30" transform="translate(105.371094 0)"/>
       <use xlink:href="#DengXian-30" transform="translate(158.056641 0)"/>
      </g>
     </g>
    </g>
   </g>
   <g id="line2d_15">
    <path d="M 177.198545 332.220059 
L 371.991273 302.501791 
L 566.784 278.861332 
L 761.576727 405.422639 
L 956.369455 84.7044 
" clip-path="url(#p03832f31ab)" style="fill: none; stroke: #1f77b4; stroke-width: 1.5; stroke-linecap: square"/>
    <defs>
     <path id="mf295fd9c54" d="M 0 3 
C 0.795609 3 1.55874 2.683901 2.12132 2.12132 
C 2.683901 1.55874 3 0.795609 3 0 
C 3 -0.795609 2.683901 -1.55874 2.12132 -2.12132 
C 1.55874 -2.683901 0.795609 -3 0 -3 
C -0.795609 -3 -1.55874 -2.683901 -2.12132 -2.12132 
C -2.683901 -1.55874 -3 -0.795609 -3 0 
C -3 0.795609 -2.683901 1.55874 -2.12132 2.12132 
C -1.55874 2.683901 -0.795609 3 0 3 
z
" style="stroke: #1f77b4"/>
    </defs>
    <g clip-path="url(#p03832f31ab)">
     <use xlink:href="#mf295fd9c54" x="177.198545" y="332.220059" style="fill: #1f77b4; stroke: #1f77b4"/>
     <use xlink:href="#mf295fd9c54" x="371.991273" y="302.501791" style="fill: #1f77b4; stroke: #1f77b4"/>
     <use xlink:href="#mf295fd9c54" x="566.784" y="278.861332" style="fill: #1f77b4; stroke: #1f77b4"/>
     <use xlink:href="#mf295fd9c54" x="761.576727" y="405.422639" style="fill: #1f77b4; stroke: #1f77b4"/>
     <use xlink:href="#mf295fd9c54" x="956.369455" y="84.7044" style="fill: #1f77b4; stroke: #1f77b4"/>
    </g>
   </g>
   <g id="line2d_16">
    <path d="M 177.198545 369.854312 
L 371.991273 315.953432 
L 566.784 293.686847 
L 761.576727 442.5976 
L 956.369455 113.371872 
" clip-path="url(#p03832f31ab)" style="fill: none; stroke: #ff7f0e; stroke-width: 1.5; stroke-linecap: square"/>
    <defs>
     <path id="m474a94c697" d="M 0 3 
C 0.795609 3 1.55874 2.683901 2.12132 2.12132 
C 2.683901 1.55874 3 0.795609 3 0 
C 3 -0.795609 2.683901 -1.55874 2.12132 -2.12132 
C 1.55874 -2.683901 0.795609 -3 0 -3 
C -0.795609 -3 -1.55874 -2.683901 -2.12132 -2.12132 
C -2.683901 -1.55874 -3 -0.795609 -3 0 
C -3 0.795609 -2.683901 1.55874 -2.12132 2.12132 
C -1.55874 2.683901 -0.795609 3 0 3 
z
" style="stroke: #ff7f0e"/>
    </defs>
    <g clip-path="url(#p03832f31ab)">
     <use xlink:href="#m474a94c697" x="177.198545" y="369.854312" style="fill: #ff7f0e; stroke: #ff7f0e"/>
     <use xlink:href="#m474a94c697" x="371.991273" y="315.953432" style="fill: #ff7f0e; stroke: #ff7f0e"/>
     <use xlink:href="#m474a94c697" x="566.784" y="293.686847" style="fill: #ff7f0e; stroke: #ff7f0e"/>
     <use xlink:href="#m474a94c697" x="761.576727" y="442.5976" style="fill: #ff7f0e; stroke: #ff7f0e"/>
     <use xlink:href="#m474a94c697" x="956.369455" y="113.371872" style="fill: #ff7f0e; stroke: #ff7f0e"/>
    </g>
   </g>
   <g id="line2d_17">
    <path d="M 177.198545 390.065117 
L 371.991273 343.77073 
L 566.784 312.081051 
L 761.576727 467.2404 
L 956.369455 128.196213 
" clip-path="url(#p03832f31ab)" style="fill: none; stroke: #2ca02c; stroke-width: 1.5; stroke-linecap: square"/>
    <defs>
     <path id="m2e41b8b4a4" d="M 0 3 
C 0.795609 3 1.55874 2.683901 2.12132 2.12132 
C 2.683901 1.55874 3 0.795609 3 0 
C 3 -0.795609 2.683901 -1.55874 2.12132 -2.12132 
C 1.55874 -2.683901 0.795609 -3 0 -3 
C -0.795609 -3 -1.55874 -2.683901 -2.12132 -2.12132 
C -2.683901 -1.55874 -3 -0.795609 -3 0 
C -3 0.795609 -2.683901 1.55874 -2.12132 2.12132 
C -1.55874 2.683901 -0.795609 3 0 3 
z
" style="stroke: #2ca02c"/>
    </defs>
    <g clip-path="url(#p03832f31ab)">
     <use xlink:href="#m2e41b8b4a4" x="177.198545" y="390.065117" style="fill: #2ca02c; stroke: #2ca02c"/>
     <use xlink:href="#m2e41b8b4a4" x="371.991273" y="343.77073" style="fill: #2ca02c; stroke: #2ca02c"/>
     <use xlink:href="#m2e41b8b4a4" x="566.784" y="312.081051" style="fill: #2ca02c; stroke: #2ca02c"/>
     <use xlink:href="#m2e41b8b4a4" x="761.576727" y="467.2404" style="fill: #2ca02c; stroke: #2ca02c"/>
     <use xlink:href="#m2e41b8b4a4" x="956.369455" y="128.196213" style="fill: #2ca02c; stroke: #2ca02c"/>
    </g>
   </g>
   <g id="patch_3">
    <path d="M 138.24 486.3672 
L 138.24 65.5776 
" style="fill: none; stroke: #000000; stroke-width: 0.8; stroke-linejoin: miter; stroke-linecap: square"/>
   </g>
   <g id="patch_4">
    <path d="M 995.328 486.3672 
L 995.328 65.5776 
" style="fill: none; stroke: #000000; stroke-width: 0.8; stroke-linejoin: miter; stroke-linecap: square"/>
   </g>
   <g id="patch_5">
    <path d="M 138.24 486.3672 
L 995.328 486.3672 
" style="fill: none; stroke: #000000; stroke-width: 0.8; stroke-linejoin: miter; stroke-linecap: square"/>
   </g>
   <g id="patch_6">
    <path d="M 138.24 65.5776 
L 995.328 65.5776 
" style="fill: none; stroke: #000000; stroke-width: 0.8; stroke-linejoin: miter; stroke-linecap: square"/>
   </g>
   <g id="text_15">
    <!-- 快递运输费用敏感性检验 -->
    <g transform="translate(478.784 59.5776) scale(0.16 -0.16)">
     <defs>
      <path id="DengXian-5feb" d="M 231 2119 
Q 569 2700 641 3669 
L 1125 3541 
Q 1166 3525 1166 3500 
Q 1159 3481 1113 3456 
Q 1019 3406 966 3194 
Q 825 2591 659 2028 
Q 453 2094 231 2119 
z
M 1838 -538 
Q 3244 122 3603 1619 
L 2784 1619 
Q 2553 1619 2241 1581 
L 2241 1978 
Q 2553 1941 2784 1941 
L 3675 1941 
Q 3738 2559 3763 3372 
L 3231 3372 
Q 3003 3372 2706 3334 
L 2706 3731 
Q 3009 3694 3231 3694 
L 3769 3694 
L 3769 4325 
Q 3769 4666 3731 5019 
L 4263 4941 
Q 4341 4934 4347 4891 
Q 4347 4850 4275 4794 
Q 4128 4678 4128 4325 
L 4128 3694 
L 4972 3694 
Q 5241 3694 5503 3731 
Q 5466 3456 5453 3225 
L 5394 1941 
L 5522 1941 
Q 5791 1941 6047 1978 
L 6047 1581 
Q 5784 1619 5522 1619 
L 4294 1619 
Q 4800 122 6156 -500 
Q 5894 -628 5691 -844 
Q 4378 128 3981 1484 
Q 3675 134 2284 -872 
Q 2094 -684 1838 -538 
z
M 4063 1941 
L 5031 1941 
L 5094 3372 
L 4128 3372 
Q 4116 2625 4063 1941 
z
M 2216 3788 
Q 2425 3219 2566 2694 
L 2163 2559 
Q 2034 3144 1856 3647 
L 2216 3788 
z
M 1275 5038 
L 1766 4959 
Q 1831 4953 1837 4928 
Q 1844 4903 1791 4863 
Q 1678 4763 1672 4434 
L 1672 -306 
Q 1672 -628 1709 -978 
L 1275 -978 
Q 1313 -628 1313 -306 
L 1313 4434 
Q 1313 4703 1275 5038 
z
" transform="scale(0.015625)"/>
      <path id="DengXian-9012" d="M 1856 3628 
L 1556 3347 
Q 1147 3884 641 4306 
L 916 4575 
Q 1453 4078 1856 3628 
z
M 2222 1575 
Q 2278 1831 2297 2059 
L 2344 2528 
Q 2353 2616 2353 2691 
Q 2353 2800 2338 2963 
Q 2644 2925 2847 2925 
L 3669 2925 
L 3669 3647 
L 2713 3647 
Q 2503 3647 2156 3603 
L 2156 4006 
Q 2503 3969 2713 3969 
L 3316 3969 
Q 3003 4334 2638 4609 
L 2906 4878 
Q 3284 4569 3647 4159 
L 3456 3969 
L 4031 3969 
Q 4403 4409 4647 4878 
L 5056 4738 
Q 5125 4709 5125 4690 
Q 5125 4672 5056 4641 
Q 4884 4563 4769 4409 
Q 4603 4166 4441 3969 
L 4959 3969 
Q 5141 3963 5434 4006 
Q 5388 3725 5394 3547 
L 5394 3047 
Q 5388 2881 5434 2566 
Q 5141 2606 4959 2606 
L 4025 2606 
L 4025 1934 
L 5172 1934 
Q 5369 1925 5684 1972 
Q 5650 1759 5644 1491 
Q 5631 1209 5588 909 
Q 5581 334 4594 334 
Q 4569 588 4441 813 
Q 4666 763 4828 763 
Q 5216 763 5216 1056 
Q 5234 1191 5253 1516 
Q 5259 1581 5259 1613 
L 4025 1613 
L 4025 244 
Q 4025 25 4063 -306 
L 3628 -306 
Q 3675 38 3669 244 
L 3669 1313 
Q 3097 634 2297 91 
Q 2169 288 1913 428 
Q 2797 738 3481 1613 
L 2688 1613 
Q 2509 1613 2222 1575 
z
M 2631 1934 
L 3669 1934 
L 3669 2606 
L 2694 2606 
L 2631 1934 
z
M 4025 3647 
L 4025 2925 
L 5038 2925 
L 5038 3647 
L 4025 3647 
z
M 1594 2547 
Q 1556 2234 1556 2003 
L 1556 122 
Q 1919 25 2375 -206 
Q 2784 -403 3138 -453 
Q 3391 -497 3950 -497 
Q 4184 -497 4325 -494 
Q 5253 -475 6022 -359 
Q 5881 -575 5838 -850 
Q 4959 -872 4159 -872 
Q 3406 -872 3003 -788 
Q 2606 -709 2138 -459 
Q 1716 -250 1472 -250 
Q 1228 -238 984 -428 
Q 775 -594 603 -850 
L 294 -434 
Q 794 -38 1197 91 
L 1197 2188 
L 897 2188 
Q 697 2188 397 2150 
L 397 2547 
Q 697 2509 897 2509 
L 1075 2509 
Q 1294 2503 1594 2547 
z
" transform="scale(0.015625)"/>
      <path id="DengXian-8fd0" d="M 744 4353 
L 1038 4609 
Q 1588 4109 2034 3559 
L 1722 3291 
Q 1294 3853 744 4353 
z
M 4331 1650 
L 4666 1869 
Q 5241 1019 5619 263 
L 5247 72 
Q 5153 319 4997 581 
Q 2584 353 2259 172 
L 2088 628 
Q 2272 678 2425 813 
Q 2963 1447 3397 2553 
L 2553 2553 
Q 2297 2553 1991 2516 
L 1991 2925 
Q 2297 2888 2553 2888 
L 5394 2888 
Q 5684 2888 5931 2925 
L 5931 2516 
Q 5644 2553 5394 2553 
L 3506 2553 
L 3897 2381 
Q 3950 2356 3950 2336 
Q 3950 2316 3897 2297 
Q 3713 2241 3578 1997 
Q 3200 1350 2747 678 
Q 3781 756 4831 872 
Q 4609 1259 4331 1650 
z
M 2406 4000 
L 2406 4409 
Q 2725 4372 2944 4372 
L 5013 4372 
Q 5234 4372 5516 4409 
L 5516 4000 
Q 5269 4038 5013 4038 
L 2944 4038 
Q 2706 4038 2406 4000 
z
M 1644 2547 
Q 1606 2209 1606 2003 
L 1606 191 
Q 1825 97 2119 -63 
Q 2463 -250 2859 -306 
Q 3250 -372 4013 -372 
Q 5172 -372 6100 -197 
Q 5972 -434 5919 -697 
Q 5141 -722 4000 -722 
Q 3163 -728 2797 -647 
Q 2419 -575 1906 -300 
Q 1491 -97 1409 -116 
Q 1094 -128 609 -697 
Q 469 -500 288 -347 
Q 794 56 1247 213 
L 1247 2175 
L 844 2175 
Q 575 2175 325 2138 
L 325 2547 
Q 609 2509 844 2509 
L 1088 2509 
Q 1338 2509 1644 2547 
z
" transform="scale(0.015625)"/>
      <path id="DengXian-8f93" d="M 1906 2828 
Q 3072 3469 3763 4947 
L 4213 4825 
Q 4275 4806 4275 4781 
Q 4275 4763 4197 4722 
Q 4153 4697 4116 4659 
Q 4788 3494 6144 3144 
Q 5906 2981 5778 2778 
Q 4544 3372 3909 4397 
Q 3091 3213 2316 2566 
Q 2125 2725 1906 2828 
z
M 3066 2913 
L 3066 3284 
Q 3397 3244 3559 3244 
L 4422 3244 
Q 4622 3250 4922 3284 
L 4922 2913 
Q 4588 2944 4422 2950 
L 3559 2950 
Q 3397 2944 3066 2913 
z
M 3694 -275 
L 3694 288 
L 2944 288 
L 2944 -384 
Q 2950 -588 2981 -941 
L 2584 -941 
Q 2619 -588 2625 -384 
L 2625 1863 
Q 2619 2100 2584 2431 
Q 2956 2400 3156 2394 
L 3500 2394 
Q 3713 2400 4050 2431 
Q 4019 2100 4013 1881 
L 4013 -384 
Q 4019 -691 3903 -781 
Q 3803 -884 3384 -941 
Q 3347 -678 3213 -475 
Q 3353 -503 3447 -503 
Q 3731 -503 3714 -537 
Q 3697 -572 3697 -325 
Q 3697 -294 3694 -275 
z
M 2944 1191 
L 2944 581 
L 3694 581 
L 3694 1191 
L 2944 1191 
z
M 2944 2100 
L 2944 1484 
L 3694 1484 
L 3694 2100 
L 2944 2100 
z
M 4384 2234 
L 4831 2156 
Q 4922 2144 4934 2119 
Q 4941 2094 4878 2034 
Q 4756 1900 4744 1684 
L 4744 525 
Q 4750 306 4781 -13 
L 4384 -13 
Q 4416 313 4422 525 
L 4422 1625 
Q 4416 1819 4384 2234 
z
M 4494 -453 
Q 4750 -513 4916 -513 
Q 5250 -513 5229 -566 
Q 5209 -619 5209 -322 
Q 5209 -294 5203 -263 
L 5203 2034 
Q 5197 2241 5166 2644 
L 5625 2566 
Q 5722 2553 5722 2528 
Q 5734 2509 5672 2450 
Q 5556 2328 5550 2094 
L 5550 -331 
Q 5563 -697 5388 -800 
Q 5241 -922 4666 -953 
Q 4622 -691 4494 -453 
z
M 1350 4897 
L 1806 4744 
Q 1900 4709 1900 4684 
Q 1900 4659 1809 4603 
Q 1716 4544 1638 4341 
Q 1563 4128 1497 3897 
L 2081 3897 
Q 2253 3897 2584 3938 
L 2584 3553 
Q 2284 3584 2081 3591 
L 1394 3591 
Q 1081 2713 769 1984 
L 1394 1984 
L 1394 2522 
Q 1388 2772 1356 3128 
L 1819 3053 
Q 1913 3041 1913 3016 
Q 1919 2988 1844 2913 
Q 1741 2816 1741 2584 
L 1741 1984 
L 1888 1984 
Q 2081 1991 2394 2022 
L 2394 1638 
Q 2034 1678 1888 1678 
L 1741 1678 
L 1741 750 
Q 2181 844 2444 953 
Q 2413 788 2406 525 
Q 2034 469 1741 409 
L 1741 -378 
Q 1741 -550 1778 -922 
L 1356 -922 
Q 1388 -588 1394 -378 
L 1394 334 
Q 1350 319 1269 300 
Q 806 184 403 72 
L 231 469 
Q 728 506 1394 672 
L 1394 1678 
L 884 1678 
Q 659 1678 447 1606 
Q 359 1813 256 1984 
Q 428 2028 581 2381 
Q 825 2881 1019 3591 
L 781 3591 
Q 588 3591 288 3553 
L 288 3938 
Q 569 3903 781 3897 
L 1106 3897 
Q 1253 4391 1350 4897 
z
" transform="scale(0.015625)"/>
      <path id="DengXian-8d39" d="M 366 1813 
Q 1844 1925 2194 2700 
L 1422 2700 
Q 1141 2700 891 2663 
Q 947 2881 959 3138 
L 966 3244 
Q 972 3316 972 3413 
Q 972 3566 953 3731 
Q 1228 3694 1466 3694 
L 2375 3694 
Q 2394 3897 2394 4116 
L 1409 4116 
Q 1184 4116 903 4078 
L 903 4459 
Q 1191 4422 1409 4422 
L 2400 4422 
Q 2400 4744 2369 5056 
L 2816 4991 
Q 2925 4978 2925 4947 
Q 2938 4928 2847 4844 
Q 2778 4800 2772 4616 
Q 2772 4575 2766 4519 
Q 2766 4453 2759 4422 
L 3681 4422 
L 3681 4475 
Q 3681 4744 3641 5050 
L 4109 4978 
Q 4206 4966 4206 4941 
Q 4213 4909 4122 4844 
Q 4031 4806 4038 4475 
L 4038 4422 
L 4775 4422 
Q 5025 4422 5294 4459 
Q 5253 4231 5253 4000 
L 5253 3803 
Q 5253 3578 5294 3347 
Q 5056 3384 4775 3384 
L 4038 3384 
L 4038 3009 
L 5369 3009 
Q 5619 3009 5856 3047 
Q 5766 2322 5619 2188 
Q 5497 2016 4909 1978 
Q 4825 2203 4697 2381 
Q 4928 2353 5081 2353 
Q 5225 2353 5259 2381 
Q 5369 2406 5416 2700 
L 4038 2700 
L 4038 2541 
Q 4050 2228 4078 2003 
L 3634 2003 
Q 3669 2253 3681 2547 
L 3681 2700 
L 2619 2700 
Q 2431 2188 1913 1869 
L 4603 1869 
Q 4831 1869 5159 1906 
Q 5119 1600 5119 1369 
L 5119 666 
Q 5119 434 5159 91 
L 4722 97 
Q 4763 422 4763 666 
L 4763 1563 
L 1856 1563 
L 1856 569 
Q 1856 313 1894 13 
L 1459 13 
Q 1497 288 1497 569 
L 1497 1172 
Q 1497 1394 1459 1631 
Q 1184 1497 697 1381 
Q 569 1613 366 1813 
z
M 1325 3384 
L 1306 3009 
L 2297 3009 
Q 2344 3206 2363 3384 
L 1325 3384 
z
M 2688 3009 
L 3681 3009 
L 3681 3384 
L 2731 3384 
Q 2725 3213 2688 3009 
z
M 2741 3694 
L 3681 3694 
L 3681 4116 
L 2759 4116 
Q 2759 3897 2741 3694 
z
M 4038 3694 
L 4897 3694 
L 4897 4116 
L 4038 4116 
L 4038 3694 
z
M 609 -594 
Q 3066 -331 3078 1338 
L 3553 1234 
Q 3653 1209 3653 1184 
Q 3659 1159 3578 1113 
Q 3463 1063 3384 794 
Q 3188 -466 922 -1013 
Q 800 -775 609 -594 
z
M 3425 78 
L 3603 422 
Q 4716 -44 5697 -544 
L 5503 -934 
Q 4544 -397 3425 78 
z
" transform="scale(0.015625)"/>
      <path id="DengXian-7528" d="M 1844 4672 
L 5069 4672 
Q 5331 4672 5656 4709 
Q 5619 4341 5619 4097 
L 5619 -206 
Q 5625 -544 5416 -659 
Q 5216 -781 4569 -813 
Q 4538 -569 4391 -331 
Q 4725 -378 4916 -378 
Q 5038 -378 5094 -359 
Q 5269 -319 5259 -97 
L 5259 1338 
L 3634 1338 
L 3634 172 
Q 3634 -44 3675 -347 
L 3225 -347 
Q 3263 -31 3263 172 
L 3263 1338 
L 1638 1338 
Q 1600 78 872 -953 
Q 691 -788 403 -691 
Q 1325 44 1288 1913 
L 1288 4109 
Q 1288 4366 1247 4709 
Q 1556 4672 1844 4672 
z
M 1644 2753 
L 1644 1656 
L 3263 1656 
L 3263 2753 
L 1644 2753 
z
M 1644 4353 
L 1644 3072 
L 3263 3072 
L 3263 4353 
L 1644 4353 
z
M 3634 2753 
L 3634 1656 
L 5259 1656 
L 5259 2753 
L 3634 2753 
z
M 3634 4353 
L 3634 3072 
L 5259 3072 
L 5259 4353 
L 3634 4353 
z
" transform="scale(0.015625)"/>
      <path id="DengXian-654f" d="M 1459 1191 
L 1722 1422 
Q 2059 1081 2272 825 
L 2022 569 
Q 1778 916 1459 1191 
z
M 1522 2516 
L 1747 2772 
Q 2009 2578 2394 2209 
L 2163 1953 
Q 1778 2344 1522 2516 
z
M 281 1516 
L 281 1888 
Q 588 1856 916 1856 
Q 922 2059 947 2606 
Q 953 2688 953 2725 
Q 953 2747 978 3272 
Q 1184 3231 1491 3231 
L 2638 3231 
Q 3009 3231 3175 3272 
Q 3169 3213 3163 3053 
Q 3156 2931 3150 2853 
L 3138 2606 
Q 3938 3500 4166 5063 
L 4666 4884 
Q 4763 4850 4763 4819 
Q 4763 4788 4666 4756 
Q 4538 4697 4494 4575 
Q 4359 4128 4159 3641 
L 5538 3641 
Q 5875 3641 6069 3681 
L 6069 3284 
Q 5875 3322 5556 3322 
L 5375 3322 
Q 5281 1441 4850 647 
Q 5550 -172 6216 -409 
Q 5881 -544 5778 -756 
Q 5106 -206 4647 306 
Q 4072 -403 3263 -947 
Q 3097 -728 2853 -581 
Q 3816 -263 4409 653 
Q 3903 1453 3731 2509 
Q 3781 2509 4078 2566 
Q 4097 2400 4128 2247 
Q 4275 1588 4616 1006 
Q 4934 1716 5006 3322 
L 4006 3322 
Q 3794 2822 3488 2375 
Q 3322 2503 3122 2566 
Q 3122 2444 3103 2169 
Q 3091 1959 3091 1856 
Q 3591 1875 3681 1888 
L 3681 1516 
Q 3603 1516 3156 1544 
Q 3097 1550 3072 1550 
Q 3066 1344 3047 813 
Q 3041 563 3034 441 
Q 3334 453 3547 481 
L 3547 91 
Q 3456 97 3238 109 
Q 3103 116 3028 122 
Q 3003 -97 2938 -256 
Q 2766 -659 1894 -744 
Q 1888 -538 1728 -256 
Q 1947 -291 2113 -291 
Q 2622 -291 2631 38 
L 2650 134 
L 1241 134 
Q 947 134 756 97 
Q 806 488 819 575 
Q 831 744 872 1106 
Q 897 1409 909 1550 
Q 831 1544 691 1544 
Q 494 1538 281 1516 
z
M 1241 1550 
Q 1228 1375 1197 916 
Q 1178 588 1166 441 
L 2663 441 
Q 2681 763 2706 1409 
Q 2713 1503 2713 1550 
L 1241 1550 
z
M 1338 2925 
Q 1325 2713 1288 2175 
Q 1269 1966 1259 1856 
L 2725 1856 
Q 2731 2009 2747 2322 
Q 2766 2741 2772 2925 
L 1338 2925 
z
M 1350 5006 
L 1778 4838 
Q 1869 4800 1881 4775 
Q 1894 4744 1825 4716 
Q 1697 4666 1638 4569 
Q 1588 4475 1459 4238 
Q 1422 4166 1409 4134 
L 2906 4134 
Q 3244 4134 3438 4172 
L 3438 3788 
Q 3244 3828 2925 3828 
L 1228 3828 
Q 997 3391 634 3003 
Q 481 3138 244 3231 
Q 1050 3903 1350 5006 
z
" transform="scale(0.015625)"/>
      <path id="DengXian-611f" d="M 288 934 
Q 1013 1550 991 3078 
L 991 3597 
Q 991 3781 953 4128 
Q 1259 4091 1459 4091 
L 3738 4091 
Q 3719 4206 3706 4416 
Q 3681 4722 3653 4966 
L 4141 4891 
Q 4206 4878 4206 4856 
Q 4213 4831 4153 4788 
Q 4059 4728 4059 4466 
Q 4059 4316 4091 4091 
L 5141 4091 
Q 5472 4097 5716 4134 
L 5716 3725 
Q 5409 3769 5141 3769 
L 4122 3769 
Q 4269 2963 4531 2369 
Q 4878 2847 5094 3431 
L 5538 3156 
Q 5588 3122 5575 3097 
Q 5569 3072 5491 3053 
Q 5344 3003 5253 2869 
Q 5013 2472 4703 2009 
Q 5113 1313 5441 1294 
Q 5631 1306 5734 2003 
Q 5906 1778 6113 1709 
Q 5856 831 5528 878 
Q 5031 856 4469 1709 
Q 4084 1247 3738 922 
Q 3597 1075 3353 1178 
Q 3847 1472 4288 2041 
Q 3963 2766 3775 3769 
L 1350 3769 
L 1350 3066 
Q 1394 1697 750 750 
Q 556 863 288 934 
z
M 903 -756 
Q 709 -622 513 -538 
Q 1056 50 1209 697 
L 1619 519 
Q 1672 500 1664 476 
Q 1656 453 1600 422 
Q 1528 391 1453 244 
Q 1178 -275 903 -756 
z
M 3513 3391 
L 3513 3009 
Q 3200 3053 3003 3047 
L 2113 3047 
Q 1906 3047 1600 3009 
L 1600 3391 
Q 1900 3353 2113 3353 
L 3003 3353 
Q 3219 3353 3513 3391 
z
M 1691 2584 
Q 1966 2547 2138 2547 
L 2975 2547 
Q 3175 2541 3444 2584 
Q 3406 2291 3406 2106 
L 3406 1766 
Q 3406 1588 3444 1294 
Q 3156 1338 2975 1331 
L 2150 1331 
Q 1959 1331 1691 1294 
Q 1728 1563 1728 1734 
L 1728 2113 
Q 1728 2266 1691 2584 
z
M 2075 2241 
L 2075 1638 
L 3059 1638 
L 3059 2241 
L 2075 2241 
z
M 1931 744 
L 2419 678 
Q 2497 672 2497 641 
Q 2503 616 2438 550 
Q 2328 441 2328 172 
L 2328 -225 
Q 2322 -409 2413 -447 
Q 2491 -500 2853 -519 
Q 2969 -525 3138 -525 
Q 3406 -525 3719 -506 
Q 4313 -513 4331 269 
Q 4525 84 4750 19 
Q 4525 -863 3841 -850 
Q 3581 -881 3188 -881 
Q 2994 -881 2719 -872 
Q 2253 -856 2119 -744 
Q 1966 -634 1972 -288 
L 1972 213 
Q 1972 428 1931 744 
z
M 2859 519 
L 3103 781 
Q 3494 481 3841 147 
L 3584 -141 
Q 3322 178 2859 519 
z
M 4403 4684 
L 4647 4953 
Q 5006 4703 5331 4416 
L 5075 4134 
Q 4813 4416 4403 4684 
z
M 4769 422 
L 5081 666 
Q 5550 178 5919 -269 
L 5594 -563 
Q 5222 -13 4769 422 
z
" transform="scale(0.015625)"/>
      <path id="DengXian-6027" d="M 416 2069 
Q 666 2656 722 3609 
L 1131 3525 
Q 1216 3513 1216 3500 
Q 1222 3488 1178 3431 
Q 1081 3334 1056 3175 
Q 941 2534 813 2003 
Q 659 2047 416 2069 
z
M 2216 3763 
Q 2400 3250 2572 2688 
L 2216 2559 
Q 2059 3213 1881 3647 
L 2216 3763 
z
M 2241 2034 
Q 2975 2859 3078 4422 
L 3566 4269 
Q 3628 4250 3634 4238 
Q 3634 4225 3584 4200 
Q 3456 4134 3391 3866 
Q 3372 3769 3322 3584 
Q 3291 3456 3278 3413 
L 4159 3413 
L 4159 4347 
Q 4159 4513 4122 4966 
L 4594 4891 
Q 4672 4878 4678 4844 
Q 4691 4819 4634 4775 
Q 4531 4666 4519 4313 
L 4519 3413 
L 5288 3413 
Q 5434 3419 5766 3450 
L 5766 3053 
Q 5503 3084 5288 3091 
L 4519 3091 
L 4519 1741 
L 5113 1741 
Q 5234 1741 5600 1778 
L 5600 1381 
Q 5275 1416 5113 1422 
L 4519 1422 
L 4519 -275 
L 5478 -275 
Q 5538 -275 5844 -250 
Q 5919 -250 5959 -250 
L 5959 -634 
Q 5606 -594 5478 -594 
L 3022 -594 
Q 2888 -594 2541 -634 
L 2541 -250 
Q 2578 -250 2700 -256 
Q 2963 -275 3022 -275 
L 4159 -275 
L 4159 1422 
L 3513 1422 
Q 3353 1422 3041 1381 
L 3041 1778 
Q 3347 1747 3513 1741 
L 4159 1741 
L 4159 3091 
L 3206 3091 
Q 3041 2578 2675 1850 
Q 2484 1978 2241 2034 
z
M 1375 4922 
L 1850 4850 
Q 1906 4844 1912 4819 
Q 1919 4794 1875 4756 
Q 1759 4647 1759 4334 
L 1759 -294 
Q 1759 -500 1797 -953 
L 1375 -953 
Q 1409 -569 1416 -294 
L 1416 4391 
Q 1409 4575 1375 4922 
z
" transform="scale(0.015625)"/>
      <path id="DengXian-68c0" d="M 3975 4947 
L 4434 4769 
Q 4519 4738 4519 4714 
Q 4519 4691 4434 4672 
Q 4347 4647 4300 4550 
Q 4909 3175 6156 2688 
Q 5863 2491 5819 2284 
Q 4788 2869 4103 4159 
Q 3647 3188 2688 2216 
Q 2516 2419 2203 2491 
Q 3513 3291 3975 4947 
z
M 5159 1631 
L 5619 1447 
Q 5722 1409 5709 1381 
Q 5709 1356 5594 1313 
Q 5484 1269 5394 1019 
Q 5153 334 4844 -416 
L 5522 -416 
Q 5728 -422 6047 -378 
L 6047 -788 
Q 5728 -750 5538 -750 
L 2888 -750 
Q 2625 -744 2375 -788 
L 2375 -378 
Q 2675 -422 2888 -416 
L 4459 -416 
Q 5006 831 5159 1631 
z
M 3009 1556 
Q 3384 966 3669 313 
L 3297 122 
Q 3078 756 2675 1356 
L 3009 1556 
z
M 3084 2125 
L 3084 2534 
Q 3366 2491 3603 2497 
L 4850 2497 
Q 5056 2491 5375 2534 
L 5375 2125 
Q 5063 2169 4856 2163 
L 3603 2163 
Q 3413 2163 3084 2125 
z
M 3572 1678 
L 3928 1863 
Q 4206 1325 4531 581 
L 4166 372 
Q 3944 1056 3572 1678 
z
M 1375 3034 
L 947 3034 
Q 794 3041 531 2994 
L 531 3406 
Q 738 3359 922 3366 
L 1422 3366 
L 1422 4275 
Q 1428 4603 1381 4909 
L 1863 4844 
Q 1941 4838 1941 4806 
Q 1941 4781 1856 4738 
Q 1766 4672 1766 4334 
L 1766 3366 
L 2022 3366 
Q 2181 3359 2463 3406 
L 2463 2994 
Q 2222 3034 2034 3034 
L 1766 3034 
L 1766 2516 
Q 2291 2094 2619 1766 
Q 2438 1619 2328 1472 
Q 2041 1831 1766 2081 
L 1766 -409 
Q 1766 -666 1806 -991 
L 1381 -991 
Q 1428 -691 1422 -409 
L 1422 2106 
Q 1038 1222 709 684 
Q 475 872 250 878 
Q 928 1528 1375 3034 
z
" transform="scale(0.015625)"/>
      <path id="DengXian-9a8c" d="M 197 672 
Q 891 641 1869 972 
Q 1806 703 1797 563 
Q 781 403 353 213 
Q 319 378 197 672 
z
M 2209 4666 
Q 2203 4622 2194 4550 
Q 2163 4231 2163 4134 
Q 2144 3822 2113 3181 
Q 2081 2419 2053 2009 
L 2156 2009 
Q 2456 2009 2597 2047 
Q 2578 1906 2553 1409 
Q 2547 1306 2534 1100 
Q 2491 191 2444 -250 
Q 2456 -800 1416 -909 
Q 1375 -594 1216 -391 
Q 1488 -447 1666 -447 
Q 1831 -447 1913 -397 
Q 2106 -300 2131 97 
Q 2194 1159 2209 1703 
L 1088 1703 
Q 794 1703 588 1663 
Q 603 1716 628 1972 
Q 641 2028 641 2053 
Q 691 2497 709 3059 
Q 719 3338 719 3491 
Q 719 3731 703 3922 
L 1209 3859 
Q 1269 3847 1269 3822 
Q 1269 3788 1209 3756 
Q 1088 3694 1075 3494 
Q 1056 2663 997 2009 
L 1684 2009 
Q 1766 2969 1806 4306 
L 850 4306 
Q 506 4306 341 4269 
L 341 4666 
Q 500 4628 850 4628 
L 1678 4628 
Q 1947 4634 2209 4666 
z
M 2100 2566 
Q 3328 3353 3744 4947 
L 4275 4806 
Q 4325 4794 4319 4775 
Q 4319 4763 4269 4728 
Q 4225 4697 4166 4609 
Q 4916 3175 6203 2853 
Q 5919 2713 5806 2450 
Q 4525 3122 3963 4269 
Q 3413 3128 2553 2344 
Q 2381 2491 2100 2566 
z
M 5191 1819 
L 5703 1575 
Q 5753 1550 5753 1522 
Q 5747 1497 5697 1484 
Q 5509 1453 5441 1203 
Q 5247 603 4872 -331 
L 5388 -331 
Q 5734 -331 5906 -294 
L 5906 -691 
Q 5722 -653 5394 -653 
L 3200 -653 
Q 2881 -653 2688 -691 
L 2688 -294 
Q 2847 -331 3200 -331 
L 4513 -331 
Q 5044 903 5191 1819 
z
M 3309 84 
Q 3116 775 2809 1356 
L 3163 1509 
Q 3469 872 3669 244 
L 3309 84 
z
M 3072 2344 
L 3072 2741 
Q 3238 2700 3584 2700 
L 4763 2700 
Q 5081 2700 5281 2741 
L 5281 2344 
Q 5075 2381 4769 2381 
L 3584 2381 
Q 3250 2381 3072 2344 
z
M 4141 469 
Q 3969 1166 3700 1759 
L 4063 1888 
Q 4359 1172 4500 616 
L 4141 469 
z
" transform="scale(0.015625)"/>
     </defs>
     <use xlink:href="#DengXian-5feb"/>
     <use xlink:href="#DengXian-9012" transform="translate(100 0)"/>
     <use xlink:href="#DengXian-8fd0" transform="translate(200 0)"/>
     <use xlink:href="#DengXian-8f93" transform="translate(300 0)"/>
     <use xlink:href="#DengXian-8d39" transform="translate(400 0)"/>
     <use xlink:href="#DengXian-7528" transform="translate(500 0)"/>
     <use xlink:href="#DengXian-654f" transform="translate(600 0)"/>
     <use xlink:href="#DengXian-611f" transform="translate(700 0)"/>
     <use xlink:href="#DengXian-6027" transform="translate(800 0)"/>
     <use xlink:href="#DengXian-68c0" transform="translate(900 0)"/>
     <use xlink:href="#DengXian-9a8c" transform="translate(1000 0)"/>
    </g>
   </g>
   <g id="legend_1">
    <g id="patch_7">
     <path d="M 146.64 127.630725 
L 270.0075 127.630725 
Q 272.4075 127.630725 272.4075 125.230725 
L 272.4075 73.9776 
Q 272.4075 71.5776 270.0075 71.5776 
L 146.64 71.5776 
Q 144.24 71.5776 144.24 73.9776 
L 144.24 125.230725 
Q 144.24 127.630725 146.64 127.630725 
z
" style="fill: #ffffff; opacity: 0.8; stroke: #cccccc; stroke-linejoin: miter"/>
    </g>
    <g id="line2d_18">
     <path d="M 149.04 80.879475 
L 161.04 80.879475 
L 173.04 80.879475 
" style="fill: none; stroke: #1f77b4; stroke-width: 1.5; stroke-linecap: square"/>
     <g>
      <use xlink:href="#mf295fd9c54" x="161.04" y="80.879475" style="fill: #1f77b4; stroke: #1f77b4"/>
     </g>
    </g>
    <g id="text_16">
     <!-- 额定装货量-195 -->
     <g transform="translate(182.64 85.079475) scale(0.12 -0.12)">
      <defs>
       <path id="DengXian-989d" d="M 1703 2069 
Q 1516 2222 1222 2394 
L 1484 2644 
Q 1722 2503 1953 2328 
Q 2194 2566 2413 2969 
L 1422 2969 
Q 1131 2578 703 2069 
Q 581 2203 306 2303 
Q 1069 2859 1503 3903 
L 1913 3706 
Q 1984 3675 1971 3654 
Q 1959 3634 1863 3603 
Q 1813 3578 1747 3506 
Q 1722 3463 1728 3475 
Q 1656 3347 1619 3278 
L 2516 3278 
Q 2747 3278 3047 3316 
Q 2656 2613 2228 2131 
Q 2766 1753 3309 1269 
Q 3128 1134 3028 991 
Q 2650 1369 1991 1875 
Q 1550 1453 1056 1119 
L 2291 1119 
Q 2491 1119 2797 1159 
Q 2753 819 2759 634 
L 2759 -197 
Q 2759 -359 2797 -622 
L 2375 -622 
Q 2413 -466 2413 -372 
L 1338 -372 
Q 1338 -494 1375 -738 
L 953 -738 
Q 991 -459 991 -269 
L 991 831 
Q 991 941 959 1063 
Q 763 928 569 813 
Q 488 1019 219 1159 
Q 1038 1394 1703 2069 
z
M 1338 813 
L 1338 -78 
L 2413 -78 
L 2413 813 
L 1338 813 
z
M 459 4263 
Q 716 4219 903 4225 
L 1984 4225 
Q 1734 4519 1388 4844 
L 1650 5069 
Q 2009 4722 2284 4416 
L 2041 4225 
L 2906 4225 
Q 3084 4225 3334 4263 
Q 3291 4050 3297 3859 
L 3297 3750 
Q 3297 3622 3334 3372 
L 2913 3372 
Q 2956 3584 2950 3750 
L 2950 3916 
L 844 3916 
L 844 3738 
Q 838 3609 884 3366 
L 459 3366 
Q 506 3578 500 3738 
L 500 3859 
Q 506 4031 459 4263 
z
M 2772 -672 
Q 3803 -366 4141 409 
Q 4413 988 4413 2106 
Q 4413 2466 4384 2881 
L 4928 2809 
Q 4959 2803 4959 2791 
Q 4959 2772 4928 2741 
Q 4813 2619 4788 2406 
Q 4750 750 4447 200 
Q 4172 -428 3128 -1056 
Q 3034 -856 2772 -672 
z
M 5766 469 
L 5331 469 
Q 5369 788 5369 991 
L 5369 3225 
L 3847 3225 
L 3847 922 
Q 3847 722 3884 447 
L 3450 447 
Q 3488 716 3488 922 
L 3488 3109 
Q 3494 3316 3450 3584 
Q 3731 3541 3916 3547 
L 4141 3547 
Q 4300 4025 4366 4313 
L 3653 4313 
Q 3494 4319 3219 4275 
L 3219 4672 
Q 3456 4628 3641 4634 
L 5644 4634 
Q 5797 4634 6059 4672 
L 6059 4275 
Q 5778 4319 5644 4313 
L 4769 4313 
Q 4672 3956 4506 3547 
L 5288 3547 
Q 5472 3547 5766 3584 
Q 5722 3303 5728 3078 
L 5728 978 
Q 5728 750 5766 469 
z
M 4922 391 
Q 5575 -122 6125 -653 
L 5838 -909 
Q 5300 -341 4666 122 
L 4922 391 
z
" transform="scale(0.015625)"/>
       <path id="DengXian-5b9a" d="M 206 -622 
Q 1497 84 1625 1838 
L 2113 1722 
Q 2209 1697 2203 1672 
Q 2203 1650 2094 1588 
Q 1997 1528 1953 1331 
Q 1900 1075 1813 763 
Q 2163 56 3041 -178 
L 3041 2394 
L 1875 2394 
Q 1684 2394 1381 2356 
L 1381 2753 
Q 1650 2706 1875 2713 
L 4581 2713 
Q 4788 2713 5081 2753 
L 5081 2356 
Q 4769 2400 4581 2394 
L 3413 2394 
L 3413 1416 
L 4884 1416 
Q 5113 1409 5388 1453 
L 5388 1056 
Q 5119 1094 4884 1094 
L 3413 1094 
L 3413 -250 
Q 4166 -325 4816 -325 
Q 5469 -325 6081 -250 
Q 5953 -409 5919 -744 
Q 3603 -728 2894 -525 
Q 2144 -366 1650 353 
Q 1247 -391 628 -916 
Q 475 -744 206 -622 
z
M 2772 5056 
Q 3309 4728 3775 4359 
L 3578 4072 
L 5269 4072 
Q 5472 4072 5791 4109 
Q 5747 3822 5753 3609 
L 5753 3316 
Q 5753 3138 5791 2809 
L 5356 2809 
Q 5394 3097 5394 3316 
L 5394 3750 
L 1131 3750 
L 1131 3353 
Q 1131 3144 1172 2847 
L 738 2847 
Q 775 3144 775 3353 
L 775 3597 
Q 781 3816 738 4109 
Q 1019 4063 1269 4072 
L 3456 4072 
Q 3103 4372 2541 4716 
L 2772 5056 
z
" transform="scale(0.015625)"/>
       <path id="DengXian-88c5" d="M 544 2631 
Q 1428 2925 2169 3316 
L 2169 4269 
Q 2169 4519 2131 4788 
L 2597 4722 
Q 2669 4709 2669 4678 
Q 2669 4647 2597 4616 
Q 2516 4575 2516 4269 
L 2516 2516 
Q 2516 2266 2553 2034 
L 2131 2034 
Q 2175 2272 2169 2516 
L 2169 2956 
Q 1269 2516 775 2209 
Q 709 2438 544 2631 
z
M 806 4238 
L 1056 4506 
Q 1416 4238 1850 3794 
L 1588 3513 
Q 1184 3956 806 4238 
z
M 409 219 
Q 1838 378 2650 1350 
L 978 1350 
Q 756 1350 488 1313 
L 488 1697 
Q 684 1656 959 1656 
L 3250 1656 
Q 3003 1894 2669 2100 
L 2938 2388 
Q 3250 2175 3647 1838 
L 3494 1656 
L 5300 1656 
Q 5600 1656 5797 1697 
L 5797 1313 
Q 5509 1350 5300 1350 
L 3156 1350 
Q 2834 991 2419 634 
L 2419 -459 
Q 3078 -159 3519 116 
Q 3494 -56 3481 -294 
Q 2713 -666 2194 -1025 
Q 2069 -800 1894 -647 
Q 2081 -575 2059 -353 
L 2059 428 
Q 1497 78 703 -197 
Q 603 38 409 219 
z
M 4531 128 
Q 5159 -269 5978 -403 
Q 5753 -641 5656 -838 
Q 4056 -250 3188 884 
Q 3347 1019 3444 1141 
Q 3731 697 4281 288 
Q 4634 703 4844 1147 
L 5222 819 
Q 5272 781 5272 759 
Q 5272 756 5265 742 
Q 5259 728 5184 716 
Q 4978 678 4813 475 
Q 4691 300 4531 128 
z
M 4403 4341 
L 4403 4063 
L 5369 4063 
Q 5678 4063 5863 4103 
L 5863 3719 
Q 5678 3756 5369 3756 
L 4403 3756 
L 4403 2797 
L 5069 2797 
Q 5350 2797 5569 2834 
L 5569 2450 
Q 5300 2491 5069 2491 
L 3584 2491 
Q 3359 2491 3091 2450 
L 3091 2834 
Q 3328 2797 3584 2797 
L 4056 2797 
L 4056 3756 
L 3284 3756 
Q 2988 3756 2791 3719 
L 2791 4103 
Q 2981 4063 3284 4063 
L 4056 4063 
L 4056 4341 
Q 4056 4659 4019 4850 
L 4459 4788 
Q 4525 4775 4538 4744 
Q 4538 4703 4481 4672 
Q 4403 4628 4403 4341 
z
" transform="scale(0.015625)"/>
       <path id="DengXian-8d27" d="M 2138 5000 
L 2553 4781 
Q 2644 4738 2638 4709 
Q 2631 4691 2522 4641 
Q 2369 4575 2234 4416 
Q 2188 4366 2125 4288 
Q 2041 4191 1997 4147 
L 1997 2913 
Q 2003 2713 2034 2363 
L 1600 2363 
Q 1638 2747 1638 2913 
L 1638 3803 
Q 1088 3328 666 3041 
Q 538 3219 300 3366 
Q 1375 3822 2138 5000 
z
M 2491 3578 
Q 2834 3566 3450 3763 
L 3450 4397 
Q 3444 4622 3413 4991 
L 3872 4922 
Q 4000 4903 4006 4878 
Q 4019 4850 3928 4775 
Q 3809 4684 3809 4409 
L 3809 3878 
Q 4856 4319 5209 4722 
L 5631 4422 
Q 5666 4400 5666 4372 
Q 5666 4359 5663 4353 
Q 5638 4313 5575 4306 
Q 5394 4313 5106 4122 
Q 4531 3775 3809 3506 
L 3809 3150 
Q 3806 3131 3806 3100 
Q 3806 2888 4147 2875 
Q 4197 2869 4300 2869 
Q 4372 2869 4709 2869 
Q 5172 2869 5306 2913 
Q 5453 2956 5528 3138 
Q 5581 3244 5613 3566 
Q 5691 3431 6059 3284 
Q 6003 3138 5931 2969 
Q 5819 2700 5619 2613 
Q 5441 2516 4978 2509 
Q 4706 2506 4488 2506 
Q 4269 2506 4103 2509 
Q 3447 2509 3447 2969 
Q 3447 3009 3450 3041 
L 3450 3366 
Q 3200 3278 2747 3138 
Q 2631 3413 2491 3578 
z
M 3066 1434 
L 3513 1338 
Q 3609 1319 3609 1294 
Q 3609 1269 3513 1191 
Q 3450 1172 3359 806 
Q 3244 -441 1125 -922 
Q 984 -672 794 -519 
Q 2291 -347 2700 191 
Q 3016 556 3066 1434 
z
M 5153 2106 
Q 5119 1747 5113 1556 
L 5113 756 
Q 5113 575 5153 206 
L 4716 206 
Q 4750 550 4756 756 
L 4756 1747 
L 1825 1747 
L 1825 728 
Q 1831 525 1863 178 
L 1428 178 
Q 1459 531 1466 728 
L 1466 1575 
Q 1459 1784 1428 2106 
Q 1759 2069 1972 2069 
L 4575 2069 
Q 4744 2069 5153 2106 
z
M 3788 447 
Q 4703 56 5791 -481 
L 5544 -872 
Q 4603 -288 3616 97 
L 3788 447 
z
" transform="scale(0.015625)"/>
       <path id="DengXian-91cf" d="M 6106 2797 
L 6106 2425 
Q 5825 2472 5588 2463 
L 844 2463 
Q 616 2472 325 2425 
L 325 2797 
Q 550 2753 844 2759 
L 5588 2759 
Q 5813 2753 6106 2797 
z
M 5203 4622 
Q 5159 4397 5166 4178 
L 5166 3463 
Q 5159 3278 5203 3009 
Q 4903 3053 4744 3047 
L 1778 3047 
Q 1575 3047 1478 3041 
Q 1388 3034 1253 3009 
Q 1300 3263 1294 3456 
L 1294 4134 
Q 1294 4353 1253 4622 
Q 1453 4575 1747 4581 
L 4756 4581 
Q 4941 4575 5203 4622 
z
M 1638 4313 
L 1638 3950 
L 4819 3950 
L 4819 4313 
L 1638 4313 
z
M 1638 3681 
L 1638 3316 
L 4819 3316 
L 4819 3681 
L 1638 3681 
z
M 1006 -434 
L 3097 -434 
L 3097 -78 
L 1478 -78 
Q 1184 -72 953 -116 
L 953 256 
Q 1184 213 1478 219 
L 3097 219 
L 3097 588 
L 1734 588 
Q 1447 594 1203 550 
Q 1247 844 1241 1081 
L 1241 1691 
Q 1247 1919 1203 2216 
Q 1478 2169 1716 2175 
L 4775 2175 
Q 5013 2169 5325 2216 
Q 5281 1934 5288 1697 
L 5288 1081 
Q 5281 813 5325 550 
Q 4997 588 4775 588 
L 3456 588 
L 3456 219 
L 4978 219 
Q 5203 213 5503 256 
L 5503 -116 
Q 5216 -72 4978 -78 
L 3456 -78 
L 3456 -434 
L 5453 -434 
Q 5672 -441 5978 -397 
L 5978 -769 
Q 5663 -722 5453 -728 
L 1006 -728 
Q 781 -722 481 -775 
L 481 -397 
Q 722 -441 1006 -434 
z
M 3456 1253 
L 3456 856 
L 4941 856 
L 4941 1253 
L 3456 1253 
z
M 3456 1906 
L 3456 1522 
L 4941 1522 
L 4941 1906 
L 3456 1906 
z
M 1588 1253 
L 1588 856 
L 3097 856 
L 3097 1253 
L 1588 1253 
z
M 1588 1906 
L 1588 1522 
L 3097 1522 
L 3097 1906 
L 1588 1906 
z
" transform="scale(0.015625)"/>
       <path id="DengXian-39" d="M 3013 2047 
Q 3013 894 2638 290 
Q 2263 -313 1538 -313 
Q 622 -313 384 500 
L 759 581 
Q 844 294 1048 155 
Q 1253 16 1547 16 
Q 2588 16 2622 1934 
Q 2494 1666 2208 1494 
Q 1922 1322 1553 1322 
Q 991 1322 658 1717 
Q 325 2113 325 2775 
Q 325 3447 675 3833 
Q 1025 4219 1647 4219 
Q 2316 4219 2664 3678 
Q 3013 3138 3013 2047 
z
M 2572 2634 
Q 2572 3203 2314 3543 
Q 2056 3884 1638 3884 
Q 1203 3884 964 3590 
Q 725 3297 725 2778 
Q 725 2244 965 1945 
Q 1206 1647 1631 1647 
Q 2056 1647 2314 1923 
Q 2572 2200 2572 2634 
z
" transform="scale(0.015625)"/>
      </defs>
      <use xlink:href="#DengXian-989d"/>
      <use xlink:href="#DengXian-5b9a" transform="translate(100 0)"/>
      <use xlink:href="#DengXian-88c5" transform="translate(200 0)"/>
      <use xlink:href="#DengXian-8d27" transform="translate(300 0)"/>
      <use xlink:href="#DengXian-91cf" transform="translate(400 0)"/>
      <use xlink:href="#DengXian-2d" transform="translate(500 0)"/>
      <use xlink:href="#DengXian-31" transform="translate(550 0)"/>
      <use xlink:href="#DengXian-39" transform="translate(602.685547 0)"/>
      <use xlink:href="#DengXian-35" transform="translate(655.371094 0)"/>
     </g>
    </g>
    <g id="line2d_19">
     <path d="M 149.04 98.36385 
L 161.04 98.36385 
L 173.04 98.36385 
" style="fill: none; stroke: #ff7f0e; stroke-width: 1.5; stroke-linecap: square"/>
     <g>
      <use xlink:href="#m474a94c697" x="161.04" y="98.36385" style="fill: #ff7f0e; stroke: #ff7f0e"/>
     </g>
    </g>
    <g id="text_17">
     <!-- 额定装货量-200 -->
     <g transform="translate(182.64 102.56385) scale(0.12 -0.12)">
      <use xlink:href="#DengXian-989d"/>
      <use xlink:href="#DengXian-5b9a" transform="translate(100 0)"/>
      <use xlink:href="#DengXian-88c5" transform="translate(200 0)"/>
      <use xlink:href="#DengXian-8d27" transform="translate(300 0)"/>
      <use xlink:href="#DengXian-91cf" transform="translate(400 0)"/>
      <use xlink:href="#DengXian-2d" transform="translate(500 0)"/>
      <use xlink:href="#DengXian-32" transform="translate(550 0)"/>
      <use xlink:href="#DengXian-30" transform="translate(602.685547 0)"/>
      <use xlink:href="#DengXian-30" transform="translate(655.371094 0)"/>
     </g>
    </g>
    <g id="line2d_20">
     <path d="M 149.04 115.848225 
L 161.04 115.848225 
L 173.04 115.848225 
" style="fill: none; stroke: #2ca02c; stroke-width: 1.5; stroke-linecap: square"/>
     <g>
      <use xlink:href="#m2e41b8b4a4" x="161.04" y="115.848225" style="fill: #2ca02c; stroke: #2ca02c"/>
     </g>
    </g>
    <g id="text_18">
     <!-- 额定装货量-205 -->
     <g transform="translate(182.64 120.048225) scale(0.12 -0.12)">
      <use xlink:href="#DengXian-989d"/>
      <use xlink:href="#DengXian-5b9a" transform="translate(100 0)"/>
      <use xlink:href="#DengXian-88c5" transform="translate(200 0)"/>
      <use xlink:href="#DengXian-8d27" transform="translate(300 0)"/>
      <use xlink:href="#DengXian-91cf" transform="translate(400 0)"/>
      <use xlink:href="#DengXian-2d" transform="translate(500 0)"/>
      <use xlink:href="#DengXian-32" transform="translate(550 0)"/>
      <use xlink:href="#DengXian-30" transform="translate(602.685547 0)"/>
      <use xlink:href="#DengXian-35" transform="translate(655.371094 0)"/>
     </g>
    </g>
   </g>
  </g>
 </g>
 <defs>
  <clipPath id="p03832f31ab">
   <rect x="138.24" y="65.5776" width="857.088" height="420.7896"/>
  </clipPath>
 </defs>
</svg>
