<?xml version="1.0" encoding="utf-8" standalone="no"?>
<!DOCTYPE svg PUBLIC "-//W3C//DTD SVG 1.1//EN"
  "http://www.w3.org/Graphics/SVG/1.1/DTD/svg11.dtd">
<svg xmlns:xlink="http://www.w3.org/1999/xlink" width="1105.92pt" height="546.48pt" viewBox="0 0 1105.92 546.48" xmlns="http://www.w3.org/2000/svg" version="1.1">
 <metadata>
  <rdf:RDF xmlns:dc="http://purl.org/dc/elements/1.1/" xmlns:cc="http://creativecommons.org/ns#" xmlns:rdf="http://www.w3.org/1999/02/22-rdf-syntax-ns#">
   <cc:Work>
    <dc:type rdf:resource="http://purl.org/dc/dcmitype/StillImage"/>
    <dc:date>2025-02-14T11:07:30.469370</dc:date>
    <dc:format>image/svg+xml</dc:format>
    <dc:creator>
     <cc:Agent>
      <dc:title>Matplotlib v3.10.0, https://matplotlib.org/</dc:title>
     </cc:Agent>
    </dc:creator>
   </cc:Work>
  </rdf:RDF>
 </metadata>
 <defs>
  <style type="text/css">*{stroke-linejoin: round; stroke-linecap: butt}</style>
 </defs>
 <g id="figure_1">
  <g id="patch_1">
   <path d="M 0 546.48 
L 1105.92 546.48 
L 1105.92 0 
L 0 0 
z
" style="fill: #ffffff"/>
  </g>
  <g id="axes_1">
   <g id="patch_2">
    <path d="M 138.24 486.3672 
L 995.328 486.3672 
L 995.328 65.5776 
L 138.24 65.5776 
z
" style="fill: #ffffff"/>
   </g>
   <g id="matplotlib.axis_1">
    <g id="xtick_1">
     <g id="line2d_1">
      <defs>
       <path id="mf681c61152" d="M 0 0 
L 0 3.5 
" style="stroke: #000000; stroke-width: 0.8"/>
      </defs>
      <g>
       <use xlink:href="#mf681c61152" x="177.198545" y="486.3672" style="stroke: #000000; stroke-width: 0.8"/>
      </g>
     </g>
     <g id="text_1">
      <!-- 2023-04-23 -->
      <g transform="translate(145.908545 501.41845) scale(0.12 -0.12)">
       <defs>
        <path id="DengXian-32" d="M 347 -250 
L 347 31 
Q 491 394 764 751 
Q 1038 1109 1566 1569 
Q 2109 2038 2326 2359 
Q 2544 2681 2544 3034 
Q 2544 3441 2316 3661 
Q 2088 3881 1681 3881 
Q 1313 3881 1077 3664 
Q 841 3447 800 3069 
L 400 3119 
Q 447 3613 795 3916 
Q 1144 4219 1684 4219 
Q 2281 4219 2615 3912 
Q 2950 3606 2950 3059 
Q 2950 2778 2850 2531 
Q 2750 2284 2550 2039 
Q 2350 1794 1869 1366 
Q 1025 616 803 103 
L 3016 103 
L 3016 -250 
L 347 -250 
z
" transform="scale(0.015625)"/>
        <path id="DengXian-30" d="M 3106 1953 
Q 3106 850 2750 268 
Q 2394 -313 1697 -313 
Q 1006 -313 654 256 
Q 303 825 303 1953 
Q 303 3100 645 3659 
Q 988 4219 1719 4219 
Q 2422 4219 2764 3656 
Q 3106 3094 3106 1953 
z
M 2706 1953 
Q 2706 2963 2473 3425 
Q 2241 3888 1716 3888 
Q 1172 3888 936 3423 
Q 700 2959 700 1953 
Q 700 969 944 495 
Q 1188 22 1703 22 
Q 2216 22 2461 508 
Q 2706 994 2706 1953 
z
" transform="scale(0.015625)"/>
        <path id="DengXian-33" d="M 3019 963 
Q 3019 356 2662 21 
Q 2306 -313 1656 -313 
Q 409 -313 266 828 
L 669 872 
Q 778 25 1656 25 
Q 2122 25 2367 262 
Q 2613 500 2613 963 
Q 2613 1375 2320 1590 
Q 2028 1806 1500 1806 
L 1200 1806 
L 1200 2172 
L 1491 2172 
Q 1784 2172 2011 2269 
Q 2238 2366 2369 2555 
Q 2500 2744 2500 3022 
Q 2500 3434 2283 3659 
Q 2066 3884 1644 3884 
Q 1266 3884 1027 3689 
Q 788 3494 747 3091 
L 353 3125 
Q 413 3647 755 3933 
Q 1097 4219 1647 4219 
Q 2244 4219 2573 3914 
Q 2903 3609 2903 3056 
Q 2903 2653 2672 2376 
Q 2441 2100 2022 2009 
L 2022 1997 
Q 2491 1938 2755 1658 
Q 3019 1378 3019 963 
z
" transform="scale(0.015625)"/>
        <path id="DengXian-2d" d="M 694 1166 
L 694 1522 
L 2506 1522 
L 2506 1166 
L 694 1166 
z
" transform="scale(0.015625)"/>
        <path id="DengXian-34" d="M 2516 803 
L 2516 -250 
L 2125 -250 
L 2125 803 
L 141 803 
L 141 1116 
L 2088 4153 
L 2516 4153 
L 2516 1131 
L 3113 1131 
L 3113 803 
L 2516 803 
z
M 2125 3628 
L 538 1131 
L 2125 1131 
L 2125 3628 
z
" transform="scale(0.015625)"/>
       </defs>
       <use xlink:href="#DengXian-32"/>
       <use xlink:href="#DengXian-30" transform="translate(52.685547 0)"/>
       <use xlink:href="#DengXian-32" transform="translate(105.371094 0)"/>
       <use xlink:href="#DengXian-33" transform="translate(158.056641 0)"/>
       <use xlink:href="#DengXian-2d" transform="translate(210.742188 0)"/>
       <use xlink:href="#DengXian-30" transform="translate(260.742188 0)"/>
       <use xlink:href="#DengXian-34" transform="translate(313.427734 0)"/>
       <use xlink:href="#DengXian-2d" transform="translate(366.113281 0)"/>
       <use xlink:href="#DengXian-32" transform="translate(416.113281 0)"/>
       <use xlink:href="#DengXian-33" transform="translate(468.798828 0)"/>
      </g>
     </g>
    </g>
    <g id="xtick_2">
     <g id="line2d_2">
      <g>
       <use xlink:href="#mf681c61152" x="371.991273" y="486.3672" style="stroke: #000000; stroke-width: 0.8"/>
      </g>
     </g>
     <g id="text_2">
      <!-- 2023-04-24 -->
      <g transform="translate(340.701273 501.41845) scale(0.12 -0.12)">
       <use xlink:href="#DengXian-32"/>
       <use xlink:href="#DengXian-30" transform="translate(52.685547 0)"/>
       <use xlink:href="#DengXian-32" transform="translate(105.371094 0)"/>
       <use xlink:href="#DengXian-33" transform="translate(158.056641 0)"/>
       <use xlink:href="#DengXian-2d" transform="translate(210.742188 0)"/>
       <use xlink:href="#DengXian-30" transform="translate(260.742188 0)"/>
       <use xlink:href="#DengXian-34" transform="translate(313.427734 0)"/>
       <use xlink:href="#DengXian-2d" transform="translate(366.113281 0)"/>
       <use xlink:href="#DengXian-32" transform="translate(416.113281 0)"/>
       <use xlink:href="#DengXian-34" transform="translate(468.798828 0)"/>
      </g>
     </g>
    </g>
    <g id="xtick_3">
     <g id="line2d_3">
      <g>
       <use xlink:href="#mf681c61152" x="566.784" y="486.3672" style="stroke: #000000; stroke-width: 0.8"/>
      </g>
     </g>
     <g id="text_3">
      <!-- 2023-04-25 -->
      <g transform="translate(535.494 501.41845) scale(0.12 -0.12)">
       <defs>
        <path id="DengXian-35" d="M 3047 1169 
Q 3047 469 2676 78 
Q 2306 -313 1641 -313 
Q 575 -313 366 672 
L 763 734 
Q 859 350 1075 186 
Q 1291 22 1669 22 
Q 2134 22 2387 315 
Q 2641 609 2641 1153 
Q 2641 1619 2392 1895 
Q 2144 2172 1713 2172 
Q 1459 2172 1265 2095 
Q 1072 2019 875 1844 
L 503 1844 
L 641 4153 
L 2828 4153 
L 2828 3816 
L 997 3816 
L 894 2222 
Q 1113 2381 1323 2442 
Q 1534 2503 1775 2503 
Q 2359 2503 2703 2142 
Q 3047 1781 3047 1169 
z
" transform="scale(0.015625)"/>
       </defs>
       <use xlink:href="#DengXian-32"/>
       <use xlink:href="#DengXian-30" transform="translate(52.685547 0)"/>
       <use xlink:href="#DengXian-32" transform="translate(105.371094 0)"/>
       <use xlink:href="#DengXian-33" transform="translate(158.056641 0)"/>
       <use xlink:href="#DengXian-2d" transform="translate(210.742188 0)"/>
       <use xlink:href="#DengXian-30" transform="translate(260.742188 0)"/>
       <use xlink:href="#DengXian-34" transform="translate(313.427734 0)"/>
       <use xlink:href="#DengXian-2d" transform="translate(366.113281 0)"/>
       <use xlink:href="#DengXian-32" transform="translate(416.113281 0)"/>
       <use xlink:href="#DengXian-35" transform="translate(468.798828 0)"/>
      </g>
     </g>
    </g>
    <g id="xtick_4">
     <g id="line2d_4">
      <g>
       <use xlink:href="#mf681c61152" x="761.576727" y="486.3672" style="stroke: #000000; stroke-width: 0.8"/>
      </g>
     </g>
     <g id="text_4">
      <!-- 2023-04-26 -->
      <g transform="translate(730.286727 501.41845) scale(0.12 -0.12)">
       <defs>
        <path id="DengXian-36" d="M 3047 1191 
Q 3047 491 2697 89 
Q 2347 -313 1747 -313 
Q 1075 -313 720 234 
Q 366 781 366 1850 
Q 366 3031 739 3625 
Q 1113 4219 1841 4219 
Q 2284 4219 2553 4026 
Q 2822 3834 2944 3428 
L 2566 3344 
Q 2400 3888 1816 3888 
Q 1303 3888 1033 3402 
Q 763 2916 756 1969 
Q 913 2263 1183 2417 
Q 1453 2572 1800 2572 
Q 2372 2572 2709 2201 
Q 3047 1831 3047 1191 
z
M 2647 1166 
Q 2647 1675 2405 1964 
Q 2163 2253 1716 2253 
Q 1466 2253 1256 2137 
Q 1047 2022 926 1806 
Q 806 1591 806 1306 
Q 806 747 1064 383 
Q 1322 19 1738 19 
Q 2166 19 2406 325 
Q 2647 631 2647 1166 
z
" transform="scale(0.015625)"/>
       </defs>
       <use xlink:href="#DengXian-32"/>
       <use xlink:href="#DengXian-30" transform="translate(52.685547 0)"/>
       <use xlink:href="#DengXian-32" transform="translate(105.371094 0)"/>
       <use xlink:href="#DengXian-33" transform="translate(158.056641 0)"/>
       <use xlink:href="#DengXian-2d" transform="translate(210.742188 0)"/>
       <use xlink:href="#DengXian-30" transform="translate(260.742188 0)"/>
       <use xlink:href="#DengXian-34" transform="translate(313.427734 0)"/>
       <use xlink:href="#DengXian-2d" transform="translate(366.113281 0)"/>
       <use xlink:href="#DengXian-32" transform="translate(416.113281 0)"/>
       <use xlink:href="#DengXian-36" transform="translate(468.798828 0)"/>
      </g>
     </g>
    </g>
    <g id="xtick_5">
     <g id="line2d_5">
      <g>
       <use xlink:href="#mf681c61152" x="956.369455" y="486.3672" style="stroke: #000000; stroke-width: 0.8"/>
      </g>
     </g>
     <g id="text_5">
      <!-- 2023-04-27 -->
      <g transform="translate(925.079455 501.41845) scale(0.12 -0.12)">
       <defs>
        <path id="DengXian-37" d="M 3031 3809 
Q 2278 2631 1928 1634 
Q 1578 638 1578 -250 
L 1172 -250 
Q 1172 625 1545 1651 
Q 1919 2678 2638 3797 
L 331 3797 
L 331 4153 
L 3031 4153 
L 3031 3809 
z
" transform="scale(0.015625)"/>
       </defs>
       <use xlink:href="#DengXian-32"/>
       <use xlink:href="#DengXian-30" transform="translate(52.685547 0)"/>
       <use xlink:href="#DengXian-32" transform="translate(105.371094 0)"/>
       <use xlink:href="#DengXian-33" transform="translate(158.056641 0)"/>
       <use xlink:href="#DengXian-2d" transform="translate(210.742188 0)"/>
       <use xlink:href="#DengXian-30" transform="translate(260.742188 0)"/>
       <use xlink:href="#DengXian-34" transform="translate(313.427734 0)"/>
       <use xlink:href="#DengXian-2d" transform="translate(366.113281 0)"/>
       <use xlink:href="#DengXian-32" transform="translate(416.113281 0)"/>
       <use xlink:href="#DengXian-37" transform="translate(468.798828 0)"/>
      </g>
     </g>
    </g>
   </g>
   <g id="matplotlib.axis_2">
    <g id="ytick_1">
     <g id="line2d_6">
      <defs>
       <path id="md7b1ee605a" d="M 0 0 
L -3.5 0 
" style="stroke: #000000; stroke-width: 0.8"/>
      </defs>
      <g>
       <use xlink:href="#md7b1ee605a" x="138.24" y="468.424239" style="stroke: #000000; stroke-width: 0.8"/>
      </g>
     </g>
     <g id="text_6">
      <!-- 1000 -->
      <g transform="translate(105.95 472.449864) scale(0.12 -0.12)">
       <defs>
        <path id="DengXian-31" d="M 484 -250 
L 484 84 
L 1609 84 
L 1609 3744 
L 603 3075 
L 603 3434 
L 1653 4153 
L 2000 4153 
L 2000 84 
L 2959 84 
L 2959 -250 
L 484 -250 
z
" transform="scale(0.015625)"/>
       </defs>
       <use xlink:href="#DengXian-31"/>
       <use xlink:href="#DengXian-30" transform="translate(52.685547 0)"/>
       <use xlink:href="#DengXian-30" transform="translate(105.371094 0)"/>
       <use xlink:href="#DengXian-30" transform="translate(158.056641 0)"/>
      </g>
     </g>
    </g>
    <g id="ytick_2">
     <g id="line2d_7">
      <g>
       <use xlink:href="#md7b1ee605a" x="138.24" y="420.509248" style="stroke: #000000; stroke-width: 0.8"/>
      </g>
     </g>
     <g id="text_7">
      <!-- 1050 -->
      <g transform="translate(105.95 424.534873) scale(0.12 -0.12)">
       <use xlink:href="#DengXian-31"/>
       <use xlink:href="#DengXian-30" transform="translate(52.685547 0)"/>
       <use xlink:href="#DengXian-35" transform="translate(105.371094 0)"/>
       <use xlink:href="#DengXian-30" transform="translate(158.056641 0)"/>
      </g>
     </g>
    </g>
    <g id="ytick_3">
     <g id="line2d_8">
      <g>
       <use xlink:href="#md7b1ee605a" x="138.24" y="372.594257" style="stroke: #000000; stroke-width: 0.8"/>
      </g>
     </g>
     <g id="text_8">
      <!-- 1100 -->
      <g transform="translate(105.95 376.619882) scale(0.12 -0.12)">
       <use xlink:href="#DengXian-31"/>
       <use xlink:href="#DengXian-31" transform="translate(52.685547 0)"/>
       <use xlink:href="#DengXian-30" transform="translate(105.371094 0)"/>
       <use xlink:href="#DengXian-30" transform="translate(158.056641 0)"/>
      </g>
     </g>
    </g>
    <g id="ytick_4">
     <g id="line2d_9">
      <g>
       <use xlink:href="#md7b1ee605a" x="138.24" y="324.679266" style="stroke: #000000; stroke-width: 0.8"/>
      </g>
     </g>
     <g id="text_9">
      <!-- 1150 -->
      <g transform="translate(105.95 328.704891) scale(0.12 -0.12)">
       <use xlink:href="#DengXian-31"/>
       <use xlink:href="#DengXian-31" transform="translate(52.685547 0)"/>
       <use xlink:href="#DengXian-35" transform="translate(105.371094 0)"/>
       <use xlink:href="#DengXian-30" transform="translate(158.056641 0)"/>
      </g>
     </g>
    </g>
    <g id="ytick_5">
     <g id="line2d_10">
      <g>
       <use xlink:href="#md7b1ee605a" x="138.24" y="276.764274" style="stroke: #000000; stroke-width: 0.8"/>
      </g>
     </g>
     <g id="text_10">
      <!-- 1200 -->
      <g transform="translate(105.95 280.789899) scale(0.12 -0.12)">
       <use xlink:href="#DengXian-31"/>
       <use xlink:href="#DengXian-32" transform="translate(52.685547 0)"/>
       <use xlink:href="#DengXian-30" transform="translate(105.371094 0)"/>
       <use xlink:href="#DengXian-30" transform="translate(158.056641 0)"/>
      </g>
     </g>
    </g>
    <g id="ytick_6">
     <g id="line2d_11">
      <g>
       <use xlink:href="#md7b1ee605a" x="138.24" y="228.849283" style="stroke: #000000; stroke-width: 0.8"/>
      </g>
     </g>
     <g id="text_11">
      <!-- 1250 -->
      <g transform="translate(105.95 232.874908) scale(0.12 -0.12)">
       <use xlink:href="#DengXian-31"/>
       <use xlink:href="#DengXian-32" transform="translate(52.685547 0)"/>
       <use xlink:href="#DengXian-35" transform="translate(105.371094 0)"/>
       <use xlink:href="#DengXian-30" transform="translate(158.056641 0)"/>
      </g>
     </g>
    </g>
    <g id="ytick_7">
     <g id="line2d_12">
      <g>
       <use xlink:href="#md7b1ee605a" x="138.24" y="180.934292" style="stroke: #000000; stroke-width: 0.8"/>
      </g>
     </g>
     <g id="text_12">
      <!-- 1300 -->
      <g transform="translate(105.95 184.959917) scale(0.12 -0.12)">
       <use xlink:href="#DengXian-31"/>
       <use xlink:href="#DengXian-33" transform="translate(52.685547 0)"/>
       <use xlink:href="#DengXian-30" transform="translate(105.371094 0)"/>
       <use xlink:href="#DengXian-30" transform="translate(158.056641 0)"/>
      </g>
     </g>
    </g>
    <g id="ytick_8">
     <g id="line2d_13">
      <g>
       <use xlink:href="#md7b1ee605a" x="138.24" y="133.019301" style="stroke: #000000; stroke-width: 0.8"/>
      </g>
     </g>
     <g id="text_13">
      <!-- 1350 -->
      <g transform="translate(105.95 137.044926) scale(0.12 -0.12)">
       <use xlink:href="#DengXian-31"/>
       <use xlink:href="#DengXian-33" transform="translate(52.685547 0)"/>
       <use xlink:href="#DengXian-35" transform="translate(105.371094 0)"/>
       <use xlink:href="#DengXian-30" transform="translate(158.056641 0)"/>
      </g>
     </g>
    </g>
    <g id="ytick_9">
     <g id="line2d_14">
      <g>
       <use xlink:href="#md7b1ee605a" x="138.24" y="85.10431" style="stroke: #000000; stroke-width: 0.8"/>
      </g>
     </g>
     <g id="text_14">
      <!-- 1400 -->
      <g transform="translate(105.95 89.129935) scale(0.12 -0.12)">
       <use xlink:href="#DengXian-31"/>
       <use xlink:href="#DengXian-34" transform="translate(52.685547 0)"/>
       <use xlink:href="#DengXian-30" transform="translate(105.371094 0)"/>
       <use xlink:href="#DengXian-30" transform="translate(158.056641 0)"/>
      </g>
     </g>
    </g>
   </g>
   <g id="line2d_15">
    <path d="M 177.198545 332.220059 
L 371.991273 302.501791 
L 566.784 278.861332 
L 761.576727 405.422639 
L 956.369455 84.7044 
" clip-path="url(#p80a6a2c59d)" style="fill: none; stroke: #1f77b4; stroke-width: 1.5; stroke-linecap: square"/>
    <defs>
     <path id="mf807b97d8e" d="M 0 3 
C 0.795609 3 1.55874 2.683901 2.12132 2.12132 
C 2.683901 1.55874 3 0.795609 3 0 
C 3 -0.795609 2.683901 -1.55874 2.12132 -2.12132 
C 1.55874 -2.683901 0.795609 -3 0 -3 
C -0.795609 -3 -1.55874 -2.683901 -2.12132 -2.12132 
C -2.683901 -1.55874 -3 -0.795609 -3 0 
C -3 0.795609 -2.683901 1.55874 -2.12132 2.12132 
C -1.55874 2.683901 -0.795609 3 0 3 
z
" style="stroke: #1f77b4"/>
    </defs>
    <g clip-path="url(#p80a6a2c59d)">
     <use xlink:href="#mf807b97d8e" x="177.198545" y="332.220059" style="fill: #1f77b4; stroke: #1f77b4"/>
     <use xlink:href="#mf807b97d8e" x="371.991273" y="302.501791" style="fill: #1f77b4; stroke: #1f77b4"/>
     <use xlink:href="#mf807b97d8e" x="566.784" y="278.861332" style="fill: #1f77b4; stroke: #1f77b4"/>
     <use xlink:href="#mf807b97d8e" x="761.576727" y="405.422639" style="fill: #1f77b4; stroke: #1f77b4"/>
     <use xlink:href="#mf807b97d8e" x="956.369455" y="84.7044" style="fill: #1f77b4; stroke: #1f77b4"/>
    </g>
   </g>
   <g id="line2d_16">
    <path d="M 177.198545 369.854312 
L 371.991273 315.953432 
L 566.784 293.686847 
L 761.576727 442.5976 
L 956.369455 113.371872 
" clip-path="url(#p80a6a2c59d)" style="fill: none; stroke: #ff7f0e; stroke-width: 1.5; stroke-linecap: square"/>
    <defs>
     <path id="me65d86a294" d="M 0 3 
C 0.795609 3 1.55874 2.683901 2.12132 2.12132 
C 2.683901 1.55874 3 0.795609 3 0 
C 3 -0.795609 2.683901 -1.55874 2.12132 -2.12132 
C 1.55874 -2.683901 0.795609 -3 0 -3 
C -0.795609 -3 -1.55874 -2.683901 -2.12132 -2.12132 
C -2.683901 -1.55874 -3 -0.795609 -3 0 
C -3 0.795609 -2.683901 1.55874 -2.12132 2.12132 
C -1.55874 2.683901 -0.795609 3 0 3 
z
" style="stroke: #ff7f0e"/>
    </defs>
    <g clip-path="url(#p80a6a2c59d)">
     <use xlink:href="#me65d86a294" x="177.198545" y="369.854312" style="fill: #ff7f0e; stroke: #ff7f0e"/>
     <use xlink:href="#me65d86a294" x="371.991273" y="315.953432" style="fill: #ff7f0e; stroke: #ff7f0e"/>
     <use xlink:href="#me65d86a294" x="566.784" y="293.686847" style="fill: #ff7f0e; stroke: #ff7f0e"/>
     <use xlink:href="#me65d86a294" x="761.576727" y="442.5976" style="fill: #ff7f0e; stroke: #ff7f0e"/>
     <use xlink:href="#me65d86a294" x="956.369455" y="113.371872" style="fill: #ff7f0e; stroke: #ff7f0e"/>
    </g>
   </g>
   <g id="line2d_17">
    <path d="M 177.198545 390.065117 
L 371.991273 343.77073 
L 566.784 312.081051 
L 761.576727 467.2404 
L 956.369455 128.196213 
" clip-path="url(#p80a6a2c59d)" style="fill: none; stroke: #2ca02c; stroke-width: 1.5; stroke-linecap: square"/>
    <defs>
     <path id="m869d98e001" d="M 0 3 
C 0.795609 3 1.55874 2.683901 2.12132 2.12132 
C 2.683901 1.55874 3 0.795609 3 0 
C 3 -0.795609 2.683901 -1.55874 2.12132 -2.12132 
C 1.55874 -2.683901 0.795609 -3 0 -3 
C -0.795609 -3 -1.55874 -2.683901 -2.12132 -2.12132 
C -2.683901 -1.55874 -3 -0.795609 -3 0 
C -3 0.795609 -2.683901 1.55874 -2.12132 2.12132 
C -1.55874 2.683901 -0.795609 3 0 3 
z
" style="stroke: #2ca02c"/>
    </defs>
    <g clip-path="url(#p80a6a2c59d)">
     <use xlink:href="#m869d98e001" x="177.198545" y="390.065117" style="fill: #2ca02c; stroke: #2ca02c"/>
     <use xlink:href="#m869d98e001" x="371.991273" y="343.77073" style="fill: #2ca02c; stroke: #2ca02c"/>
     <use xlink:href="#m869d98e001" x="566.784" y="312.081051" style="fill: #2ca02c; stroke: #2ca02c"/>
     <use xlink:href="#m869d98e001" x="761.576727" y="467.2404" style="fill: #2ca02c; stroke: #2ca02c"/>
     <use xlink:href="#m869d98e001" x="956.369455" y="128.196213" style="fill: #2ca02c; stroke: #2ca02c"/>
    </g>
   </g>
   <g id="patch_3">
    <path d="M 138.24 486.3672 
L 138.24 65.5776 
" style="fill: none; stroke: #000000; stroke-width: 0.8; stroke-linejoin: miter; stroke-linecap: square"/>
   </g>
   <g id="patch_4">
    <path d="M 995.328 486.3672 
L 995.328 65.5776 
" style="fill: none; stroke: #000000; stroke-width: 0.8; stroke-linejoin: miter; stroke-linecap: square"/>
   </g>
   <g id="patch_5">
    <path d="M 138.24 486.3672 
L 995.328 486.3672 
" style="fill: none; stroke: #000000; stroke-width: 0.8; stroke-linejoin: miter; stroke-linecap: square"/>
   </g>
   <g id="patch_6">
    <path d="M 138.24 65.5776 
L 995.328 65.5776 
" style="fill: none; stroke: #000000; stroke-width: 0.8; stroke-linejoin: miter; stroke-linecap: square"/>
   </g>
   <g id="legend_1">
    <g id="patch_7">
     <path d="M 146.64 127.630725 
L 270.0075 127.630725 
Q 272.4075 127.630725 272.4075 125.230725 
L 272.4075 73.9776 
Q 272.4075 71.5776 270.0075 71.5776 
L 146.64 71.5776 
Q 144.24 71.5776 144.24 73.9776 
L 144.24 125.230725 
Q 144.24 127.630725 146.64 127.630725 
z
" style="fill: #ffffff; opacity: 0.8; stroke: #cccccc; stroke-linejoin: miter"/>
    </g>
    <g id="line2d_18">
     <path d="M 149.04 80.879475 
L 161.04 80.879475 
L 173.04 80.879475 
" style="fill: none; stroke: #1f77b4; stroke-width: 1.5; stroke-linecap: square"/>
     <g>
      <use xlink:href="#mf807b97d8e" x="161.04" y="80.879475" style="fill: #1f77b4; stroke: #1f77b4"/>
     </g>
    </g>
    <g id="text_15">
     <!-- 额定装货量-195 -->
     <g transform="translate(182.64 85.079475) scale(0.12 -0.12)">
      <defs>
       <path id="DengXian-989d" d="M 1703 2069 
Q 1516 2222 1222 2394 
L 1484 2644 
Q 1722 2503 1953 2328 
Q 2194 2566 2413 2969 
L 1422 2969 
Q 1131 2578 703 2069 
Q 581 2203 306 2303 
Q 1069 2859 1503 3903 
L 1913 3706 
Q 1984 3675 1971 3654 
Q 1959 3634 1863 3603 
Q 1813 3578 1747 3506 
Q 1722 3463 1728 3475 
Q 1656 3347 1619 3278 
L 2516 3278 
Q 2747 3278 3047 3316 
Q 2656 2613 2228 2131 
Q 2766 1753 3309 1269 
Q 3128 1134 3028 991 
Q 2650 1369 1991 1875 
Q 1550 1453 1056 1119 
L 2291 1119 
Q 2491 1119 2797 1159 
Q 2753 819 2759 634 
L 2759 -197 
Q 2759 -359 2797 -622 
L 2375 -622 
Q 2413 -466 2413 -372 
L 1338 -372 
Q 1338 -494 1375 -738 
L 953 -738 
Q 991 -459 991 -269 
L 991 831 
Q 991 941 959 1063 
Q 763 928 569 813 
Q 488 1019 219 1159 
Q 1038 1394 1703 2069 
z
M 1338 813 
L 1338 -78 
L 2413 -78 
L 2413 813 
L 1338 813 
z
M 459 4263 
Q 716 4219 903 4225 
L 1984 4225 
Q 1734 4519 1388 4844 
L 1650 5069 
Q 2009 4722 2284 4416 
L 2041 4225 
L 2906 4225 
Q 3084 4225 3334 4263 
Q 3291 4050 3297 3859 
L 3297 3750 
Q 3297 3622 3334 3372 
L 2913 3372 
Q 2956 3584 2950 3750 
L 2950 3916 
L 844 3916 
L 844 3738 
Q 838 3609 884 3366 
L 459 3366 
Q 506 3578 500 3738 
L 500 3859 
Q 506 4031 459 4263 
z
M 2772 -672 
Q 3803 -366 4141 409 
Q 4413 988 4413 2106 
Q 4413 2466 4384 2881 
L 4928 2809 
Q 4959 2803 4959 2791 
Q 4959 2772 4928 2741 
Q 4813 2619 4788 2406 
Q 4750 750 4447 200 
Q 4172 -428 3128 -1056 
Q 3034 -856 2772 -672 
z
M 5766 469 
L 5331 469 
Q 5369 788 5369 991 
L 5369 3225 
L 3847 3225 
L 3847 922 
Q 3847 722 3884 447 
L 3450 447 
Q 3488 716 3488 922 
L 3488 3109 
Q 3494 3316 3450 3584 
Q 3731 3541 3916 3547 
L 4141 3547 
Q 4300 4025 4366 4313 
L 3653 4313 
Q 3494 4319 3219 4275 
L 3219 4672 
Q 3456 4628 3641 4634 
L 5644 4634 
Q 5797 4634 6059 4672 
L 6059 4275 
Q 5778 4319 5644 4313 
L 4769 4313 
Q 4672 3956 4506 3547 
L 5288 3547 
Q 5472 3547 5766 3584 
Q 5722 3303 5728 3078 
L 5728 978 
Q 5728 750 5766 469 
z
M 4922 391 
Q 5575 -122 6125 -653 
L 5838 -909 
Q 5300 -341 4666 122 
L 4922 391 
z
" transform="scale(0.015625)"/>
       <path id="DengXian-5b9a" d="M 206 -622 
Q 1497 84 1625 1838 
L 2113 1722 
Q 2209 1697 2203 1672 
Q 2203 1650 2094 1588 
Q 1997 1528 1953 1331 
Q 1900 1075 1813 763 
Q 2163 56 3041 -178 
L 3041 2394 
L 1875 2394 
Q 1684 2394 1381 2356 
L 1381 2753 
Q 1650 2706 1875 2713 
L 4581 2713 
Q 4788 2713 5081 2753 
L 5081 2356 
Q 4769 2400 4581 2394 
L 3413 2394 
L 3413 1416 
L 4884 1416 
Q 5113 1409 5388 1453 
L 5388 1056 
Q 5119 1094 4884 1094 
L 3413 1094 
L 3413 -250 
Q 4166 -325 4816 -325 
Q 5469 -325 6081 -250 
Q 5953 -409 5919 -744 
Q 3603 -728 2894 -525 
Q 2144 -366 1650 353 
Q 1247 -391 628 -916 
Q 475 -744 206 -622 
z
M 2772 5056 
Q 3309 4728 3775 4359 
L 3578 4072 
L 5269 4072 
Q 5472 4072 5791 4109 
Q 5747 3822 5753 3609 
L 5753 3316 
Q 5753 3138 5791 2809 
L 5356 2809 
Q 5394 3097 5394 3316 
L 5394 3750 
L 1131 3750 
L 1131 3353 
Q 1131 3144 1172 2847 
L 738 2847 
Q 775 3144 775 3353 
L 775 3597 
Q 781 3816 738 4109 
Q 1019 4063 1269 4072 
L 3456 4072 
Q 3103 4372 2541 4716 
L 2772 5056 
z
" transform="scale(0.015625)"/>
       <path id="DengXian-88c5" d="M 544 2631 
Q 1428 2925 2169 3316 
L 2169 4269 
Q 2169 4519 2131 4788 
L 2597 4722 
Q 2669 4709 2669 4678 
Q 2669 4647 2597 4616 
Q 2516 4575 2516 4269 
L 2516 2516 
Q 2516 2266 2553 2034 
L 2131 2034 
Q 2175 2272 2169 2516 
L 2169 2956 
Q 1269 2516 775 2209 
Q 709 2438 544 2631 
z
M 806 4238 
L 1056 4506 
Q 1416 4238 1850 3794 
L 1588 3513 
Q 1184 3956 806 4238 
z
M 409 219 
Q 1838 378 2650 1350 
L 978 1350 
Q 756 1350 488 1313 
L 488 1697 
Q 684 1656 959 1656 
L 3250 1656 
Q 3003 1894 2669 2100 
L 2938 2388 
Q 3250 2175 3647 1838 
L 3494 1656 
L 5300 1656 
Q 5600 1656 5797 1697 
L 5797 1313 
Q 5509 1350 5300 1350 
L 3156 1350 
Q 2834 991 2419 634 
L 2419 -459 
Q 3078 -159 3519 116 
Q 3494 -56 3481 -294 
Q 2713 -666 2194 -1025 
Q 2069 -800 1894 -647 
Q 2081 -575 2059 -353 
L 2059 428 
Q 1497 78 703 -197 
Q 603 38 409 219 
z
M 4531 128 
Q 5159 -269 5978 -403 
Q 5753 -641 5656 -838 
Q 4056 -250 3188 884 
Q 3347 1019 3444 1141 
Q 3731 697 4281 288 
Q 4634 703 4844 1147 
L 5222 819 
Q 5272 781 5272 759 
Q 5272 756 5265 742 
Q 5259 728 5184 716 
Q 4978 678 4813 475 
Q 4691 300 4531 128 
z
M 4403 4341 
L 4403 4063 
L 5369 4063 
Q 5678 4063 5863 4103 
L 5863 3719 
Q 5678 3756 5369 3756 
L 4403 3756 
L 4403 2797 
L 5069 2797 
Q 5350 2797 5569 2834 
L 5569 2450 
Q 5300 2491 5069 2491 
L 3584 2491 
Q 3359 2491 3091 2450 
L 3091 2834 
Q 3328 2797 3584 2797 
L 4056 2797 
L 4056 3756 
L 3284 3756 
Q 2988 3756 2791 3719 
L 2791 4103 
Q 2981 4063 3284 4063 
L 4056 4063 
L 4056 4341 
Q 4056 4659 4019 4850 
L 4459 4788 
Q 4525 4775 4538 4744 
Q 4538 4703 4481 4672 
Q 4403 4628 4403 4341 
z
" transform="scale(0.015625)"/>
       <path id="DengXian-8d27" d="M 2138 5000 
L 2553 4781 
Q 2644 4738 2638 4709 
Q 2631 4691 2522 4641 
Q 2369 4575 2234 4416 
Q 2188 4366 2125 4288 
Q 2041 4191 1997 4147 
L 1997 2913 
Q 2003 2713 2034 2363 
L 1600 2363 
Q 1638 2747 1638 2913 
L 1638 3803 
Q 1088 3328 666 3041 
Q 538 3219 300 3366 
Q 1375 3822 2138 5000 
z
M 2491 3578 
Q 2834 3566 3450 3763 
L 3450 4397 
Q 3444 4622 3413 4991 
L 3872 4922 
Q 4000 4903 4006 4878 
Q 4019 4850 3928 4775 
Q 3809 4684 3809 4409 
L 3809 3878 
Q 4856 4319 5209 4722 
L 5631 4422 
Q 5666 4400 5666 4372 
Q 5666 4359 5663 4353 
Q 5638 4313 5575 4306 
Q 5394 4313 5106 4122 
Q 4531 3775 3809 3506 
L 3809 3150 
Q 3806 3131 3806 3100 
Q 3806 2888 4147 2875 
Q 4197 2869 4300 2869 
Q 4372 2869 4709 2869 
Q 5172 2869 5306 2913 
Q 5453 2956 5528 3138 
Q 5581 3244 5613 3566 
Q 5691 3431 6059 3284 
Q 6003 3138 5931 2969 
Q 5819 2700 5619 2613 
Q 5441 2516 4978 2509 
Q 4706 2506 4488 2506 
Q 4269 2506 4103 2509 
Q 3447 2509 3447 2969 
Q 3447 3009 3450 3041 
L 3450 3366 
Q 3200 3278 2747 3138 
Q 2631 3413 2491 3578 
z
M 3066 1434 
L 3513 1338 
Q 3609 1319 3609 1294 
Q 3609 1269 3513 1191 
Q 3450 1172 3359 806 
Q 3244 -441 1125 -922 
Q 984 -672 794 -519 
Q 2291 -347 2700 191 
Q 3016 556 3066 1434 
z
M 5153 2106 
Q 5119 1747 5113 1556 
L 5113 756 
Q 5113 575 5153 206 
L 4716 206 
Q 4750 550 4756 756 
L 4756 1747 
L 1825 1747 
L 1825 728 
Q 1831 525 1863 178 
L 1428 178 
Q 1459 531 1466 728 
L 1466 1575 
Q 1459 1784 1428 2106 
Q 1759 2069 1972 2069 
L 4575 2069 
Q 4744 2069 5153 2106 
z
M 3788 447 
Q 4703 56 5791 -481 
L 5544 -872 
Q 4603 -288 3616 97 
L 3788 447 
z
" transform="scale(0.015625)"/>
       <path id="DengXian-91cf" d="M 6106 2797 
L 6106 2425 
Q 5825 2472 5588 2463 
L 844 2463 
Q 616 2472 325 2425 
L 325 2797 
Q 550 2753 844 2759 
L 5588 2759 
Q 5813 2753 6106 2797 
z
M 5203 4622 
Q 5159 4397 5166 4178 
L 5166 3463 
Q 5159 3278 5203 3009 
Q 4903 3053 4744 3047 
L 1778 3047 
Q 1575 3047 1478 3041 
Q 1388 3034 1253 3009 
Q 1300 3263 1294 3456 
L 1294 4134 
Q 1294 4353 1253 4622 
Q 1453 4575 1747 4581 
L 4756 4581 
Q 4941 4575 5203 4622 
z
M 1638 4313 
L 1638 3950 
L 4819 3950 
L 4819 4313 
L 1638 4313 
z
M 1638 3681 
L 1638 3316 
L 4819 3316 
L 4819 3681 
L 1638 3681 
z
M 1006 -434 
L 3097 -434 
L 3097 -78 
L 1478 -78 
Q 1184 -72 953 -116 
L 953 256 
Q 1184 213 1478 219 
L 3097 219 
L 3097 588 
L 1734 588 
Q 1447 594 1203 550 
Q 1247 844 1241 1081 
L 1241 1691 
Q 1247 1919 1203 2216 
Q 1478 2169 1716 2175 
L 4775 2175 
Q 5013 2169 5325 2216 
Q 5281 1934 5288 1697 
L 5288 1081 
Q 5281 813 5325 550 
Q 4997 588 4775 588 
L 3456 588 
L 3456 219 
L 4978 219 
Q 5203 213 5503 256 
L 5503 -116 
Q 5216 -72 4978 -78 
L 3456 -78 
L 3456 -434 
L 5453 -434 
Q 5672 -441 5978 -397 
L 5978 -769 
Q 5663 -722 5453 -728 
L 1006 -728 
Q 781 -722 481 -775 
L 481 -397 
Q 722 -441 1006 -434 
z
M 3456 1253 
L 3456 856 
L 4941 856 
L 4941 1253 
L 3456 1253 
z
M 3456 1906 
L 3456 1522 
L 4941 1522 
L 4941 1906 
L 3456 1906 
z
M 1588 1253 
L 1588 856 
L 3097 856 
L 3097 1253 
L 1588 1253 
z
M 1588 1906 
L 1588 1522 
L 3097 1522 
L 3097 1906 
L 1588 1906 
z
" transform="scale(0.015625)"/>
       <path id="DengXian-39" d="M 3013 2047 
Q 3013 894 2638 290 
Q 2263 -313 1538 -313 
Q 622 -313 384 500 
L 759 581 
Q 844 294 1048 155 
Q 1253 16 1547 16 
Q 2588 16 2622 1934 
Q 2494 1666 2208 1494 
Q 1922 1322 1553 1322 
Q 991 1322 658 1717 
Q 325 2113 325 2775 
Q 325 3447 675 3833 
Q 1025 4219 1647 4219 
Q 2316 4219 2664 3678 
Q 3013 3138 3013 2047 
z
M 2572 2634 
Q 2572 3203 2314 3543 
Q 2056 3884 1638 3884 
Q 1203 3884 964 3590 
Q 725 3297 725 2778 
Q 725 2244 965 1945 
Q 1206 1647 1631 1647 
Q 2056 1647 2314 1923 
Q 2572 2200 2572 2634 
z
" transform="scale(0.015625)"/>
      </defs>
      <use xlink:href="#DengXian-989d"/>
      <use xlink:href="#DengXian-5b9a" transform="translate(100 0)"/>
      <use xlink:href="#DengXian-88c5" transform="translate(200 0)"/>
      <use xlink:href="#DengXian-8d27" transform="translate(300 0)"/>
      <use xlink:href="#DengXian-91cf" transform="translate(400 0)"/>
      <use xlink:href="#DengXian-2d" transform="translate(500 0)"/>
      <use xlink:href="#DengXian-31" transform="translate(550 0)"/>
      <use xlink:href="#DengXian-39" transform="translate(602.685547 0)"/>
      <use xlink:href="#DengXian-35" transform="translate(655.371094 0)"/>
     </g>
    </g>
    <g id="line2d_19">
     <path d="M 149.04 98.36385 
L 161.04 98.36385 
L 173.04 98.36385 
" style="fill: none; stroke: #ff7f0e; stroke-width: 1.5; stroke-linecap: square"/>
     <g>
      <use xlink:href="#me65d86a294" x="161.04" y="98.36385" style="fill: #ff7f0e; stroke: #ff7f0e"/>
     </g>
    </g>
    <g id="text_16">
     <!-- 额定装货量-200 -->
     <g transform="translate(182.64 102.56385) scale(0.12 -0.12)">
      <use xlink:href="#DengXian-989d"/>
      <use xlink:href="#DengXian-5b9a" transform="translate(100 0)"/>
      <use xlink:href="#DengXian-88c5" transform="translate(200 0)"/>
      <use xlink:href="#DengXian-8d27" transform="translate(300 0)"/>
      <use xlink:href="#DengXian-91cf" transform="translate(400 0)"/>
      <use xlink:href="#DengXian-2d" transform="translate(500 0)"/>
      <use xlink:href="#DengXian-32" transform="translate(550 0)"/>
      <use xlink:href="#DengXian-30" transform="translate(602.685547 0)"/>
      <use xlink:href="#DengXian-30" transform="translate(655.371094 0)"/>
     </g>
    </g>
    <g id="line2d_20">
     <path d="M 149.04 115.848225 
L 161.04 115.848225 
L 173.04 115.848225 
" style="fill: none; stroke: #2ca02c; stroke-width: 1.5; stroke-linecap: square"/>
     <g>
      <use xlink:href="#m869d98e001" x="161.04" y="115.848225" style="fill: #2ca02c; stroke: #2ca02c"/>
     </g>
    </g>
    <g id="text_17">
     <!-- 额定装货量-205 -->
     <g transform="translate(182.64 120.048225) scale(0.12 -0.12)">
      <use xlink:href="#DengXian-989d"/>
      <use xlink:href="#DengXian-5b9a" transform="translate(100 0)"/>
      <use xlink:href="#DengXian-88c5" transform="translate(200 0)"/>
      <use xlink:href="#DengXian-8d27" transform="translate(300 0)"/>
      <use xlink:href="#DengXian-91cf" transform="translate(400 0)"/>
      <use xlink:href="#DengXian-2d" transform="translate(500 0)"/>
      <use xlink:href="#DengXian-32" transform="translate(550 0)"/>
      <use xlink:href="#DengXian-30" transform="translate(602.685547 0)"/>
      <use xlink:href="#DengXian-35" transform="translate(655.371094 0)"/>
     </g>
    </g>
   </g>
  </g>
 </g>
 <defs>
  <clipPath id="p80a6a2c59d">
   <rect x="138.24" y="65.5776" width="857.088" height="420.7896"/>
  </clipPath>
 </defs>
</svg>
