<?xml version="1.0" encoding="utf-8" standalone="no"?>
<!DOCTYPE svg PUBLIC "-//W3C//DTD SVG 1.1//EN"
  "http://www.w3.org/Graphics/SVG/1.1/DTD/svg11.dtd">
<svg xmlns:xlink="http://www.w3.org/1999/xlink" width="1105.92pt" height="546.48pt" viewBox="0 0 1105.92 546.48" xmlns="http://www.w3.org/2000/svg" version="1.1">
 <metadata>
  <rdf:RDF xmlns:dc="http://purl.org/dc/elements/1.1/" xmlns:cc="http://creativecommons.org/ns#" xmlns:rdf="http://www.w3.org/1999/02/22-rdf-syntax-ns#">
   <cc:Work>
    <dc:type rdf:resource="http://purl.org/dc/dcmitype/StillImage"/>
    <dc:date>2025-02-26T20:04:47.858319</dc:date>
    <dc:format>image/svg+xml</dc:format>
    <dc:creator>
     <cc:Agent>
      <dc:title>Matplotlib v3.10.0, https://matplotlib.org/</dc:title>
     </cc:Agent>
    </dc:creator>
   </cc:Work>
  </rdf:RDF>
 </metadata>
 <defs>
  <style type="text/css">*{stroke-linejoin: round; stroke-linecap: butt}</style>
 </defs>
 <g id="figure_1">
  <g id="patch_1">
   <path d="M 0 546.48 
L 1105.92 546.48 
L 1105.92 0 
L 0 0 
z
" style="fill: #ffffff"/>
  </g>
  <g id="axes_1">
   <g id="patch_2">
    <path d="M 356.3892 486.3672 
L 777.1788 486.3672 
L 777.1788 65.5776 
L 356.3892 65.5776 
z
" style="fill: #ffffff"/>
   </g>
   <g id="matplotlib.axis_1">
    <g id="xtick_1">
     <g id="line2d_1">
      <defs>
       <path id="md9d595babe" d="M 0 0 
L 0 3.5 
" style="stroke: #000000; stroke-width: 0.8"/>
      </defs>
      <g>
       <use xlink:href="#md9d595babe" x="360.514588" y="486.3672" style="stroke: #000000; stroke-width: 0.8"/>
      </g>
     </g>
     <g id="text_1">
      <!-- 0.0 -->
      <g transform="translate(351.603807 502.760325) scale(0.14 -0.14)">
       <defs>
        <path id="DengXian-30" d="M 3106 1953 
Q 3106 850 2750 268 
Q 2394 -313 1697 -313 
Q 1006 -313 654 256 
Q 303 825 303 1953 
Q 303 3100 645 3659 
Q 988 4219 1719 4219 
Q 2422 4219 2764 3656 
Q 3106 3094 3106 1953 
z
M 2706 1953 
Q 2706 2963 2473 3425 
Q 2241 3888 1716 3888 
Q 1172 3888 936 3423 
Q 700 2959 700 1953 
Q 700 969 944 495 
Q 1188 22 1703 22 
Q 2216 22 2461 508 
Q 2706 994 2706 1953 
z
" transform="scale(0.015625)"/>
        <path id="DengXian-2e" d="M 475 -250 
L 475 291 
L 928 291 
L 928 -250 
L 475 -250 
z
" transform="scale(0.015625)"/>
       </defs>
       <use xlink:href="#DengXian-30"/>
       <use xlink:href="#DengXian-2e" transform="translate(52.685547 0)"/>
       <use xlink:href="#DengXian-30" transform="translate(74.609375 0)"/>
      </g>
     </g>
    </g>
    <g id="xtick_2">
     <g id="line2d_2">
      <g>
       <use xlink:href="#md9d595babe" x="443.022353" y="486.3672" style="stroke: #000000; stroke-width: 0.8"/>
      </g>
     </g>
     <g id="text_2">
      <!-- 0.2 -->
      <g transform="translate(434.111572 502.760325) scale(0.14 -0.14)">
       <defs>
        <path id="DengXian-32" d="M 347 -250 
L 347 31 
Q 491 394 764 751 
Q 1038 1109 1566 1569 
Q 2109 2038 2326 2359 
Q 2544 2681 2544 3034 
Q 2544 3441 2316 3661 
Q 2088 3881 1681 3881 
Q 1313 3881 1077 3664 
Q 841 3447 800 3069 
L 400 3119 
Q 447 3613 795 3916 
Q 1144 4219 1684 4219 
Q 2281 4219 2615 3912 
Q 2950 3606 2950 3059 
Q 2950 2778 2850 2531 
Q 2750 2284 2550 2039 
Q 2350 1794 1869 1366 
Q 1025 616 803 103 
L 3016 103 
L 3016 -250 
L 347 -250 
z
" transform="scale(0.015625)"/>
       </defs>
       <use xlink:href="#DengXian-30"/>
       <use xlink:href="#DengXian-2e" transform="translate(52.685547 0)"/>
       <use xlink:href="#DengXian-32" transform="translate(74.609375 0)"/>
      </g>
     </g>
    </g>
    <g id="xtick_3">
     <g id="line2d_3">
      <g>
       <use xlink:href="#md9d595babe" x="525.530118" y="486.3672" style="stroke: #000000; stroke-width: 0.8"/>
      </g>
     </g>
     <g id="text_3">
      <!-- 0.4 -->
      <g transform="translate(516.619336 502.760325) scale(0.14 -0.14)">
       <defs>
        <path id="DengXian-34" d="M 2516 803 
L 2516 -250 
L 2125 -250 
L 2125 803 
L 141 803 
L 141 1116 
L 2088 4153 
L 2516 4153 
L 2516 1131 
L 3113 1131 
L 3113 803 
L 2516 803 
z
M 2125 3628 
L 538 1131 
L 2125 1131 
L 2125 3628 
z
" transform="scale(0.015625)"/>
       </defs>
       <use xlink:href="#DengXian-30"/>
       <use xlink:href="#DengXian-2e" transform="translate(52.685547 0)"/>
       <use xlink:href="#DengXian-34" transform="translate(74.609375 0)"/>
      </g>
     </g>
    </g>
    <g id="xtick_4">
     <g id="line2d_4">
      <g>
       <use xlink:href="#md9d595babe" x="608.037882" y="486.3672" style="stroke: #000000; stroke-width: 0.8"/>
      </g>
     </g>
     <g id="text_4">
      <!-- 0.6 -->
      <g transform="translate(599.127101 502.760325) scale(0.14 -0.14)">
       <defs>
        <path id="DengXian-36" d="M 3047 1191 
Q 3047 491 2697 89 
Q 2347 -313 1747 -313 
Q 1075 -313 720 234 
Q 366 781 366 1850 
Q 366 3031 739 3625 
Q 1113 4219 1841 4219 
Q 2284 4219 2553 4026 
Q 2822 3834 2944 3428 
L 2566 3344 
Q 2400 3888 1816 3888 
Q 1303 3888 1033 3402 
Q 763 2916 756 1969 
Q 913 2263 1183 2417 
Q 1453 2572 1800 2572 
Q 2372 2572 2709 2201 
Q 3047 1831 3047 1191 
z
M 2647 1166 
Q 2647 1675 2405 1964 
Q 2163 2253 1716 2253 
Q 1466 2253 1256 2137 
Q 1047 2022 926 1806 
Q 806 1591 806 1306 
Q 806 747 1064 383 
Q 1322 19 1738 19 
Q 2166 19 2406 325 
Q 2647 631 2647 1166 
z
" transform="scale(0.015625)"/>
       </defs>
       <use xlink:href="#DengXian-30"/>
       <use xlink:href="#DengXian-2e" transform="translate(52.685547 0)"/>
       <use xlink:href="#DengXian-36" transform="translate(74.609375 0)"/>
      </g>
     </g>
    </g>
    <g id="xtick_5">
     <g id="line2d_5">
      <g>
       <use xlink:href="#md9d595babe" x="690.545647" y="486.3672" style="stroke: #000000; stroke-width: 0.8"/>
      </g>
     </g>
     <g id="text_5">
      <!-- 0.8 -->
      <g transform="translate(681.634866 502.760325) scale(0.14 -0.14)">
       <defs>
        <path id="DengXian-38" d="M 3050 972 
Q 3050 359 2697 23 
Q 2344 -313 1688 -313 
Q 1038 -313 680 25 
Q 322 363 322 966 
Q 322 1391 553 1684 
Q 784 1978 1159 2053 
L 1159 2066 
Q 819 2156 619 2440 
Q 419 2725 419 3109 
Q 419 3606 759 3912 
Q 1100 4219 1675 4219 
Q 2266 4219 2606 3911 
Q 2947 3603 2947 3103 
Q 2947 2706 2742 2428 
Q 2538 2150 2200 2075 
L 2200 2063 
Q 2588 1988 2819 1702 
Q 3050 1416 3050 972 
z
M 2541 3088 
Q 2541 3494 2316 3700 
Q 2091 3906 1675 3906 
Q 1263 3906 1042 3695 
Q 822 3484 822 3088 
Q 822 2684 1048 2454 
Q 1275 2225 1681 2225 
Q 2100 2225 2320 2450 
Q 2541 2675 2541 3088 
z
M 2644 1009 
Q 2644 1428 2394 1667 
Q 2144 1906 1678 1906 
Q 1231 1906 978 1656 
Q 725 1406 725 997 
Q 725 516 973 259 
Q 1222 3 1694 3 
Q 2172 3 2408 258 
Q 2644 513 2644 1009 
z
" transform="scale(0.015625)"/>
       </defs>
       <use xlink:href="#DengXian-30"/>
       <use xlink:href="#DengXian-2e" transform="translate(52.685547 0)"/>
       <use xlink:href="#DengXian-38" transform="translate(74.609375 0)"/>
      </g>
     </g>
    </g>
    <g id="xtick_6">
     <g id="line2d_6">
      <g>
       <use xlink:href="#md9d595babe" x="773.053412" y="486.3672" style="stroke: #000000; stroke-width: 0.8"/>
      </g>
     </g>
     <g id="text_6">
      <!-- 1.0 -->
      <g transform="translate(764.142631 502.760325) scale(0.14 -0.14)">
       <defs>
        <path id="DengXian-31" d="M 484 -250 
L 484 84 
L 1609 84 
L 1609 3744 
L 603 3075 
L 603 3434 
L 1653 4153 
L 2000 4153 
L 2000 84 
L 2959 84 
L 2959 -250 
L 484 -250 
z
" transform="scale(0.015625)"/>
       </defs>
       <use xlink:href="#DengXian-31"/>
       <use xlink:href="#DengXian-2e" transform="translate(52.685547 0)"/>
       <use xlink:href="#DengXian-30" transform="translate(74.609375 0)"/>
      </g>
     </g>
    </g>
    <g id="text_7">
     <!-- False Positive Rate (Positive label: 12) -->
     <g transform="translate(455.875563 519.3997) scale(0.14 -0.14)">
      <defs>
       <path id="DengXian-46" d="M 578 -250 
L 578 4153 
L 2897 4153 
L 2897 3800 
L 997 3800 
L 997 2188 
L 2766 2188 
L 2766 1841 
L 997 1841 
L 997 -250 
L 578 -250 
z
" transform="scale(0.015625)"/>
       <path id="DengXian-61" d="M 1381 16 
Q 1656 16 1870 145 
Q 2084 275 2206 501 
Q 2328 728 2328 978 
L 2328 1363 
L 1872 1350 
Q 1234 1334 964 1156 
Q 694 978 694 619 
Q 694 16 1381 16 
z
M 2725 -250 
L 2347 -250 
L 2328 316 
L 2316 316 
Q 1994 -313 1316 -313 
Q 819 -313 548 -67 
Q 278 178 278 613 
Q 278 1106 651 1365 
Q 1025 1625 1803 1647 
L 2325 1659 
L 2325 1788 
Q 2325 2238 2145 2452 
Q 1966 2666 1588 2666 
Q 1241 2666 1064 2555 
Q 888 2444 822 2181 
L 447 2259 
Q 547 2663 826 2828 
Q 1106 2994 1594 2994 
Q 2191 2994 2458 2697 
Q 2725 2400 2725 1753 
L 2725 -250 
z
" transform="scale(0.015625)"/>
       <path id="DengXian-6c" d="M 516 -250 
L 516 4294 
L 913 4294 
L 913 -250 
L 516 -250 
z
" transform="scale(0.015625)"/>
       <path id="DengXian-73" d="M 2409 628 
Q 2409 178 2114 -67 
Q 1819 -313 1284 -313 
Q 784 -313 500 -136 
Q 216 41 116 453 
L 481 519 
Q 547 259 733 128 
Q 919 -3 1281 -3 
Q 2019 -3 2019 594 
Q 2019 763 1951 869 
Q 1884 975 1767 1042 
Q 1650 1109 1489 1154 
Q 1328 1200 1141 1250 
Q 797 1334 623 1442 
Q 450 1550 356 1712 
Q 263 1875 263 2109 
Q 263 2531 522 2762 
Q 781 2994 1284 2994 
Q 1741 2994 1992 2825 
Q 2244 2656 2331 2291 
L 1956 2247 
Q 1903 2481 1742 2582 
Q 1581 2684 1284 2684 
Q 963 2684 805 2545 
Q 647 2406 647 2153 
Q 647 1991 708 1894 
Q 769 1797 889 1730 
Q 1009 1663 1441 1547 
Q 1863 1431 2038 1320 
Q 2213 1209 2311 1045 
Q 2409 881 2409 628 
z
" transform="scale(0.015625)"/>
       <path id="DengXian-65" d="M 725 1278 
Q 725 681 989 348 
Q 1253 16 1725 16 
Q 2041 16 2267 145 
Q 2494 275 2659 581 
L 2975 409 
Q 2756 19 2450 -147 
Q 2144 -313 1716 -313 
Q 1038 -313 675 118 
Q 313 550 313 1366 
Q 313 1888 484 2253 
Q 656 2619 970 2806 
Q 1284 2994 1703 2994 
Q 2353 2994 2697 2578 
Q 3041 2163 3041 1384 
L 3041 1278 
L 725 1278 
z
M 1688 2666 
Q 1250 2666 1003 2392 
Q 756 2119 731 1588 
L 2625 1588 
Q 2569 2666 1688 2666 
z
" transform="scale(0.015625)"/>
       <path id="DengXian-20" transform="scale(0.015625)"/>
       <path id="DengXian-50" d="M 3256 2856 
Q 3256 2466 3078 2161 
Q 2900 1856 2564 1687 
Q 2228 1519 1772 1519 
L 1022 1519 
L 1022 -250 
L 603 -250 
L 603 4153 
L 1747 4153 
Q 2463 4153 2859 3809 
Q 3256 3466 3256 2856 
z
M 2831 2850 
Q 2831 3306 2545 3561 
Q 2259 3816 1694 3816 
L 1022 3816 
L 1022 1850 
L 1722 1850 
Q 2253 1850 2542 2111 
Q 2831 2372 2831 2850 
z
" transform="scale(0.015625)"/>
       <path id="DengXian-6f" d="M 3359 1344 
Q 3359 569 2954 128 
Q 2550 -313 1819 -313 
Q 1116 -313 712 132 
Q 309 578 309 1344 
Q 309 2122 712 2558 
Q 1116 2994 1838 2994 
Q 2581 2994 2970 2570 
Q 3359 2147 3359 1344 
z
M 2944 1344 
Q 2944 2000 2669 2333 
Q 2394 2666 1850 2666 
Q 1297 2666 1011 2325 
Q 725 1984 725 1344 
Q 725 713 1008 364 
Q 1291 16 1813 16 
Q 2375 16 2659 353 
Q 2944 691 2944 1344 
z
" transform="scale(0.015625)"/>
       <path id="DengXian-69" d="M 516 3809 
L 516 4294 
L 913 4294 
L 913 3809 
L 516 3809 
z
M 516 -250 
L 516 2931 
L 913 2931 
L 913 -250 
L 516 -250 
z
" transform="scale(0.015625)"/>
       <path id="DengXian-74" d="M 1319 -300 
Q 972 -300 792 -115 
Q 613 69 613 428 
L 613 2603 
L 144 2603 
L 144 2931 
L 619 2931 
L 725 3666 
L 1013 3666 
L 1013 2931 
L 1859 2931 
L 1859 2603 
L 1013 2603 
L 1013 500 
Q 1013 275 1103 150 
Q 1194 25 1428 25 
Q 1631 25 1897 81 
L 1897 -228 
Q 1625 -300 1319 -300 
z
" transform="scale(0.015625)"/>
       <path id="DengXian-76" d="M 1706 -250 
L 1244 -250 
L 22 2931 
L 447 2931 
L 1263 719 
Q 1428 253 1475 69 
Q 1528 231 1583 393 
Q 1638 556 1700 716 
L 2541 2931 
L 2959 2931 
L 1706 -250 
z
" transform="scale(0.015625)"/>
       <path id="DengXian-52" d="M 2928 2913 
Q 2928 3347 2636 3581 
Q 2344 3816 1806 3816 
L 997 3816 
L 997 1978 
L 1831 1978 
Q 2347 1978 2637 2225 
Q 2928 2472 2928 2913 
z
M 3353 2919 
Q 3353 2425 3045 2097 
Q 2738 1769 2219 1697 
L 3500 -250 
L 3003 -250 
L 1794 1647 
L 997 1647 
L 997 -250 
L 578 -250 
L 578 4153 
L 1847 4153 
Q 2563 4153 2958 3825 
Q 3353 3497 3353 2919 
z
" transform="scale(0.015625)"/>
       <path id="DengXian-28" d="M 322 1413 
Q 322 2275 556 2912 
Q 791 3550 1341 4294 
L 1713 4294 
Q 1159 3544 920 2898 
Q 681 2253 681 1406 
Q 681 563 918 -82 
Q 1156 -728 1713 -1484 
L 1341 -1484 
Q 803 -763 562 -114 
Q 322 534 322 1413 
z
" transform="scale(0.015625)"/>
       <path id="DengXian-62" d="M 3363 1353 
Q 3363 566 2997 126 
Q 2631 -313 1969 -313 
Q 1594 -313 1339 -161 
Q 1084 -9 913 309 
L 900 309 
Q 903 156 872 -250 
L 494 -250 
Q 516 78 516 422 
L 516 4291 
L 913 4291 
L 913 2756 
Q 913 2656 909 2554 
Q 906 2453 900 2353 
L 913 2353 
Q 1119 2713 1383 2853 
Q 1647 2994 2034 2994 
Q 2669 2994 3016 2561 
Q 3363 2128 3363 1353 
z
M 2953 1353 
Q 2953 2000 2703 2333 
Q 2453 2666 1969 2666 
Q 1441 2666 1173 2323 
Q 906 1981 906 1328 
Q 906 681 1168 348 
Q 1431 16 1944 16 
Q 2447 16 2700 358 
Q 2953 700 2953 1353 
z
" transform="scale(0.015625)"/>
       <path id="DengXian-3a" d="M 475 2363 
L 475 2884 
L 928 2884 
L 928 2363 
L 475 2363 
z
M 475 -250 
L 475 272 
L 928 272 
L 928 -250 
L 475 -250 
z
" transform="scale(0.015625)"/>
       <path id="DengXian-29" d="M 1547 1403 
Q 1547 559 1314 -83 
Q 1081 -725 525 -1484 
L 156 -1484 
Q 709 -734 948 -89 
Q 1188 556 1188 1403 
Q 1188 2241 950 2887 
Q 713 3534 156 4294 
L 525 4294 
Q 1075 3553 1311 2909 
Q 1547 2266 1547 1403 
z
" transform="scale(0.015625)"/>
      </defs>
      <use xlink:href="#DengXian-46"/>
      <use xlink:href="#DengXian-61" transform="translate(47.65625 0)"/>
      <use xlink:href="#DengXian-6c" transform="translate(97.753906 0)"/>
      <use xlink:href="#DengXian-73" transform="translate(120.117188 0)"/>
      <use xlink:href="#DengXian-65" transform="translate(160.742188 0)"/>
      <use xlink:href="#DengXian-20" transform="translate(212.109375 0)"/>
      <use xlink:href="#DengXian-50" transform="translate(239.501953 0)"/>
      <use xlink:href="#DengXian-6f" transform="translate(294.677734 0)"/>
      <use xlink:href="#DengXian-73" transform="translate(352.001953 0)"/>
      <use xlink:href="#DengXian-69" transform="translate(392.626953 0)"/>
      <use xlink:href="#DengXian-74" transform="translate(414.990234 0)"/>
      <use xlink:href="#DengXian-69" transform="translate(446.777344 0)"/>
      <use xlink:href="#DengXian-76" transform="translate(469.140625 0)"/>
      <use xlink:href="#DengXian-65" transform="translate(515.722656 0)"/>
      <use xlink:href="#DengXian-20" transform="translate(567.089844 0)"/>
      <use xlink:href="#DengXian-52" transform="translate(594.482422 0)"/>
      <use xlink:href="#DengXian-61" transform="translate(652.148438 0)"/>
      <use xlink:href="#DengXian-74" transform="translate(702.246094 0)"/>
      <use xlink:href="#DengXian-65" transform="translate(734.033203 0)"/>
      <use xlink:href="#DengXian-20" transform="translate(785.400391 0)"/>
      <use xlink:href="#DengXian-28" transform="translate(812.792969 0)"/>
      <use xlink:href="#DengXian-50" transform="translate(841.992188 0)"/>
      <use xlink:href="#DengXian-6f" transform="translate(897.167969 0)"/>
      <use xlink:href="#DengXian-73" transform="translate(954.492188 0)"/>
      <use xlink:href="#DengXian-69" transform="translate(995.117188 0)"/>
      <use xlink:href="#DengXian-74" transform="translate(1017.480469 0)"/>
      <use xlink:href="#DengXian-69" transform="translate(1049.267578 0)"/>
      <use xlink:href="#DengXian-76" transform="translate(1071.630859 0)"/>
      <use xlink:href="#DengXian-65" transform="translate(1118.212891 0)"/>
      <use xlink:href="#DengXian-20" transform="translate(1169.580078 0)"/>
      <use xlink:href="#DengXian-6c" transform="translate(1196.972656 0)"/>
      <use xlink:href="#DengXian-61" transform="translate(1219.335938 0)"/>
      <use xlink:href="#DengXian-62" transform="translate(1269.433594 0)"/>
      <use xlink:href="#DengXian-65" transform="translate(1326.806641 0)"/>
      <use xlink:href="#DengXian-6c" transform="translate(1378.173828 0)"/>
      <use xlink:href="#DengXian-3a" transform="translate(1400.537109 0)"/>
      <use xlink:href="#DengXian-20" transform="translate(1422.460938 0)"/>
      <use xlink:href="#DengXian-31" transform="translate(1449.853516 0)"/>
      <use xlink:href="#DengXian-32" transform="translate(1502.539062 0)"/>
      <use xlink:href="#DengXian-29" transform="translate(1555.224609 0)"/>
     </g>
    </g>
   </g>
   <g id="matplotlib.axis_2">
    <g id="ytick_1">
     <g id="line2d_7">
      <defs>
       <path id="m9eae433080" d="M 0 0 
L -3.5 0 
" style="stroke: #000000; stroke-width: 0.8"/>
      </defs>
      <g>
       <use xlink:href="#m9eae433080" x="356.3892" y="482.241812" style="stroke: #000000; stroke-width: 0.8"/>
      </g>
     </g>
     <g id="text_8">
      <!-- 0.0 -->
      <g transform="translate(331.567637 486.938374) scale(0.14 -0.14)">
       <use xlink:href="#DengXian-30"/>
       <use xlink:href="#DengXian-2e" transform="translate(52.685547 0)"/>
       <use xlink:href="#DengXian-30" transform="translate(74.609375 0)"/>
      </g>
     </g>
    </g>
    <g id="ytick_2">
     <g id="line2d_8">
      <g>
       <use xlink:href="#m9eae433080" x="356.3892" y="399.734047" style="stroke: #000000; stroke-width: 0.8"/>
      </g>
     </g>
     <g id="text_9">
      <!-- 0.2 -->
      <g transform="translate(331.567637 404.43061) scale(0.14 -0.14)">
       <use xlink:href="#DengXian-30"/>
       <use xlink:href="#DengXian-2e" transform="translate(52.685547 0)"/>
       <use xlink:href="#DengXian-32" transform="translate(74.609375 0)"/>
      </g>
     </g>
    </g>
    <g id="ytick_3">
     <g id="line2d_9">
      <g>
       <use xlink:href="#m9eae433080" x="356.3892" y="317.226282" style="stroke: #000000; stroke-width: 0.8"/>
      </g>
     </g>
     <g id="text_10">
      <!-- 0.4 -->
      <g transform="translate(331.567637 321.922845) scale(0.14 -0.14)">
       <use xlink:href="#DengXian-30"/>
       <use xlink:href="#DengXian-2e" transform="translate(52.685547 0)"/>
       <use xlink:href="#DengXian-34" transform="translate(74.609375 0)"/>
      </g>
     </g>
    </g>
    <g id="ytick_4">
     <g id="line2d_10">
      <g>
       <use xlink:href="#m9eae433080" x="356.3892" y="234.718518" style="stroke: #000000; stroke-width: 0.8"/>
      </g>
     </g>
     <g id="text_11">
      <!-- 0.6 -->
      <g transform="translate(331.567637 239.41508) scale(0.14 -0.14)">
       <use xlink:href="#DengXian-30"/>
       <use xlink:href="#DengXian-2e" transform="translate(52.685547 0)"/>
       <use xlink:href="#DengXian-36" transform="translate(74.609375 0)"/>
      </g>
     </g>
    </g>
    <g id="ytick_5">
     <g id="line2d_11">
      <g>
       <use xlink:href="#m9eae433080" x="356.3892" y="152.210753" style="stroke: #000000; stroke-width: 0.8"/>
      </g>
     </g>
     <g id="text_12">
      <!-- 0.8 -->
      <g transform="translate(331.567637 156.907315) scale(0.14 -0.14)">
       <use xlink:href="#DengXian-30"/>
       <use xlink:href="#DengXian-2e" transform="translate(52.685547 0)"/>
       <use xlink:href="#DengXian-38" transform="translate(74.609375 0)"/>
      </g>
     </g>
    </g>
    <g id="ytick_6">
     <g id="line2d_12">
      <g>
       <use xlink:href="#m9eae433080" x="356.3892" y="69.702988" style="stroke: #000000; stroke-width: 0.8"/>
      </g>
     </g>
     <g id="text_13">
      <!-- 1.0 -->
      <g transform="translate(331.567637 74.399551) scale(0.14 -0.14)">
       <use xlink:href="#DengXian-31"/>
       <use xlink:href="#DengXian-2e" transform="translate(52.685547 0)"/>
       <use xlink:href="#DengXian-30" transform="translate(74.609375 0)"/>
      </g>
     </g>
    </g>
    <g id="text_14">
     <!-- True Positive Rate (Positive label: 12) -->
     <g transform="translate(324.321387 385.480838) rotate(-90) scale(0.14 -0.14)">
      <defs>
       <path id="DengXian-54" d="M 1850 3794 
L 1850 -250 
L 1434 -250 
L 1434 3794 
L 63 3794 
L 63 4153 
L 3250 4153 
L 3250 3794 
L 1850 3794 
z
" transform="scale(0.015625)"/>
       <path id="DengXian-72" d="M 528 -250 
L 528 2144 
Q 528 2397 500 2931 
L 869 2931 
Q 903 2588 903 2209 
L 916 2209 
Q 1047 2631 1262 2812 
Q 1478 2994 1819 2994 
Q 1950 2994 2063 2966 
L 2063 2597 
Q 1944 2625 1766 2625 
Q 1372 2625 1150 2289 
Q 928 1953 928 1366 
L 928 -250 
L 528 -250 
z
" transform="scale(0.015625)"/>
       <path id="DengXian-75" d="M 878 2931 
L 878 1066 
Q 878 509 1068 262 
Q 1259 16 1663 16 
Q 2103 16 2358 333 
Q 2613 650 2613 1188 
L 2613 2931 
L 3013 2931 
L 3013 459 
Q 3013 281 3020 104 
Q 3028 -72 3034 -250 
L 2675 -250 
L 2638 353 
L 2625 353 
Q 2459 13 2204 -150 
Q 1950 -313 1556 -313 
Q 1009 -313 745 0 
Q 481 313 481 969 
L 481 2931 
L 878 2931 
z
" transform="scale(0.015625)"/>
      </defs>
      <use xlink:href="#DengXian-54"/>
      <use xlink:href="#DengXian-72" transform="translate(51.757812 0)"/>
      <use xlink:href="#DengXian-75" transform="translate(85.644531 0)"/>
      <use xlink:href="#DengXian-65" transform="translate(140.722656 0)"/>
      <use xlink:href="#DengXian-20" transform="translate(192.089844 0)"/>
      <use xlink:href="#DengXian-50" transform="translate(219.482422 0)"/>
      <use xlink:href="#DengXian-6f" transform="translate(274.658203 0)"/>
      <use xlink:href="#DengXian-73" transform="translate(331.982422 0)"/>
      <use xlink:href="#DengXian-69" transform="translate(372.607422 0)"/>
      <use xlink:href="#DengXian-74" transform="translate(394.970703 0)"/>
      <use xlink:href="#DengXian-69" transform="translate(426.757812 0)"/>
      <use xlink:href="#DengXian-76" transform="translate(449.121094 0)"/>
      <use xlink:href="#DengXian-65" transform="translate(495.703125 0)"/>
      <use xlink:href="#DengXian-20" transform="translate(547.070312 0)"/>
      <use xlink:href="#DengXian-52" transform="translate(574.462891 0)"/>
      <use xlink:href="#DengXian-61" transform="translate(632.128906 0)"/>
      <use xlink:href="#DengXian-74" transform="translate(682.226562 0)"/>
      <use xlink:href="#DengXian-65" transform="translate(714.013672 0)"/>
      <use xlink:href="#DengXian-20" transform="translate(765.380859 0)"/>
      <use xlink:href="#DengXian-28" transform="translate(792.773438 0)"/>
      <use xlink:href="#DengXian-50" transform="translate(821.972656 0)"/>
      <use xlink:href="#DengXian-6f" transform="translate(877.148438 0)"/>
      <use xlink:href="#DengXian-73" transform="translate(934.472656 0)"/>
      <use xlink:href="#DengXian-69" transform="translate(975.097656 0)"/>
      <use xlink:href="#DengXian-74" transform="translate(997.460938 0)"/>
      <use xlink:href="#DengXian-69" transform="translate(1029.248047 0)"/>
      <use xlink:href="#DengXian-76" transform="translate(1051.611328 0)"/>
      <use xlink:href="#DengXian-65" transform="translate(1098.193359 0)"/>
      <use xlink:href="#DengXian-20" transform="translate(1149.560547 0)"/>
      <use xlink:href="#DengXian-6c" transform="translate(1176.953125 0)"/>
      <use xlink:href="#DengXian-61" transform="translate(1199.316406 0)"/>
      <use xlink:href="#DengXian-62" transform="translate(1249.414062 0)"/>
      <use xlink:href="#DengXian-65" transform="translate(1306.787109 0)"/>
      <use xlink:href="#DengXian-6c" transform="translate(1358.154297 0)"/>
      <use xlink:href="#DengXian-3a" transform="translate(1380.517578 0)"/>
      <use xlink:href="#DengXian-20" transform="translate(1402.441406 0)"/>
      <use xlink:href="#DengXian-31" transform="translate(1429.833984 0)"/>
      <use xlink:href="#DengXian-32" transform="translate(1482.519531 0)"/>
      <use xlink:href="#DengXian-29" transform="translate(1535.205078 0)"/>
     </g>
    </g>
   </g>
   <g id="line2d_13">
    <path d="M 360.514588 482.241812 
L 360.514588 466.962596 
L 377.016141 466.962596 
L 377.016141 436.404165 
L 393.517694 375.287302 
L 393.517694 344.728871 
L 410.019247 329.449655 
L 410.019247 298.891224 
L 443.022353 253.053576 
L 459.523906 222.495145 
L 525.530118 191.936714 
L 525.530118 176.657498 
L 525.530118 115.540635 
L 558.533224 115.540635 
L 558.533224 100.26142 
L 575.034776 84.982204 
L 591.536329 84.982204 
L 608.037882 69.702988 
L 624.539435 69.702988 
L 690.545647 69.702988 
L 707.0472 69.702988 
L 756.551859 69.702988 
L 773.053412 69.702988 
" clip-path="url(#p01fe0574f2)" style="fill: none; stroke: #ff8c00; stroke-width: 1.5; stroke-linecap: square"/>
   </g>
   <g id="line2d_14">
    <path d="M 360.514588 482.241812 
L 773.053412 69.702988 
" clip-path="url(#p01fe0574f2)" style="fill: none; stroke-dasharray: 5.55,2.4; stroke-dashoffset: 0; stroke: #000000; stroke-width: 1.5"/>
   </g>
   <g id="patch_3">
    <path d="M 356.3892 482.241812 
L 356.3892 69.702988 
" style="fill: none; stroke: #000000; stroke-width: 0.8; stroke-linejoin: miter; stroke-linecap: square"/>
   </g>
   <g id="patch_4">
    <path d="M 360.514588 486.3672 
L 773.053412 486.3672 
" style="fill: none; stroke: #000000; stroke-width: 0.8; stroke-linejoin: miter; stroke-linecap: square"/>
   </g>
   <g id="legend_1">
    <g id="patch_5">
     <path d="M 501.5013 479.3672 
L 767.3788 479.3672 
Q 770.1788 479.3672 770.1788 476.5672 
L 770.1788 437.8747 
Q 770.1788 435.0747 767.3788 435.0747 
L 501.5013 435.0747 
Q 498.7013 435.0747 498.7013 437.8747 
L 498.7013 476.5672 
Q 498.7013 479.3672 501.5013 479.3672 
z
" style="fill: #ffffff; opacity: 0.8; stroke: #cccccc; stroke-linejoin: miter"/>
    </g>
    <g id="line2d_15">
     <path d="M 504.3013 445.5747 
L 518.3013 445.5747 
L 532.3013 445.5747 
" style="fill: none; stroke: #ff8c00; stroke-width: 1.5; stroke-linecap: square"/>
    </g>
    <g id="text_15">
     <!-- RandomForestClassifier (AUC = 0.78) -->
     <g transform="translate(543.5013 450.4747) scale(0.14 -0.14)">
      <defs>
       <path id="DengXian-6e" d="M 2644 -250 
L 2644 1613 
Q 2644 2166 2453 2416 
Q 2263 2666 1859 2666 
Q 1425 2666 1169 2348 
Q 913 2031 913 1491 
L 913 -250 
L 516 -250 
L 516 2222 
Q 516 2400 508 2576 
Q 500 2753 494 2931 
L 850 2931 
L 888 2325 
L 900 2325 
Q 1066 2666 1319 2830 
Q 1572 2994 1966 2994 
Q 2513 2994 2777 2680 
Q 3041 2366 3041 1709 
L 3041 -250 
L 2644 -250 
z
" transform="scale(0.015625)"/>
       <path id="DengXian-64" d="M 309 1334 
Q 309 2100 676 2547 
Q 1044 2994 1700 2994 
Q 2069 2994 2328 2851 
Q 2588 2709 2759 2391 
L 2772 2391 
Q 2763 2534 2763 2681 
L 2763 4291 
L 3159 4291 
L 3159 422 
Q 3159 31 3184 -250 
L 2803 -250 
Q 2772 153 2772 331 
L 2759 331 
Q 2566 -16 2302 -164 
Q 2038 -313 1672 -313 
Q 1022 -313 665 118 
Q 309 550 309 1334 
z
M 719 1341 
Q 719 709 964 362 
Q 1209 16 1703 16 
Q 2238 16 2503 356 
Q 2769 697 2769 1341 
Q 2769 1994 2508 2330 
Q 2247 2666 1734 2666 
Q 1222 2666 970 2317 
Q 719 1969 719 1341 
z
" transform="scale(0.015625)"/>
       <path id="DengXian-6d" d="M 4506 -250 
L 4506 1613 
Q 4506 2181 4336 2423 
Q 4166 2666 3772 2666 
Q 3369 2666 3137 2358 
Q 2906 2050 2906 1575 
L 2906 -250 
L 2513 -250 
L 2513 1613 
Q 2513 2172 2341 2419 
Q 2169 2666 1784 2666 
Q 1400 2666 1156 2355 
Q 913 2044 913 1541 
L 913 -250 
L 516 -250 
L 516 2222 
Q 516 2516 494 2931 
L 850 2931 
Q 875 2622 888 2325 
L 900 2325 
Q 1056 2666 1293 2830 
Q 1531 2994 1903 2994 
Q 2303 2994 2534 2801 
Q 2766 2609 2834 2284 
L 2850 2284 
Q 3153 2994 3894 2994 
Q 4406 2994 4654 2687 
Q 4903 2381 4903 1709 
L 4903 -250 
L 4506 -250 
z
" transform="scale(0.015625)"/>
       <path id="DengXian-43" d="M 2200 -313 
Q 1347 -313 864 298 
Q 381 909 381 1972 
Q 381 3034 875 3626 
Q 1369 4219 2244 4219 
Q 2803 4219 3186 3994 
Q 3569 3769 3784 3275 
L 3397 3113 
Q 3238 3513 2948 3688 
Q 2659 3863 2244 3863 
Q 1556 3863 1182 3359 
Q 809 2856 809 1972 
Q 809 1072 1182 556 
Q 1556 41 2219 41 
Q 2684 41 2984 266 
Q 3284 491 3431 878 
L 3797 709 
Q 3359 -313 2200 -313 
z
" transform="scale(0.015625)"/>
       <path id="DengXian-66" d="M 1091 2603 
L 1091 -250 
L 694 -250 
L 694 2603 
L 150 2603 
L 150 2931 
L 694 2931 
L 694 3294 
Q 694 3803 908 4047 
Q 1122 4291 1556 4291 
Q 1791 4291 1922 4256 
L 1922 3944 
Q 1744 3972 1581 3972 
Q 1322 3972 1206 3794 
Q 1091 3616 1091 3231 
L 1091 2931 
L 1778 2931 
L 1778 2603 
L 1091 2603 
z
" transform="scale(0.015625)"/>
       <path id="DengXian-41" d="M 3559 -250 
L 3031 1125 
L 1047 1125 
L 519 -250 
L 75 -250 
L 1794 4153 
L 2291 4153 
L 4000 -250 
L 3559 -250 
z
M 2034 3806 
Q 1975 3613 1906 3419 
Q 1838 3225 1766 3034 
L 1166 1472 
L 2913 1472 
L 2319 3038 
Q 2247 3231 2178 3422 
Q 2109 3613 2047 3806 
L 2034 3806 
z
" transform="scale(0.015625)"/>
       <path id="DengXian-55" d="M 2091 -313 
Q 1353 -313 937 104 
Q 522 522 522 1284 
L 522 4153 
L 941 4153 
L 941 1325 
Q 941 709 1241 373 
Q 1541 38 2100 38 
Q 2694 38 3011 381 
Q 3328 725 3328 1366 
L 3328 4153 
L 3750 4153 
L 3750 1347 
Q 3750 566 3312 126 
Q 2875 -313 2091 -313 
z
" transform="scale(0.015625)"/>
       <path id="DengXian-3d" d="M 638 2453 
L 638 2784 
L 3628 2784 
L 3628 2453 
L 638 2453 
z
M 638 916 
L 638 1247 
L 3628 1247 
L 3628 916 
L 638 916 
z
" transform="scale(0.015625)"/>
       <path id="DengXian-37" d="M 3031 3809 
Q 2278 2631 1928 1634 
Q 1578 638 1578 -250 
L 1172 -250 
Q 1172 625 1545 1651 
Q 1919 2678 2638 3797 
L 331 3797 
L 331 4153 
L 3031 4153 
L 3031 3809 
z
" transform="scale(0.015625)"/>
      </defs>
      <use xlink:href="#DengXian-52"/>
      <use xlink:href="#DengXian-61" transform="translate(57.666016 0)"/>
      <use xlink:href="#DengXian-6e" transform="translate(107.763672 0)"/>
      <use xlink:href="#DengXian-64" transform="translate(162.792969 0)"/>
      <use xlink:href="#DengXian-6f" transform="translate(220.214844 0)"/>
      <use xlink:href="#DengXian-6d" transform="translate(277.539062 0)"/>
      <use xlink:href="#DengXian-46" transform="translate(361.669922 0)"/>
      <use xlink:href="#DengXian-6f" transform="translate(409.326172 0)"/>
      <use xlink:href="#DengXian-72" transform="translate(466.650391 0)"/>
      <use xlink:href="#DengXian-65" transform="translate(500.537109 0)"/>
      <use xlink:href="#DengXian-73" transform="translate(551.904297 0)"/>
      <use xlink:href="#DengXian-74" transform="translate(592.529297 0)"/>
      <use xlink:href="#DengXian-43" transform="translate(624.316406 0)"/>
      <use xlink:href="#DengXian-6c" transform="translate(686.328125 0)"/>
      <use xlink:href="#DengXian-61" transform="translate(708.691406 0)"/>
      <use xlink:href="#DengXian-73" transform="translate(758.789062 0)"/>
      <use xlink:href="#DengXian-73" transform="translate(799.414062 0)"/>
      <use xlink:href="#DengXian-69" transform="translate(840.039062 0)"/>
      <use xlink:href="#DengXian-66" transform="translate(862.402344 0)"/>
      <use xlink:href="#DengXian-69" transform="translate(891.845703 0)"/>
      <use xlink:href="#DengXian-65" transform="translate(914.208984 0)"/>
      <use xlink:href="#DengXian-72" transform="translate(965.576172 0)"/>
      <use xlink:href="#DengXian-20" transform="translate(999.462891 0)"/>
      <use xlink:href="#DengXian-28" transform="translate(1026.855469 0)"/>
      <use xlink:href="#DengXian-41" transform="translate(1056.054688 0)"/>
      <use xlink:href="#DengXian-55" transform="translate(1119.677734 0)"/>
      <use xlink:href="#DengXian-43" transform="translate(1186.425781 0)"/>
      <use xlink:href="#DengXian-20" transform="translate(1248.4375 0)"/>
      <use xlink:href="#DengXian-3d" transform="translate(1275.830078 0)"/>
      <use xlink:href="#DengXian-20" transform="translate(1342.529297 0)"/>
      <use xlink:href="#DengXian-30" transform="translate(1369.921875 0)"/>
      <use xlink:href="#DengXian-2e" transform="translate(1422.607422 0)"/>
      <use xlink:href="#DengXian-37" transform="translate(1444.53125 0)"/>
      <use xlink:href="#DengXian-38" transform="translate(1497.216797 0)"/>
      <use xlink:href="#DengXian-29" transform="translate(1549.902344 0)"/>
     </g>
    </g>
    <g id="line2d_16">
     <path d="M 504.3013 465.62095 
L 518.3013 465.62095 
L 532.3013 465.62095 
" style="fill: none; stroke-dasharray: 5.55,2.4; stroke-dashoffset: 0; stroke: #000000; stroke-width: 1.5"/>
    </g>
    <g id="text_16">
     <!-- Chance level (AUC = 0.5) -->
     <g transform="translate(543.5013 470.52095) scale(0.14 -0.14)">
      <defs>
       <path id="DengXian-68" d="M 2644 -250 
L 2644 1613 
Q 2644 2169 2453 2417 
Q 2263 2666 1859 2666 
Q 1431 2666 1172 2356 
Q 913 2047 913 1516 
L 913 -250 
L 516 -250 
L 516 4291 
L 913 4291 
L 913 3025 
Q 913 2853 908 2684 
Q 903 2516 897 2344 
L 909 2344 
Q 1084 2684 1337 2839 
Q 1591 2994 1966 2994 
Q 2513 2994 2777 2680 
Q 3041 2366 3041 1709 
L 3041 -250 
L 2644 -250 
z
" transform="scale(0.015625)"/>
       <path id="DengXian-63" d="M 1609 -313 
Q 975 -313 644 107 
Q 313 528 313 1328 
Q 313 2125 658 2559 
Q 1003 2994 1638 2994 
Q 2141 2994 2427 2787 
Q 2713 2581 2788 2141 
L 2378 2094 
Q 2319 2391 2137 2528 
Q 1956 2666 1641 2666 
Q 716 2666 716 1344 
Q 716 16 1619 16 
Q 2284 16 2394 622 
L 2788 566 
Q 2622 -313 1609 -313 
z
" transform="scale(0.015625)"/>
       <path id="DengXian-35" d="M 3047 1169 
Q 3047 469 2676 78 
Q 2306 -313 1641 -313 
Q 575 -313 366 672 
L 763 734 
Q 859 350 1075 186 
Q 1291 22 1669 22 
Q 2134 22 2387 315 
Q 2641 609 2641 1153 
Q 2641 1619 2392 1895 
Q 2144 2172 1713 2172 
Q 1459 2172 1265 2095 
Q 1072 2019 875 1844 
L 503 1844 
L 641 4153 
L 2828 4153 
L 2828 3816 
L 997 3816 
L 894 2222 
Q 1113 2381 1323 2442 
Q 1534 2503 1775 2503 
Q 2359 2503 2703 2142 
Q 3047 1781 3047 1169 
z
" transform="scale(0.015625)"/>
      </defs>
      <use xlink:href="#DengXian-43"/>
      <use xlink:href="#DengXian-68" transform="translate(62.011719 0)"/>
      <use xlink:href="#DengXian-61" transform="translate(117.041016 0)"/>
      <use xlink:href="#DengXian-6e" transform="translate(167.138672 0)"/>
      <use xlink:href="#DengXian-63" transform="translate(222.167969 0)"/>
      <use xlink:href="#DengXian-65" transform="translate(267.431641 0)"/>
      <use xlink:href="#DengXian-20" transform="translate(318.798828 0)"/>
      <use xlink:href="#DengXian-6c" transform="translate(346.191406 0)"/>
      <use xlink:href="#DengXian-65" transform="translate(368.554688 0)"/>
      <use xlink:href="#DengXian-76" transform="translate(419.921875 0)"/>
      <use xlink:href="#DengXian-65" transform="translate(466.503906 0)"/>
      <use xlink:href="#DengXian-6c" transform="translate(517.871094 0)"/>
      <use xlink:href="#DengXian-20" transform="translate(540.234375 0)"/>
      <use xlink:href="#DengXian-28" transform="translate(567.626953 0)"/>
      <use xlink:href="#DengXian-41" transform="translate(596.826172 0)"/>
      <use xlink:href="#DengXian-55" transform="translate(660.449219 0)"/>
      <use xlink:href="#DengXian-43" transform="translate(727.197266 0)"/>
      <use xlink:href="#DengXian-20" transform="translate(789.208984 0)"/>
      <use xlink:href="#DengXian-3d" transform="translate(816.601562 0)"/>
      <use xlink:href="#DengXian-20" transform="translate(883.300781 0)"/>
      <use xlink:href="#DengXian-30" transform="translate(910.693359 0)"/>
      <use xlink:href="#DengXian-2e" transform="translate(963.378906 0)"/>
      <use xlink:href="#DengXian-35" transform="translate(985.302734 0)"/>
      <use xlink:href="#DengXian-29" transform="translate(1037.988281 0)"/>
     </g>
    </g>
   </g>
  </g>
 </g>
 <defs>
  <clipPath id="p01fe0574f2">
   <rect x="356.3892" y="65.5776" width="420.7896" height="420.7896"/>
  </clipPath>
 </defs>
</svg>
